<?xml version="1.0" standalone="no"?>
<!DOCTYPE svg PUBLIC "-//W3C//DTD SVG 1.1//EN" "http://www.w3.org/Graphics/SVG/1.1/DTD/svg11.dtd" >
<svg>
<metadata>
Created by FontForge 20090914 at Thu Jun 18 17:13:05 2015
 By www-data
Copyright (c) 2012 by Brian J. Bonislawsky DBA Astigmatic (AOETI) (astigma@astigmatic.com), with ReservedFont Name "Sacramento"
</metadata>
<defs>
<font id="Sacramento-Regular" horiz-adv-x="500" >
  <font-face 
    font-family="Sacramento"
    font-weight="400"
    font-stretch="normal"
    units-per-em="2048"
    panose-1="2 0 5 7 0 0 0 2 0 0"
    ascent="1638"
    descent="-410"
    x-height="482.997"
    cap-height="1550"
    bbox="-362.999 -1084 3388 1905"
    underline-thickness="20"
    underline-position="-113"
    unicode-range="U+0020-U+FB02"
  />
<missing-glyph 
 />
    <glyph glyph-name="fi" unicode="fi" horiz-adv-x="885" 
d="M116 -49c49.333 22 94.167 47.3281 134.5 75.9951s76.333 58.834 108 90.501s58.667 64 81 97s40.166 64.5 53.499 94.5c0.666992 1.33301 1.16699 2.5 1.5 3.5s1.16602 2.16699 2.49902 3.5c2.66699 56 7.66699 112.667 15 170c1.33301 9.33301 5.5 17.5 12.5 24.5
s16.167 10.5 27.5 10.5c10 0 18.333 -3.83301 25 -11.5s10 -16.5 10 -26.5c0 -4 -0.833008 -16 -2.5 -36l-6 -71.5c-2.33301 -27.667 -4.33301 -57 -6 -88s-2.5 -59.5 -2.5 -85.5c0 -35.333 3.5 -63.833 10.5 -85.5s16 -38.5 27 -50.5s22.667 -20 35 -24
s24.166 -6 35.499 -6c18.667 0 38 6.66699 58 20s40.5 32 61.5 56s42.167 52.833 63.5 86.5s42.333 71.167 63 112.5c3.33301 6.66699 8 11.834 14 15.501s12.667 5.5 20 5.5c10.667 0 19.5 -4 26.5 -12s10.5 -16.667 10.5 -26c0 -6.66699 -1.33301 -12.334 -4 -17.001
l-30 -56c-12 -22 -25.667 -44.667 -41 -68s-32.166 -46.5 -50.499 -69.5s-37.833 -43.667 -58.5 -62s-42.334 -33.166 -65.001 -44.499s-45.667 -17 -69 -17c-27.333 0 -51.666 5.16699 -72.999 15.5s-39.5 24.5 -54.5 42.5s-27 39.333 -36 64s-14.833 51.334 -17.5 80.001
c-34.667 -50 -79.167 -98.333 -133.5 -145s-121.5 -88.667 -201.5 -126c36 -37.333 67.333 -78.833 94 -124.5s48.834 -93.167 66.501 -142.5s31 -99.166 40 -149.499s13.5 -98.5 13.5 -144.5c0 -42 -3.83301 -81.5 -11.5 -118.5s-19 -69.167 -34 -96.5
s-33.167 -48.833 -54.5 -64.5s-45.666 -23.5 -72.999 -23.5c-40 0 -71 14.833 -93 44.5s-38.167 70.667 -48.5 123s-16.333 114 -18 185s-2.5 148.167 -2.5 231.5v144.5c0 55 0.166992 114 0.5 177l1 198c0.333008 69 0.833008 138.167 1.5 207.5l2 204.5
c0.666992 67 1.66699 130.5 3 190.5c2 114.667 6 217 12 307s15.667 166 29 228s31.5 109.167 54.5 141.5s52.167 48.5 87.5 48.5c28 0 51.667 -7.83301 71 -23.5s35 -36.667 47 -63s20.667 -57.166 26 -92.499s8 -72.333 8 -111c0 -81.333 -7 -160 -21 -236
s-33 -149.667 -57 -221s-52.167 -141 -84.5 -209s-66.833 -135 -103.5 -201v-88.5v-95c0 -31.667 -0.166992 -62 -0.5 -91s-0.5 -54.167 -0.5 -75.5zM119.001 454.995c27.333 51.333 52.501 105.506 75.501 162.506s42.833 115.833 59.5 176.5s29.667 122.667 39 186
s14 127 14 191c0 32 -1.5 61 -4.5 87s-7.66699 48.167 -14 66.5s-14.333 32.666 -24 42.999s-20.834 15.5 -33.501 15.5c-13.333 0 -25 -8 -35 -24s-18.667 -37.333 -26 -64s-13.5 -57.334 -18.5 -92.001s-9.16699 -70.834 -12.5 -108.501s-6 -75.334 -8 -113.001
s-3.5 -73 -4.5 -106s-1.66699 -62.167 -2 -87.5s-0.5 -44.333 -0.5 -57c-0.666992 -26.667 -1.16699 -50.334 -1.5 -71.001s-0.833008 -41 -1.5 -61s-1.16699 -41.333 -1.5 -64s-0.5 -49.334 -0.5 -80.001zM116.002 -171.999c0 -42 -0.166992 -81.1719 -0.5 -117.505
s-0.5 -69.5 -0.5 -99.5c0 -62 0.333008 -123.333 1 -184s3.83398 -115.167 9.50098 -163.5s14.334 -87.333 26.001 -117s28.5 -44.5 50.5 -44.5c20 0 36.333 9 49 27s22.5 39.333 29.5 64s11.833 49.834 14.5 75.501s4 46.5 4 62.5c0 40.667 -3.83301 83.334 -11.5 128.001
s-19.334 88.834 -35.001 132.501s-34.834 85.834 -57.501 126.501s-49 77.334 -79 110.001zM656.002 784.996c0 -25.333 -8.83301 -46.833 -26.5 -64.5s-39.167 -26.5 -64.5 -26.5s-46.833 8.83301 -64.5 26.5s-26.5 39.167 -26.5 64.5c0 12.667 2.33301 24.5 7 35.5
s11.167 20.667 19.5 29s18 14.833 29 19.5s22.833 7 35.5 7s24.5 -2.33301 35.5 -7s20.667 -11.167 29 -19.5s14.833 -18 19.5 -29s7 -22.833 7 -35.5zM600.002 784.996c0 9.33301 -3.5 17.5 -10.5 24.5s-15.167 10.5 -24.5 10.5s-17.333 -3.5 -24 -10.5
s-10 -15.167 -10 -24.5s3.33301 -17.333 10 -24s14.667 -10 24 -10s17.5 3.33301 24.5 10s10.5 14.667 10.5 24z" />
    <glyph glyph-name="fl" unicode="fl" horiz-adv-x="956" 
d="M1062 277c-7.33301 -15.333 -16.5059 -33.5059 -27.5059 -54.5059s-23.5 -42.833 -37.5 -65.5s-29.667 -45.167 -47 -67.5s-36.166 -42.333 -56.499 -60s-42 -32 -65 -43s-47.5 -16.5 -73.5 -16.5c-28.667 0 -54.5 6.5 -77.5 19.5s-43.5 31 -61.5 54s-33.667 50 -47 81
s-25 64.167 -35 99.5c-16 -29.333 -35.5 -59 -58.5 -89s-49.667 -59.333 -80 -88s-65 -56.334 -104 -83.001s-82.5 -51 -130.5 -73c36 -37.333 67.333 -78.833 94 -124.5s48.834 -93.167 66.501 -142.5s31 -99.166 40 -149.499s13.5 -98.5 13.5 -144.5
c0 -42 -3.83301 -81.5 -11.5 -118.5s-19 -69.167 -34 -96.5s-33.167 -48.833 -54.5 -64.5s-45.666 -23.5 -72.999 -23.5c-40 0 -71 14.833 -93 44.5s-38.167 70.667 -48.5 123s-16.333 114 -18 185s-2.5 148.167 -2.5 231.5v144.5c0 55 0.166992 114 0.5 177l1 198
c0.333008 69 0.833008 138.167 1.5 207.5l2 204.5c0.666992 67 1.66699 130.5 3 190.5c2 114.667 6 217 12 307s15.667 166 29 228s31.5 109.167 54.5 141.5s52.167 48.5 87.5 48.5c28 0 51.667 -7.83301 71 -23.5s35 -36.667 47 -63s20.667 -57.166 26 -92.499
s8 -72.333 8 -111c0 -81.333 -7 -160 -21 -236s-33 -149.667 -57 -221s-52.167 -141 -84.5 -209s-66.833 -135 -103.5 -201v-88.5v-95c0 -31.667 -0.166992 -62 -0.5 -91s-0.5 -54.167 -0.5 -75.5c49.333 22 94.166 47.333 134.499 76s76.333 58.834 108 90.501
s58.667 64 81 97s40.166 64.5 53.499 94.5c4 8.66699 10.333 15 19 19c-11.333 64 -18.666 127.5 -21.999 190.5s-5 118.167 -5 165.5c0 56 1.83301 114 5.5 174s9.5 118.667 17.5 176s18.167 111.666 30.5 162.999s27 96.333 44 135s36.5 69.334 58.5 92.001s47 34 75 34
c22 0 41.833 -5.16699 59.5 -15.5s32.5 -27.166 44.5 -50.499s21.333 -53.666 28 -90.999s10 -83 10 -137c0 -66.667 -7 -135.5 -21 -206.5s-33 -142.5 -57 -214.5s-52.333 -143.833 -85 -215.5s-67.667 -141.5 -105 -209.5c16.667 -84.667 39 -151.167 67 -199.5
s61.667 -72.5 101 -72.5c26.667 0 52.334 10.5 77.001 31.5s47.334 45.833 68.001 74.5s38.834 57.834 54.501 87.501s27.834 53.5 36.501 71.5c3.33301 6.66699 8 11.834 14 15.501s12.667 5.5 20 5.5c11.333 0 20.5 -4 27.5 -12s10.5 -17 10.5 -27
c0 -4 -1.33301 -9.33301 -4 -16zM560.994 678.994c0 -42.667 0.999023 -83.6689 2.99902 -123.002s4.66699 -77 8 -113c28 54 54.667 111.5 80 172.5s47.666 122.667 66.999 185s34.833 124.333 46.5 186s17.5 120.5 17.5 176.5c0 78.667 -6.33301 135 -19 169
s-29.667 51 -51 51c-14 0 -27.5 -9.66699 -40.5 -29s-25.167 -45.666 -36.5 -78.999s-21.666 -72.666 -30.999 -117.999s-17.166 -94 -23.499 -146s-11.333 -106.333 -15 -163s-5.5 -113 -5.5 -169zM118.993 454.992c27.333 51.333 52.501 105.506 75.501 162.506
s42.833 115.833 59.5 176.5s29.667 122.667 39 186s14 127 14 191c0 32 -1.5 61 -4.5 87s-7.66699 48.167 -14 66.5s-14.333 32.666 -24 42.999s-20.834 15.5 -33.501 15.5c-13.333 0 -25 -8 -35 -24s-18.667 -37.333 -26 -64s-13.5 -57.334 -18.5 -92.001
s-9.16699 -70.834 -12.5 -108.501s-6 -75.334 -8 -113.001s-3.5 -73 -4.5 -106s-1.66699 -62.167 -2 -87.5s-0.5 -44.333 -0.5 -57c-0.666992 -26.667 -1.16699 -50.334 -1.5 -71.001s-0.833008 -41 -1.5 -61s-1.16699 -41.333 -1.5 -64s-0.5 -49.334 -0.5 -80.001z
M115.994 -172.002c0 -42 -0.166992 -81.1719 -0.5 -117.505s-0.5 -69.5 -0.5 -99.5c0 -62 0.333008 -123.333 1 -184s3.83398 -115.167 9.50098 -163.5s14.334 -87.333 26.001 -117s28.5 -44.5 50.5 -44.5c20 0 36.333 9 49 27s22.5 39.333 29.5 64
s11.833 49.834 14.5 75.501s4 46.5 4 62.5c0 40.667 -3.83301 83.334 -11.5 128.001s-19.334 88.834 -35.001 132.501s-34.834 85.834 -57.501 126.501s-49 77.334 -79 110.001z" />
    <glyph glyph-name=".notdef" 
 />
    <glyph glyph-name="space" unicode=" " horiz-adv-x="450" 
 />
    <glyph glyph-name="exclam" unicode="!" horiz-adv-x="535" 
d="M301 265c-0.666992 -10 -4.5 -18.5 -11.5 -25.5s-15.833 -10.5 -26.5 -10.5h-1c-10.667 0 -19.5 3.83301 -26.5 11.5s-10.167 16.834 -9.5 27.501l33 1132c0.666992 10.667 4.66699 19.667 12 27s16.333 10.666 27 9.99902s19.5 -4.66699 26.5 -12s10.5 -16.333 10.5 -27
zM308 22c0 -15.333 -5.16699 -28.166 -15.5 -38.499s-23.166 -15.5 -38.499 -15.5s-28.166 5.16699 -38.499 15.5s-15.5 23.166 -15.5 38.499s5.16699 28.166 15.5 38.499s23.166 15.5 38.499 15.5s28.166 -5.16699 38.499 -15.5s15.5 -23.166 15.5 -38.499z" />
    <glyph glyph-name="quotedbl" unicode="&#x22;" horiz-adv-x="404" 
d="M292 1162c-1.33301 -9.33301 -5.66602 -16.832 -12.999 -22.499s-15.666 -8.5 -24.999 -8.5c-11.333 0 -20.333 3.83301 -27 11.5s-10 17.167 -10 28.5c0 4 0.666992 9.33301 2 16l36 221c1.33301 9.33301 5.66602 16.833 12.999 22.5s15.666 8.5 24.999 8.5
c10.667 0 19.5 -3.66699 26.5 -11s10.5 -16 10.5 -26c0 -2.66699 -0.666992 -7.33398 -2 -14.001zM149 1145c-1.33301 -9.33301 -5.66602 -17.166 -12.999 -23.499s-15.666 -9.5 -24.999 -9.5s-17.833 3.66699 -25.5 11s-11.5 16.666 -11.5 27.999
c0 2.66699 0.166992 5.5 0.5 8.5s0.833008 6.83301 1.5 11.5l25 208c1.33301 10 5.66602 18 12.999 24s15.666 9 24.999 9c11.333 0 20.333 -3.83301 27 -11.5s10 -16.5 10 -26.5c0 -2.66699 -0.5 -8.5 -1.5 -17.5s-1.83301 -15.833 -2.5 -20.5z" />
    <glyph glyph-name="numbersign" unicode="#" horiz-adv-x="694" 
d="M516 822l99.002 1.99805c10.667 0 19.667 -3.66699 27 -11s11.333 -16.333 12 -27c0 -10 -3.66699 -18.833 -11 -26.5s-16 -11.5 -26 -11.5h-63c-20 0 -39.667 -0.333008 -59 -1l-55 -187h97c10 0 18.667 -3.66699 26 -11s11 -16 11 -26
c0 -10.667 -3.66699 -19.667 -11 -27s-16 -11 -26 -11h-119l-89 -309c-2.66699 -8 -7.33398 -14.5 -14.001 -19.5s-14.334 -7.5 -23.001 -7.5c-11.333 0 -20.5 3.83301 -27.5 11.5s-10.5 16.167 -10.5 25.5c0 2 0.166992 3.83301 0.5 5.5s0.833008 3.5 1.5 5.5l84 287h-101
l-76 -245c-2.66699 -8 -7.33398 -14.333 -14.001 -19s-14 -7 -22 -7c-11.333 0 -20.5 3.5 -27.5 10.5s-10.5 15.5 -10.5 25.5c0 2.66699 0.666992 6.66699 2 12l69 222h-82c-10.667 0 -19.667 3.66699 -27 11s-11 16.333 -11 27s3.66699 19.667 11 27s16.333 11 27 11h105
l57 184c-26.667 -0.666992 -47.5 -1.16699 -62.5 -1.5s-23.833 -0.5 -26.5 -0.5c-10.667 0 -19.667 3.5 -27 10.5s-11 15.833 -11 26.5s3.5 19.667 10.5 27s15.833 11 26.5 11l113 2l60 191c2.66699 8 7.33398 14.5 14.001 19.5s14 7.5 22 7.5c11.333 0 20.5 -4 27.5 -12
s10.5 -17 10.5 -27c0 -3.33301 -0.666992 -7.66602 -2 -12.999s-2.33301 -8.66602 -3 -9.99902l-48 -155l94 2l68 234c2.66699 8 7.33398 14.5 14.001 19.5s14 7.5 22 7.5c11.333 0 20.5 -3.83301 27.5 -11.5s10.5 -16.167 10.5 -25.5c0 -2 -0.333008 -4.5 -1 -7.5
s-1.33398 -5.16699 -2.00098 -6.5zM416.002 746.998c-17.333 -0.666992 -34 -1 -50 -1s-31 -0.333008 -45 -1l-58 -186c17.333 0 34.833 0.166992 52.5 0.5s33.167 0.5 46.5 0.5z" />
    <glyph glyph-name="dollar" unicode="$" horiz-adv-x="1018" 
d="M968 903c0 -6.66699 -0.504883 -14.0049 -1.50488 -22.0049s-3 -15.333 -6 -22s-7.16699 -12.334 -12.5 -17.001s-12.666 -7 -21.999 -7c-10.667 0 -19.5 3.83301 -26.5 11.5s-10.5 16.5 -10.5 26.5c0 5.33301 0.5 10.333 1.5 15s1.5 9.33398 1.5 14.001
c0 22.667 -7.33301 42.334 -22 59.001c-6.66699 7.33301 -16.167 15.5 -28.5 24.5s-29.333 17.333 -51 25s-48.334 14.167 -80.001 19.5s-69.834 8 -114.501 8c-51.333 0 -103.666 -5.16699 -156.999 -15.5s-101.666 -25.166 -144.999 -44.499s-78.833 -43 -106.5 -71
s-41.5 -59.667 -41.5 -95c0 -27.333 10.333 -49.666 31 -66.999s47.167 -31.5 79.5 -42.5s68.333 -19.333 108 -25s78.5 -10.5 116.5 -14.5l136.5 -14c43.667 -4.66699 82.334 -12.167 116.001 -22.5s60.5 -25 80.5 -44s30 -44.833 30 -77.5
c0 -23.333 -5.16699 -46.666 -15.5 -69.999s-27.5 -44.333 -51.5 -63s-55.5 -34 -94.5 -46s-87.167 -18.667 -144.5 -20l-11 -277c-0.666992 -10 -4.66699 -18.5 -12 -25.5s-16 -10.5 -26 -10.5c-11.333 0 -20.666 3.83301 -27.999 11.5s-10.666 17.167 -9.99902 28.5
l12 275c-38 2.66699 -71.5 7.16699 -100.5 13.5s-53.167 13 -72.5 20s-34.333 13.333 -45 19s-16.334 8.83398 -17.001 9.50098c-11.333 7.33301 -17 18 -17 32c0 10.667 4 19.667 12 27s16.667 11 26 11c6 0 12.667 -2 20 -6l16.5 -8.5c11 -5.66699 27 -11.834 48 -18.501
s47 -12.667 78 -18s67.167 -8 108.5 -8c38.667 0 73.334 3 104.001 9s56.667 14.167 78 24.5s37.666 22.5 48.999 36.5s17 29 17 45c0 16.667 -5.83301 30 -17.5 40s-29.167 18 -52.5 24s-52.666 11 -87.999 15s-76.666 8.33301 -123.999 13
c-88.667 8.66699 -160.167 20.834 -214.5 36.501s-96.5 33.5 -126.5 53.5s-50 41.333 -60 64s-15 45.667 -15 69c0 44 12.167 83.167 36.5 117.5s56.333 63.833 96 88.5s85 44.667 136 60s103.5 26 157.5 32l15 274c0.666992 9.33301 4.66699 17.5 12 24.5s16 10.5 26 10.5
c11.333 0 20.5 -4 27.5 -12s10.5 -17.333 10.5 -28l-16 -264h21c58 0 110.167 -4.83301 156.5 -14.5s85.833 -23.5 118.5 -41.5s57.667 -40 75 -66s26 -55.667 26 -89z" />
    <glyph glyph-name="percent" unicode="%" horiz-adv-x="1188" 
d="M1138 376c0 -37.333 -6.83301 -72.333 -20.5 -105s-32.334 -61.334 -56.001 -86.001s-51.167 -44 -82.5 -58s-65 -21 -101 -21s-69.833 7 -101.5 21s-59.334 33.333 -83.001 58s-42.334 53.334 -56.001 86.001s-20.5 67.667 -20.5 105
c0 36.667 6.83301 71.334 20.5 104.001s32.334 61.334 56.001 86.001s51.334 44 83.001 58s65.5 21 101.5 21s69.667 -7 101 -21s58.833 -33.333 82.5 -58s42.334 -53.334 56.001 -86.001s20.5 -67.334 20.5 -104.001zM571 925c0 -37.333 -6.83301 -72.166 -20.5 -104.499
s-32.334 -60.833 -56.001 -85.5s-51.167 -44 -82.5 -58s-65 -21 -101 -21s-69.833 7 -101.5 21s-59.334 33.333 -83.001 58s-42.334 53.167 -56.001 85.5s-20.5 67.166 -20.5 104.499s6.83301 72.333 20.5 105s32.334 61.334 56.001 86.001s51.334 44 83.001 58
s65.5 21 101.5 21s69.667 -7 101 -21s58.833 -33.333 82.5 -58s42.334 -53.334 56.001 -86.001s20.5 -67.667 20.5 -105zM233 108c-6 -8.66699 -14.667 -13 -26 -13c-10 0 -18.167 3.33301 -24.5 10s-9.5 14.334 -9.5 23.001c0 8 2.33301 14.667 7 20l759 1018
c3.33301 4.66699 7.33301 8 12 10s9.66699 3 15 3c9.33301 0 17 -3.33301 23 -10s9 -14.334 9 -23.001c0 -7.33301 -2 -14 -6 -20zM1072 376c0 28 -5.16699 54.333 -15.5 79s-24.166 46.167 -41.499 64.5s-37.833 32.833 -61.5 43.5s-48.834 16 -75.501 16
c-27.333 0 -52.833 -5.33301 -76.5 -16s-44.167 -25.167 -61.5 -43.5s-31.166 -39.833 -41.499 -64.5s-15.5 -51 -15.5 -79s5.16699 -54.5 15.5 -79.5s24.166 -46.667 41.499 -65s37.833 -32.833 61.5 -43.5s49.167 -16 76.5 -16c26.667 0 51.834 5.33301 75.501 16
s44.167 25.167 61.5 43.5s31.166 40 41.499 65s15.5 51.5 15.5 79.5zM505 925c0 28 -5.16699 54.5 -15.5 79.5s-24.166 46.667 -41.499 65s-37.833 32.833 -61.5 43.5s-48.834 16 -75.501 16c-27.333 0 -52.833 -5.33301 -76.5 -16s-44.167 -25.167 -61.5 -43.5
s-31.166 -40 -41.499 -65s-15.5 -51.5 -15.5 -79.5s5.16699 -54.333 15.5 -79s24.166 -46.167 41.499 -64.5s37.833 -32.833 61.5 -43.5s49.167 -16 76.5 -16c26.667 0 51.834 5.33301 75.501 16s44.167 25.167 61.5 43.5s31.166 39.833 41.499 64.5s15.5 51 15.5 79z" />
    <glyph glyph-name="ampersand" unicode="&#x26;" horiz-adv-x="1112" 
d="M1312 462c0 -9.33301 -3.33301 -17.5029 -10 -24.5029s-16.334 -10.5 -29.001 -10.5c-9.33301 0 -19.166 0.333008 -29.499 1s-25.166 1 -44.499 1c-10 0 -24.833 -0.5 -44.5 -1.5s-42 -2.5 -67 -4.5l-80.5 -6.5c-28.667 -2.33301 -57.667 -4.83301 -87 -7.5
c0.666992 -3.33301 1 -8.66602 1 -15.999c0 -64.667 -14.167 -122 -42.5 -172s-66 -92.167 -113 -126.5s-101.5 -60.333 -163.5 -78s-126.333 -26.5 -193 -26.5c-48 0 -93.167 6.66699 -135.5 20s-79.333 32.666 -111 57.999s-56.667 56.333 -75 93s-27.5 78.667 -27.5 126
c0 38 7.66699 73 23 105s36.166 60.5 62.499 85.5s57.5 46.167 93.5 63.5s75 30.666 117 39.999c-12 5.33301 -24.5 12.833 -37.5 22.5s-24.833 21.334 -35.5 35.001s-19.5 29.334 -26.5 47.001s-10.5 37.167 -10.5 58.5c0 50.667 11.5 94.667 34.5 132s52.5 68.333 88.5 93
s75.833 43 119.5 55s86.167 18 127.5 18c36 0 69.5 -4.16699 100.5 -12.5s57.667 -20 80 -35s40 -33.333 53 -55s19.5 -45.5 19.5 -71.5c0 -22 -4.33301 -42.833 -13 -62.5s-20.5 -36.834 -35.5 -51.501s-32.667 -26.167 -53 -34.5s-42.5 -12.5 -66.5 -12.5
c-21.333 0 -40.166 3.16699 -56.499 9.5s-30.166 14 -41.499 23s-20 18.333 -26 28s-9 17.834 -9 24.501c0 10.667 3.5 19.667 10.5 27s15.833 11 26.5 11c7.33301 0 13 -1.83301 17 -5.5s8 -7.83398 12 -12.501c6.66699 -8 14.834 -16 24.501 -24s25.167 -12 46.5 -12
c14.667 0 27.334 2.5 38.001 7.5s19.667 11.667 27 20s12.833 17.666 16.5 27.999s5.5 20.5 5.5 30.5c0 12.667 -3.5 25.334 -10.5 38.001s-17.5 24 -31.5 34s-32 18 -54 24s-48 9 -78 9s-62.167 -4.16699 -96.5 -12.5s-66.333 -21 -96 -38s-54.334 -39 -74.001 -66
s-29.5 -58.833 -29.5 -95.5c0 -24 4.16699 -44.167 12.5 -60.5s19.833 -29.833 34.5 -40.5s32.167 -19.167 52.5 -25.5s42.833 -11.833 67.5 -16.5l26.5 -5.5c8.33301 -1.66699 15.666 -4 21.999 -7s11.333 -7 15 -12s5.5 -11.833 5.5 -20.5
c0 -10.667 -3.5 -19.167 -10.5 -25.5s-16.5 -9.5 -28.5 -9.5s-29.667 -0.666992 -53 -2s-49.166 -4.83301 -77.499 -10.5s-57.5 -13.667 -87.5 -24s-57.167 -24.666 -81.5 -42.999s-44.333 -40.833 -60 -67.5s-23.5 -59 -23.5 -97s7.16699 -71.167 21.5 -99.5
s33.833 -51.666 58.5 -69.999s53.5 -32 86.5 -41s68.5 -13.5 106.5 -13.5c53.333 0 106.166 6.5 158.499 19.5s99.166 32.833 140.499 59.5s74.833 60.334 100.5 101.001s38.5 88.334 38.5 143.001c0 2.66699 -0.166992 5.16699 -0.5 7.5s-0.5 5.16602 -0.5 8.49902
c-36 -3.33301 -68.5 -6.5 -97.5 -9.5s-51.833 -5.16699 -68.5 -6.5c-5.33301 -0.666992 -9.83301 -1.16699 -13.5 -1.5s-6.5 -0.5 -8.5 -0.5c-11.333 0 -21 3.33301 -29 10s-12 16.334 -12 29.001c0 9.33301 3.16699 17.5 9.5 24.5s14.833 11.167 25.5 12.5l75 8
c30.667 3.33301 64.167 6.5 100.5 9.5l112.5 9l110.5 8.5c35 2.66699 67 4.66699 96 6s52.167 2 69.5 2c37.333 0 62.666 -3.33301 75.999 -10s20 -17.334 20 -32.001z" />
    <glyph glyph-name="quotesingle" unicode="'" horiz-adv-x="250" 
d="M149 1172c-1.33301 -9.33301 -5.66602 -17.166 -12.999 -23.499s-15.666 -9.5 -24.999 -9.5s-17.833 3.66699 -25.5 11s-11.5 16.666 -11.5 27.999c0 2.66699 0.166992 5.5 0.5 8.5s0.833008 6.83301 1.5 11.5l25 208c1.33301 10 5.66602 18 12.999 24s15.666 9 24.999 9
c11.333 0 20.333 -3.83301 27 -11.5s10 -16.5 10 -26.5c0 -2.66699 -0.5 -8.5 -1.5 -17.5s-1.83301 -15.833 -2.5 -20.5z" />
    <glyph glyph-name="parenleft" unicode="(" horiz-adv-x="704" 
d="M698 1570c4 -7.33301 6.00684 -14.3301 6.00684 -20.9971c0 -6 -1.33301 -12 -4 -18s-7 -10.667 -13 -14c-0.666992 -0.666992 -7.83398 -5.83398 -21.501 -15.501s-31.334 -23.834 -53.001 -42.501s-46.334 -42 -74.001 -70s-55.834 -60.5 -84.501 -97.5
s-56.667 -78.667 -84 -125s-51.833 -97 -73.5 -152s-39 -114.333 -52 -178s-19.5 -131.834 -19.5 -204.501c0 -97.333 7.66699 -184.333 23 -261s34.666 -144.5 57.999 -203.5s48.666 -109.167 75.999 -150.5s52.666 -75.166 75.999 -101.499s42.833 -45.833 58.5 -58.5
s23.834 -19 24.501 -19c11.333 -8 17 -18.667 17 -32c0 -11.333 -3.83301 -20.5 -11.5 -27.5s-16.5 -10.5 -26.5 -10.5c-7.33301 0 -14 2 -20 6c-2.66699 1.33301 -13.167 9 -31.5 23s-40.333 35.5 -66 64.5s-53.334 66 -83.001 111s-57 99 -82 162
s-45.833 135.667 -62.5 218s-25 175.5 -25 279.5c0 81.333 7.5 157.333 22.5 228s34.5 135.667 58.5 195s50.667 113 80 161s58 90 86 126c30.667 39.333 60.667 73.666 90 102.999s55.5 54 78.5 74s41.833 35.167 56.5 45.5s22.667 15.833 24 16.5c6 4 12.667 6 20 6
c14 0 24.667 -5.66699 32 -17z" />
    <glyph glyph-name="parenright" unicode=")" horiz-adv-x="704" 
d="M554 718c0 -81.333 -7.50684 -157.502 -22.5068 -228.502s-34.5 -136.167 -58.5 -195.5s-50.667 -113 -80 -161s-58 -90 -86 -126c-30.667 -39.333 -60.667 -73.666 -90 -102.999s-55.5 -54 -78.5 -74s-41.833 -35.167 -56.5 -45.5s-22.667 -15.833 -24 -16.5
c-6 -4 -12.667 -6 -20 -6c-9.33301 0 -18 3.5 -26 10.5s-12 16.167 -12 27.5c0 13.333 5.66699 24 17 32c0.666992 0.666992 7.83398 5.83398 21.501 15.501s31.334 23.834 53.001 42.501s46.334 42 74.001 70s55.834 60.667 84.501 98s56.667 79 84 125
s51.833 96.5 73.5 151.5s39 114.5 52 178.5s19.5 132.333 19.5 205c0 96.667 -7.66699 183.5 -23 260.5s-34.666 144.833 -57.999 203.5s-48.666 108.667 -75.999 150s-52.666 75.333 -75.999 102s-42.833 46.167 -58.5 58.5s-23.834 18.833 -24.501 19.5
c-11.333 9.33301 -17 19.666 -17 30.999s3.83301 20.5 11.5 27.5s16.5 10.5 26.5 10.5c7.33301 0 14 -2 20 -6c2.66699 -1.33301 13.167 -9 31.5 -23s40.333 -35.5 66 -64.5s53.334 -65.833 83.001 -110.5s57 -98.5 82 -161.5s45.833 -135.667 62.5 -218
s25 -175.5 25 -279.5z" />
    <glyph glyph-name="asterisk" unicode="*" horiz-adv-x="574" 
d="M322 1267l122.003 47.999c5.33301 1.33301 10 2 14 2c9.33301 0 17.833 -3.33301 25.5 -10s11.5 -15.667 11.5 -27c0 -16.667 -8 -28.334 -24 -35.001l-130 -52l87 -110c5.33301 -7.33301 8 -15 8 -23c0 -10.667 -3.66699 -19.667 -11 -27s-16.333 -11 -27 -11
c-12.667 0 -22.334 5 -29.001 15l-92 115l-103 -107c-7.33301 -8 -16.333 -12 -27 -12c-11.333 0 -20.5 4 -27.5 12s-10.5 16.667 -10.5 26c0 10.667 3.33301 19.334 10 26.001l100 104l-120 66c-13.333 7.33301 -20 18.333 -20 33c0 11.333 3.83301 20.5 11.5 27.5
s16.167 10.5 25.5 10.5c6 0 12.333 -1.66699 19 -5l111 -62l6 132c0.666992 10 4.5 18.5 11.5 25.5s15.5 10.5 25.5 10.5c11.333 0 20.666 -3.66699 27.999 -11s10.666 -16.666 9.99902 -27.999z" />
    <glyph glyph-name="plus" unicode="+" horiz-adv-x="750" 
d="M685 632c0 -10.667 -3.16895 -19.8311 -9.50195 -27.498s-15.166 -11.834 -26.499 -12.501l-234 -12l-17 -224c-1.33301 -10 -5.5 -18.333 -12.5 -25s-15.5 -10 -25.5 -10s-18.667 3.66699 -26 11s-11 16 -11 26c0 0.666992 1.33301 20 4 58s6.66699 91.333 12 160
l-234 -12c-10 -0.666992 -19.167 2.16602 -27.5 8.49902s-12.5 15.166 -12.5 26.499c0 10.667 3.16699 19.834 9.5 27.501s15.166 11.834 26.499 12.501l243 12c2.66699 33.333 5.33398 68.833 8.00098 106.5s5.66699 77.5 9 119.5c0.666992 10 4.66699 18.333 12 25
s15.666 10 24.999 10c12 0 21.5 -4 28.5 -12s10.5 -17.333 10.5 -28l-17 -217l225 12c10.667 0.666992 19.834 -2.33301 27.501 -9s11.834 -15.334 12.501 -26.001z" />
    <glyph glyph-name="comma" unicode="," horiz-adv-x="368" 
d="M215 37c0 -48 -7.16699 -94.502 -21.5 -139.502s-40.5 -85.5 -78.5 -121.5c-8.66699 -7.33301 -17.667 -11 -27 -11s-18 3.5 -26 10.5s-12 15.833 -12 26.5s3.66699 19.667 11 27c25.333 26 44.833 55.833 58.5 89.5s20.5 72.167 20.5 115.5
c0 10.667 3.16699 19.834 9.5 27.501s15.166 11.5 26.499 11.5c10 0 18.833 -3.16699 26.5 -9.5s11.834 -15.166 12.501 -26.499z" />
    <glyph glyph-name="hyphen" unicode="-" horiz-adv-x="750" 
d="M660 350c0 -10.667 -3.16895 -19.8311 -9.50195 -27.498s-15.166 -11.834 -26.499 -12.501l-344 -18c-10 -0.666992 -19.167 2.16602 -27.5 8.49902s-12.5 15.166 -12.5 26.499c0 10.667 3.16699 19.834 9.5 27.501s15.166 11.834 26.499 12.501l344 18
c10.667 0.666992 19.834 -2.33301 27.501 -9s11.834 -15.334 12.501 -26.001z" />
    <glyph glyph-name="period" unicode="." horiz-adv-x="368" 
d="M238 29c0 -15.333 -5.16699 -28.166 -15.5 -38.499s-23.166 -15.5 -38.499 -15.5s-28.166 5.16699 -38.499 15.5s-15.5 23.166 -15.5 38.499c0 14.667 5.16699 27.167 15.5 37.5s23.166 15.5 38.499 15.5s28.166 -5.16699 38.499 -15.5s15.5 -22.833 15.5 -37.5z" />
    <glyph glyph-name="slash" unicode="/" horiz-adv-x="1000" 
d="M124 -19c-7.33301 -12.667 -17.999 -19.001 -31.999 -19.001c-11.333 0 -20.5 4 -27.5 12s-10.5 16.667 -10.5 26c0 6 1 11 3 15s4 7.66699 6 11l813 1392c3.33301 6 8.16602 10.667 14.499 14s12.5 5 18.5 5c11.333 0 20.333 -4 27 -12s10 -16.667 10 -26
c0 -4.66699 -1.16699 -9.66699 -3.5 -15s-4.5 -9.66602 -6.5 -12.999z" />
    <glyph glyph-name="zero" unicode="0" horiz-adv-x="1574" 
d="M1514 685c0 -69.333 -8.66699 -136.166 -26 -200.499s-41.833 -124.333 -73.5 -180s-69.667 -106.5 -114 -152.5s-93.333 -85.333 -147 -118s-111.5 -58 -173.5 -76s-126.333 -27 -193 -27s-131 9 -193 27s-119.833 43.333 -173.5 76s-102.667 72 -147 118
s-82.333 96.833 -114 152.5s-56.167 115.667 -73.5 180s-26 131.166 -26 200.499s8.66699 136.166 26 200.499s41.833 124.333 73.5 180s69.667 106.5 114 152.5s93.333 85.333 147 118s111.5 58 173.5 76s126.333 27 193 27s131 -9 193 -27s119.833 -43.333 173.5 -76
s102.667 -72 147 -118s82.333 -96.833 114 -152.5s56.167 -115.667 73.5 -180s26 -131.166 26 -200.499zM1439 685c0 62 -7.83301 121.999 -23.5 179.999s-37.5 112.167 -65.5 162.5s-62 96.166 -102 137.499s-84 76.666 -132 105.999s-99.833 52.166 -155.5 68.499
s-113.5 24.5 -173.5 24.5s-117.667 -8.16699 -173 -24.5s-107.166 -39.166 -155.499 -68.499s-92.333 -64.666 -132 -105.999s-73.667 -87.166 -102 -137.499s-50.333 -104.5 -66 -162.5s-23.5 -118 -23.5 -180s7.83301 -122 23.5 -180s37.667 -112.167 66 -162.5
s62.333 -96.166 102 -137.499s83.667 -76.666 132 -105.999s100.166 -52.166 155.499 -68.499s113 -24.5 173 -24.5s117.833 8.16699 173.5 24.5s107.5 39.166 155.5 68.499s92 64.666 132 105.999s74 87.166 102 137.499s49.833 104.333 65.5 162
s23.5 117.834 23.5 180.501z" />
    <glyph glyph-name="one" unicode="1" horiz-adv-x="675" 
d="M581 1355c0 -27.333 -5.99707 -54.832 -17.9971 -82.499l-36 -79.5c0 -46 -0.166992 -98.167 -0.5 -156.5s-0.5 -119.5 -0.5 -183.5s-0.166992 -129.333 -0.5 -196l-1 -194.5c-0.333008 -63 -0.5 -122.167 -0.5 -177.5s-0.166992 -104 -0.5 -146s-0.5 -75.333 -0.5 -100
v-39c0 -10.667 -3.66699 -19.667 -11 -27s-16.333 -11 -27 -11s-19.5 3.66699 -26.5 11s-10.5 16.333 -10.5 27v54.5c0 35 0.166992 81.167 0.5 138.5s0.5 122.833 0.5 196.5s0.166992 150 0.5 229l1 236c0.333008 78.333 0.5 150.833 0.5 217.5
c-34.667 -47.333 -71.5 -90.166 -110.5 -128.499s-75.333 -71.333 -109 -99s-62 -49.334 -85 -65.001s-35.833 -24.5 -38.5 -26.5c-7.33301 -4 -14 -6 -20 -6c-9.33301 0 -18 3.5 -26 10.5s-12 16.167 -12 27.5c0 13.333 6 24 18 32c0.666992 0.666992 7.66699 5.5 21 14.5
s30.666 21.667 51.999 38s45.666 36.333 72.999 60s55.166 50 83.499 79s55.833 60.667 82.5 95s50.334 70.5 71.001 108.5v35.5v39v37v29.5c1.33301 30 7.5 51.833 18.5 65.5s26.167 20.5 45.5 20.5s35.166 -8.33301 47.499 -25s18.5 -36.334 18.5 -59.001z" />
    <glyph glyph-name="two" unicode="2" horiz-adv-x="1622" 
d="M1764 170c-1.33301 -1.33301 -6.66602 -6.99707 -15.999 -16.9971s-23.166 -22.167 -41.499 -36.5s-41 -29.833 -68 -46.5s-58.833 -31.834 -95.5 -45.501s-78.167 -25.167 -124.5 -34.5s-97.833 -14 -154.5 -14c-49.333 0 -98.5 4 -147.5 12s-97.667 18 -146 30
s-95.833 25.333 -142.5 40l-137 42c-85.333 -41.333 -166.833 -71.666 -244.5 -90.999s-147.834 -29 -210.501 -29c-41.333 0 -76.833 4.16699 -106.5 12.5s-54.167 19.333 -73.5 33s-33.5 29.334 -42.5 47.001s-13.5 35.834 -13.5 54.501c0 18 4.66699 36 14 54
s23.333 34.167 42 48.5s42.334 26.166 71.001 35.499s62.334 14 101.001 14c28.667 0 60.167 -2.66699 94.5 -8s70.666 -12.5 108.999 -21.5s78.666 -19.333 120.999 -31l129.5 -37.5c46 24 92.667 51.833 140 83.5s92.833 66.667 136.5 105s84.5 79.666 122.5 123.999
s71 91.333 99 141s50.167 101.834 66.5 156.501s24.5 111.334 24.5 170.001c0 70.667 -11.667 134.167 -35 190.5s-56.333 104 -99 143s-93.834 68.833 -153.501 89.5s-125.834 31 -198.501 31c-36.667 0 -75.167 -4 -115.5 -12s-80.166 -19.833 -119.499 -35.5
s-76.833 -35.167 -112.5 -58.5s-67.167 -50.333 -94.5 -81s-49 -64.834 -65 -102.501s-24 -78.834 -24 -123.501c0 -28.667 2.66699 -55.334 8 -80.001s11.333 -46.5 18 -65.5s12.834 -34.167 18.501 -45.5s9.16699 -18 10.5 -20c3.33301 -6.66699 5 -13 5 -19
c0 -9.33301 -3.33301 -18 -10 -26s-16 -12 -28 -12c-14.667 0 -25.667 6.33301 -33 19c0 0.666992 -3.33301 7.5 -10 20.5s-14 30.833 -22 53.5s-15.333 49 -22 79s-10 62.333 -10 97c0 50 8.5 96.833 25.5 140.5s40.167 83.667 69.5 120s63.666 68.5 102.999 96.5
s81.666 51.833 126.999 71.5s92.333 34.5 141 44.5s96.667 15 144 15c82.667 0 158.334 -12.5 227.001 -37.5s127.5 -60.5 176.5 -106.5s87 -101.667 114 -167s40.5 -138.333 40.5 -219c0 -76 -13.667 -152 -41 -228s-65.833 -149 -115.5 -219s-109 -135.833 -178 -197.5
s-144.833 -116.834 -227.5 -165.501l133 -38.5c44 -12.333 86.167 -23 126.5 -32s78.833 -16.167 115.5 -21.5s70.667 -8 102 -8c75.333 0 140.5 8.33301 195.5 25s100.667 35.167 137 55.5s63.5 39.166 81.5 56.499s27.667 27 29 29c8 9.33301 18 14 30 14
c10.667 0 19.5 -3.83301 26.5 -11.5s10.5 -16.5 10.5 -26.5c0 -8 -2.66699 -15.667 -8 -23zM579 133.003c-66.667 19.333 -129.832 35.834 -189.499 49.501s-111.167 20.5 -154.5 20.5c-25.333 0 -47.833 -2.33301 -67.5 -7s-36.334 -10.5 -50.001 -17.5
s-24.167 -15.167 -31.5 -24.5s-11 -18.333 -11 -27c0 -8 3 -16.333 9 -25s15.5 -16.334 28.5 -23.001s29.5 -12.167 49.5 -16.5s44.333 -6.5 73 -6.5c48.667 0 102.167 6.33301 160.5 19s119.5 32 183.5 58z" />
    <glyph glyph-name="three" unicode="3" horiz-adv-x="1226" 
d="M826 753c45.333 -15.333 88.5049 -34.8379 129.505 -58.5049s77.167 -51.667 108.5 -84s56.166 -69.666 74.499 -111.999s27.5 -89.833 27.5 -142.5c0 -55.333 -8.33301 -105.166 -25 -149.499s-39.334 -83.5 -68.001 -117.5s-62 -63.167 -100 -87.5
s-78.333 -44.166 -121 -59.499s-86.5 -26.666 -131.5 -33.999s-88.833 -11 -131.5 -11c-58.667 0 -112.834 4.83301 -162.501 14.5s-94.334 21.667 -134.001 36s-74.5 29.833 -104.5 46.5s-55.167 32.334 -75.5 47.001s-35.666 27.167 -45.999 37.5l-16.5 16.5
c-6.66699 6.66699 -10 15 -10 25c0 10.667 3.66699 19.667 11 27s16 11 26 11c11.333 0 20.666 -4 27.999 -12l13.5 -12.5c9 -8.33301 22.5 -19 40.5 -32s40.667 -27 68 -42s59 -29 95 -42s76.333 -23.833 121 -32.5s93.667 -13 147 -13c70.667 0 136.5 8.5 197.5 25.5
s114 41.833 159 74.5s80.167 72.834 105.5 120.501s38 101.834 38 162.501c0 49.333 -9.83301 93 -29.5 131s-46.5 71.167 -80.5 99.5s-73.667 52.166 -119 71.499s-93.666 35 -144.999 47c-42 -15.333 -86.833 -27.833 -134.5 -37.5s-94.5 -14.5 -140.5 -14.5
c-53.333 0 -91.5 6.33301 -114.5 19s-34.5 29.667 -34.5 51c0 4.66699 1.33301 11.667 4 21s10.334 18.666 23.001 27.999s32 17.333 58 24s62.333 10 109 10c32 0 67.333 -1.66699 106 -5s79 -9.33301 121 -18c48.667 19.333 91.5 42 128.5 68s67.833 53.167 92.5 81.5
s43.167 56.833 55.5 85.5s18.5 55.334 18.5 80.001c0 42.667 -9 80.5 -27 113.5s-41.667 60.833 -71 83.5s-63.333 39.834 -102 51.501s-78.334 17.5 -119.001 17.5c-57.333 0 -110.666 -6.66699 -159.999 -20s-94 -30 -134 -50s-75.5 -41.833 -106.5 -65.5
s-56.833 -45.5 -77.5 -65.5s-36.5 -36.833 -47.5 -50.5l-16.5 -20.5c-3.33301 -5.33301 -7.83301 -9.33301 -13.5 -12s-11.5 -4 -17.5 -4c-10.667 0 -19.5 3.83301 -26.5 11.5s-10.5 16.167 -10.5 25.5c0 8 2.33301 15.333 7 22c1.33301 1.33301 8.16602 10 20.499 26
s30.166 35.167 53.499 57.5s51.833 46.5 85.5 72.5s72.5 50 116.5 72s93 40.333 147 55s113 22 177 22c50 0 98.667 -7.33301 146 -22s89.666 -36.5 126.999 -65.5s67.333 -64.833 90 -107.5s34 -92 34 -148c0 -31.333 -6.16699 -62.833 -18.5 -94.5
s-29.666 -62.334 -51.999 -92.001s-49.333 -57.834 -81 -84.501s-66.834 -50.667 -105.501 -72zM600.005 737.995c-26 4 -54.668 5.99902 -86.001 5.99902c-26.667 0 -51.667 -1.66699 -75 -5s-40 -7.66602 -50 -12.999c6.66699 -3.33301 15.334 -5.5 26.001 -6.5
s22.667 -1.5 36 -1.5c23.333 0 48.5 1.83301 75.5 5.5s51.5 8.5 73.5 14.5z" />
    <glyph glyph-name="four" unicode="4" horiz-adv-x="1640" 
d="M1620 427c-0.666992 -10.667 -4.66992 -19.3291 -12.0029 -25.9961s-16 -10 -26 -10c-2 0 -12.667 0.5 -32 1.5s-46.166 2 -80.499 3s-75.833 2 -124.5 3s-103 1.83301 -163 2.5c-1.33301 -75.333 -2.16602 -149.333 -2.49902 -222s-0.5 -141.667 -0.5 -207
c0 -10.667 -3.66699 -19.667 -11 -27s-16.333 -11 -27 -11s-19.5 3.5 -26.5 10.5s-10.5 15.5 -10.5 25.5v55.5c0 26.333 0.166992 58.5 0.5 96.5s0.666016 80.667 0.999023 128s0.833008 97.666 1.5 150.999c-75.333 0 -156 -0.666992 -242 -2s-176.333 -4 -271 -8
c-86 -3.33301 -173.667 -8 -263 -14s-180.333 -13.667 -273 -23c-10 0 -18.833 3.33301 -26.5 10s-11.5 15.667 -11.5 27c0 15.333 7 26.666 21 33.999c0.666992 0.666992 16.834 9.66699 48.501 27s74.167 43 127.5 77s115.666 76 186.999 126s147.333 107.667 228 173
s163.834 138.333 249.501 219s169.834 168.667 252.501 264c2 23.333 4.16699 43.333 6.5 60s5.16602 29 8.49902 37c7.33301 21.333 15.333 38.333 24 51s17.334 22.167 26.001 28.5s16.834 10.5 24.501 12.5s14.167 3 19.5 3c18 0 33.167 -6.33301 45.5 -19
s18.5 -28.667 18.5 -48c0 -12.667 -3.33301 -25.667 -10 -39s-15 -26.666 -25 -39.999s-20.833 -26.5 -32.5 -39.5l-32.5 -37.5c-3.33301 -40.667 -6.16602 -90.334 -8.49902 -149.001s-4.5 -123 -6.5 -193s-3.83301 -144.333 -5.5 -223s-2.83398 -158 -3.50098 -238
c60 -0.666992 114.5 -1.5 163.5 -2.5s91 -2 126 -3s62.167 -2 81.5 -3s29.333 -1.5 30 -1.5c11.333 -0.666992 20.166 -4.83398 26.499 -12.501s9.5 -16.834 9.5 -27.501zM1126 1189c-84 -92 -169 -176.833 -255 -254.5s-168.667 -147.667 -248 -210
s-153.166 -117 -221.499 -164s-127.5 -85.833 -177.5 -116.5c80.667 6.66699 160.667 12 240 16s156.333 7.33301 231 10s146.667 4.5 216 5.5s134.666 1.5 195.999 1.5c0.666992 60.667 1.66699 123 3 187l4 188.5c1.33301 61.667 3 121.167 5 178.5s4.33301 110 7 158z
" />
    <glyph glyph-name="five" unicode="5" horiz-adv-x="1326" 
d="M1256 377c0 -60 -9.83496 -113.831 -29.502 -161.498s-46.667 -90 -81 -127s-75.166 -68.5 -122.499 -94.5s-98.5 -47.5 -153.5 -64.5s-113 -29.333 -174 -37s-122.5 -11.5 -184.5 -11.5c-66.667 0 -128 5.66699 -184 17s-106 25.166 -150 41.499
s-81.667 33.666 -113 51.999s-55.666 34.5 -72.999 48.5c-4 3.33301 -6.83301 7.16602 -8.5 11.499s-2.5 9.16602 -2.5 14.499c0 10 3.66699 19 11 27s16.333 12 27 12c5.33301 0 10 -1 14 -3s8.33301 -4.66699 13 -8l52.5 -33.5c24.333 -15.667 55.833 -31.5 94.5 -47.5
s84.167 -30.167 136.5 -42.5s111.5 -18.5 177.5 -18.5c55.333 0 110.5 3 165.5 9s107.5 15.833 157.5 29.5s96.333 31.5 139 53.5s79.834 48.667 111.501 80s56.334 68 74.001 110s26.5 89.667 26.5 143c0 62 -12.833 116 -38.5 162s-62.334 84.5 -110.001 115.5
s-105.334 54.167 -173.001 69.5s-143.5 23 -227.5 23c-64 0 -118.833 -2.5 -164.5 -7.5s-84 -11 -115 -18s-56 -14.167 -75 -21.5s-33.833 -13.666 -44.5 -18.999c-5.33301 -2.66699 -11.5 -5.33398 -18.5 -8.00098s-13.833 -4 -20.5 -4c-11.333 0 -20.333 3.83301 -27 11.5
s-9.66699 16.834 -9 27.501l30 669c0.666992 10.667 4.83398 19.334 12.501 26.001s17.167 10 28.5 10c8.66699 0 24.167 -0.5 46.5 -1.5s47.333 -2 75 -3l85 -3c29 -1 54.833 -1.5 77.5 -1.5c84.667 0 162.5 1.83301 233.5 5.5s132.5 7.5 184.5 11.5s93 7.83301 123 11.5
s46.333 5.5 49 5.5c9.33301 0 17.833 -3.33301 25.5 -10s11.5 -15.334 11.5 -26.001c0 -9.33301 -3 -17.833 -9 -25.5s-14 -12.167 -24 -13.5c-0.666992 0 -16.334 -1.83301 -47.001 -5.5s-72.5 -7.66699 -125.5 -12s-115.667 -8.33301 -188 -12s-150.5 -5.5 -234.5 -5.5
c-40 0 -80.833 0.5 -122.5 1.5s-84.167 2.83301 -127.5 5.5l-26 -573c18 6 40 12.667 66 20s55.667 14 89 20s70 11 110 15s83 6 129 6c84 0 164 -8.5 240 -25.5s142.667 -43.667 200 -80s102.833 -82.666 136.5 -138.999s50.5 -123.5 50.5 -201.5z" />
    <glyph glyph-name="six" unicode="6" horiz-adv-x="1479" 
d="M889 940c68 0 134.004 -9.66602 198.004 -28.999s120.5 -48.333 169.5 -87s88.333 -87.334 118 -146.001s44.5 -127 44.5 -205c0 -76.667 -18.167 -147.5 -54.5 -212.5s-85.333 -121 -147 -168s-132.667 -83.833 -213 -110.5s-164.5 -40 -252.5 -40
c-58 0 -115 6.5 -171 19.5s-109.333 32 -160 57s-97.334 55.5 -140.001 91.5s-79.667 76.833 -111 122.5s-55.833 96 -73.5 151s-26.5 113.833 -26.5 176.5c0 89.333 13.833 177.5 41.5 264.5s66.834 168.667 117.501 245s111.167 145 181.5 206
s148.166 109.833 233.499 146.5c48 20.667 93.333 36.667 136 48s80.5 19.666 113.5 24.999s59.667 8.5 80 9.5s31.5 1.5 33.5 1.5c10.667 0 19.667 -3.66699 27 -11s11 -16.333 11 -27s-3.66699 -19.667 -11 -27s-16.333 -11 -27 -11c-0.666992 0 -10.167 -0.5 -28.5 -1.5
s-42.833 -4 -73.5 -9s-66.167 -12.667 -106.5 -23s-82.833 -25.166 -127.5 -44.499c-74.667 -32.667 -144 -76.167 -208 -130.5s-119.5 -116 -166.5 -185s-83.833 -144 -110.5 -225s-40 -164.5 -40 -250.5c0 -67.333 9.83301 -127.5 29.5 -180.5s45.667 -99.667 78 -140
s69.5 -74.5 111.5 -102.5s85.5 -51 130.5 -69s89.667 -31 134 -39s85.166 -12 122.499 -12c78 0 152.833 11.333 224.5 34s134.667 54.334 189 95.001s97.666 89 129.999 145s48.5 117.333 48.5 184c0 70.667 -14 130.667 -42 180s-64.167 89.5 -108.5 120.5
s-93.5 53.333 -147.5 67s-107 20.5 -159 20.5c-68 0 -132.333 -9.66699 -193 -29s-115.334 -45.833 -164.001 -79.5s-89.834 -73.334 -123.501 -119.001s-57.167 -95.167 -70.5 -148.5c-2 -8.66699 -6.5 -15.667 -13.5 -21s-14.5 -8 -22.5 -8
c-11.333 0 -20.666 3.83301 -27.999 11.5s-11 16.5 -11 26.5c0 2.66699 0.666992 6.66699 2 12c16 61.333 43 118.333 81 171s84.5 98.167 139.5 136.5s117 68.5 186 90.5s142.167 33 219.5 33z" />
    <glyph glyph-name="seven" unicode="7" horiz-adv-x="1323" 
d="M1284 1403c9.33301 0 18.1631 -3.83105 26.4961 -11.498s12.5 -16.834 12.5 -27.501c0 -11.333 -4.66699 -21 -14 -29c-0.666992 -0.666992 -10.334 -9.16699 -29.001 -25.5s-44.167 -40 -76.5 -71l-114.5 -114c-44 -45 -91.333 -96.667 -142 -155
s-103.834 -123 -159.501 -194s-111.5 -147.833 -167.5 -230.5s-111.167 -170.834 -165.5 -264.501s-105.5 -192.5 -153.5 -296.5c-7.33301 -14.667 -18.666 -22 -33.999 -22c-11.333 0 -20.5 4 -27.5 12s-10.5 16.667 -10.5 26c0 6 1.33301 11.333 4 16
c48.667 105.333 100.667 205.666 156 300.999s111.5 185 168.5 269s113.833 162.167 170.5 234.5s110.834 138.333 162.501 198s99.667 112.5 144 158.5l116.5 117c-67.333 -12.667 -136.166 -21.667 -206.499 -27s-139.833 -8 -208.5 -8c-60 0 -118.833 1.66699 -176.5 5
s-112 7.33301 -163 12s-98.167 10 -141.5 16s-81.166 11.5 -113.499 16.5s-58.166 9.33301 -77.499 13l-34 6.5c-9.33301 1.33301 -16.666 5.5 -21.999 12.5s-8 15.167 -8 24.5c-0 10.667 3.83301 19.667 11.5 27s16.5 11 26.5 11c3.33301 0 14.5 -1.66699 33.5 -5
s44.333 -7.5 76 -12.5s68.834 -10.5 111.501 -16.5s89.5 -11.5 140.5 -16.5s105.167 -9.16699 162.5 -12.5s116.666 -5 177.999 -5c91.333 0 182.833 4.83301 274.5 14.5s178.167 26.834 259.5 51.501c4 1.33301 7.33301 2 10 2z" />
    <glyph glyph-name="eight" unicode="8" horiz-adv-x="1346" 
d="M1286 354c0 -52 -9.00098 -98.835 -27.001 -140.502s-42.667 -78.667 -74 -111s-67.666 -60.166 -108.999 -83.499s-85.5 -42.5 -132.5 -57.5s-95.167 -26.167 -144.5 -33.5s-97.333 -11 -144 -11c-36.667 0 -76.834 1.83301 -120.501 5.5s-87.5 10.667 -131.5 21
s-86.667 24.666 -128 42.999s-77.833 42.333 -109.5 72s-57.167 65.834 -76.5 108.501s-29 93 -29 151c0 38.667 6.5 74.834 19.5 108.501s31 64.834 54 93.501s50.333 55.334 82 80.001s65.667 47.667 102 69s74.666 41.333 114.999 60l121.5 54
c-43.333 14.667 -85.5 32.5 -126.5 53.5s-77.667 46.333 -110 76s-58.333 63.834 -78 102.501s-29.5 83.667 -29.5 135c0 49.333 12.333 94.833 37 136.5s59.834 77.5 105.501 107.5s100.834 53.333 165.501 70s136.667 25 216 25c50.667 0 96.334 -4.83301 137.001 -14.5
s76.5 -22.834 107.5 -39.501s57.5 -35.834 79.5 -57.501s40 -44.5 54 -68.5s24.167 -48.167 30.5 -72.5s9.5 -47.5 9.5 -69.5c0 -42 -7.83301 -80.333 -23.5 -115s-38.834 -66.834 -69.501 -96.501s-69 -57.667 -115 -84s-99.333 -51.833 -160 -76.5
c334.667 -87.333 502 -234.333 502 -441zM1077 1168c0 41.333 -10.501 77.502 -31.501 108.502s-48 56.667 -81 77s-69.833 35.5 -110.5 45.5s-80.667 15 -120 15c-67.333 0 -128.5 -6.5 -183.5 -19.5s-102.167 -31.167 -141.5 -54.5s-69.833 -51.166 -91.5 -83.499
s-32.5 -67.833 -32.5 -106.5c0 -47.333 11.5 -88.333 34.5 -123s52.667 -64.667 89 -90s77 -46.833 122 -64.5s89.167 -32.834 132.5 -45.501l79.5 29.5c29.667 11 59.834 23.5 90.501 37.5s60.667 30 90 48s55.333 38.167 78 60.5s41 47.166 55 74.499s21 57.666 21 90.999
zM659.998 -9c38 0 77.834 2.49805 119.501 7.49805s83 13.167 124 24.5s80 26.333 117 45s69.667 41.334 98 68.001s50.833 57.834 67.5 93.501s25 76.5 25 122.5c0 44 -8.83301 83.167 -26.5 117.5s-41 64.5 -70 90.5s-62.333 48.667 -100 68s-76.667 36.333 -117 51
s-80.5 27.5 -120.5 38.5l-110 30.5l-125.5 -52c-42.333 -18 -83.166 -37 -122.499 -57s-76.333 -41.5 -111 -64.5s-64.834 -47.833 -90.501 -74.5s-45.834 -55.334 -60.501 -86.001s-22 -63.667 -22 -99c0 -53.333 12.667 -100.166 38 -140.499s61 -74 107 -101
s101.167 -47.5 165.5 -61.5s135.833 -21 214.5 -21z" />
    <glyph glyph-name="nine" unicode="9" horiz-adv-x="1479" 
d="M1409 842c0 -89.333 -13.8359 -177.499 -41.5029 -264.499s-66.667 -168.333 -117 -244s-110.833 -143.834 -181.5 -204.501s-148.667 -109.334 -234 -146.001c-48 -20.667 -93.333 -36.667 -136 -48s-80.5 -19.666 -113.5 -24.999s-59.5 -8.5 -79.5 -9.5
s-31 -1.5 -33 -1.5c-10.667 -0.666992 -19.667 2.83301 -27 10.5s-11 16.834 -11 27.501s3.66699 19.5 11 26.5s16.333 10.5 27 10.5c0.666992 0 10.167 0.5 28.5 1.5s42.666 4 72.999 9s65.666 12.833 105.999 23.5s82.833 25.667 127.5 45
c74.667 32.667 144.167 76 208.5 130s120 115.5 167 184.5s83.833 144 110.5 225s40 164.5 40 250.5c0 67.333 -9.83301 127.5 -29.5 180.5s-45.667 99.667 -78 140s-69.666 74.666 -111.999 102.999s-86 51.5 -131 69.5s-89.667 31 -134 39s-85.166 12 -122.499 12
c-52 0 -102.667 -5.16699 -152 -15.5s-95.833 -25 -139.5 -44s-84 -42 -121 -69s-68.667 -57.5 -95 -91.5s-47 -70.833 -62 -110.5s-22.5 -81.5 -22.5 -125.5c0 -48 6.33301 -90.833 19 -128.5s30.167 -71 52.5 -100s48.333 -53.833 78 -74.5s61.334 -37.5 95.001 -50.5
s68.5 -22.5 104.5 -28.5s71.333 -9 106 -9c68.667 0 133.5 9.5 194.5 28.5s115.833 45.333 164.5 79s89.834 73.5 123.501 119.5s57.5 96 71.5 150c2 8.66699 6.33301 15.5 13 20.5s14.334 7.5 23.001 7.5c11.333 0 20.5 -3.83301 27.5 -11.5s10.5 -16.5 10.5 -26.5v-2.5
c0 -1 -0.333008 -3.16699 -1 -6.5c-13.333 -62 -39 -119.5 -77 -172.5s-84.833 -98.667 -140.5 -137s-118.167 -68.5 -187.5 -90.5s-142.333 -33 -219 -33c-68 0 -134 9.66699 -198 29s-120.833 48.333 -170.5 87s-89.5 87 -119.5 145s-45 126 -45 204
c0 76.667 18.167 147.667 54.5 213s85.166 121.5 146.499 168.5s132.333 83.833 213 110.5s165 40 253 40c58 0 115.167 -6.5 171.5 -19.5s109.833 -32 160.5 -57s97.334 -55.5 140.001 -91.5s79.5 -77 110.5 -123s55.333 -96.5 73 -151.5s26.5 -114.167 26.5 -177.5z" />
    <glyph glyph-name="colon" unicode=":" horiz-adv-x="468" 
d="M288 29c0 -15.333 -5.16699 -28.166 -15.5 -38.499s-23.166 -15.5 -38.499 -15.5s-28.166 5.16699 -38.499 15.5s-15.5 23.166 -15.5 38.499c0 14.667 5.16699 27.167 15.5 37.5s23.166 15.5 38.499 15.5s28.166 -5.16699 38.499 -15.5s15.5 -22.833 15.5 -37.5zM288 429
c0 -15.333 -5.16699 -28.166 -15.5 -38.499s-23.166 -15.5 -38.499 -15.5s-28.166 5.16699 -38.499 15.5s-15.5 23.166 -15.5 38.499c0 14.667 5.16699 27.167 15.5 37.5s23.166 15.5 38.499 15.5s28.166 -5.16699 38.499 -15.5s15.5 -22.833 15.5 -37.5z" />
    <glyph glyph-name="semicolon" unicode=";" horiz-adv-x="468" 
d="M285 429c0 -15.333 -5.16699 -28.166 -15.5 -38.499s-23.166 -15.5 -38.499 -15.5s-28.166 5.16699 -38.499 15.5s-15.5 23.166 -15.5 38.499c0 14.667 5.16699 27.167 15.5 37.5s23.166 15.5 38.499 15.5s28.166 -5.16699 38.499 -15.5s15.5 -22.833 15.5 -37.5zM265 37
c0 -48 -7.16699 -94.502 -21.5 -139.502s-40.5 -85.5 -78.5 -121.5c-8.66699 -7.33301 -17.667 -11 -27 -11s-18 3.5 -26 10.5s-12 15.833 -12 26.5s3.66699 19.667 11 27c25.333 26 44.833 55.833 58.5 89.5s20.5 72.167 20.5 115.5c0 10.667 3.16699 19.834 9.5 27.501
s15.166 11.5 26.499 11.5c10 0 18.833 -3.16699 26.5 -9.5s11.834 -15.166 12.501 -26.499z" />
    <glyph glyph-name="less" unicode="&#x3c;" horiz-adv-x="750" 
d="M642 276c-3.33301 -5.33301 -8.16699 -9.83496 -14.5 -13.502s-12.5 -5.5 -18.5 -5.5c-7.33301 0 -14.333 2.33301 -21 7l-93.5 64.5l-76 53l-67.5 46l-66.5 44c-23 15 -48 30.5 -75 46.5l-92.5 53c-12.667 7.33301 -19 18.666 -19 33.999c0 14.667 7 25.667 21 33
c45.333 24.667 88 50.834 128 78.501s77.167 55.334 111.5 83.001s65.166 54.167 92.499 79.5l70 67c19.333 19.333 34.333 35 45 47s16.334 18.333 17.001 19c8 10 18 15 30 15c10.667 0 19.667 -3.83301 27 -11.5s11 -16.5 11 -26.5
c0 -9.33301 -2.33301 -16.666 -7 -21.999c-2.66699 -4 -14.167 -17.333 -34.5 -40s-48.833 -51 -85.5 -85s-81 -71.833 -133 -113.5s-111 -82.834 -177 -123.501l82.5 -50l66 -41.5l58 -38.5l58.5 -40.5l68 -47.5l86 -59c10.667 -7.33301 16 -17.666 16 -30.999
c0 -7.33301 -2.33301 -14.333 -7 -21z" />
    <glyph glyph-name="equal" unicode="=" horiz-adv-x="750" 
d="M675 741c0 -10.667 -3.16895 -19.832 -9.50195 -27.499s-15.166 -11.5 -26.499 -11.5l-524 -11c-10.667 -0.666992 -19.667 2.66602 -27 9.99902s-11 16 -11 26c0 10.667 3.33301 19.667 10 27s15.334 11.333 26.001 12l524 12c10 0.666992 18.833 -2.83301 26.5 -10.5
s11.5 -16.5 11.5 -26.5zM659.998 492.002c0 -10.667 -3.66699 -19.667 -11 -27s-16 -11 -26 -11l-511 -8c-10.667 0 -19.667 3.66699 -27 11s-11 16 -11 26s3.5 19 10.5 27s15.833 12 26.5 12l510 7c10.667 0 19.667 -3.5 27 -10.5s11.333 -15.833 12 -26.5z" />
    <glyph glyph-name="greater" unicode="&#x3e;" horiz-adv-x="750" 
d="M107 276c-4.66699 6.66699 -7 13.6689 -7 21.002c0 13.333 5.33301 23.666 16 30.999l86 59l68 47.5l58.5 40.5l58 38.5l66 41.5l82.5 50c-66 40.667 -125 81.834 -177 123.501s-96.333 79.5 -133 113.5s-65.167 62.333 -85.5 85s-31.833 36 -34.5 40
c-4.66699 5.33301 -7 12.666 -7 21.999c0 10 3.66699 18.833 11 26.5s16.333 11.5 27 11.5c12 0 22 -5 30 -15c0.666992 -0.666992 6.33398 -7 17.001 -19s25.667 -27.667 45 -47l70 -67c27.333 -25.333 58.166 -51.833 92.499 -79.5s71.666 -55.334 111.999 -83.001
s82.833 -53.834 127.5 -78.501c14 -7.33301 21 -18.333 21 -33c0 -15.333 -6.33301 -26.666 -19 -33.999l-92.5 -53c-27 -16 -52 -31.5 -75 -46.5l-66.5 -44l-67.5 -46l-76.5 -53l-93 -64.5c-6.66699 -4.66699 -13.667 -7 -21 -7c-6 0 -12.167 1.83301 -18.5 5.5
s-11.166 8.16699 -14.499 13.5z" />
    <glyph glyph-name="question" unicode="?" horiz-adv-x="1588" 
d="M729 1489c145.333 0 268.667 -14.3281 370 -42.9951s183.833 -66.834 247.5 -114.501s109.834 -101.834 138.501 -162.501s43 -123 43 -187c0 -54 -11 -106.667 -33 -158s-54 -95 -96 -131c-35.333 -30 -74.833 -57.333 -118.5 -82s-88.5 -47.834 -134.5 -69.501
l-137 -63.5c-45.333 -20.667 -87.333 -42.334 -126 -65.001s-72.667 -47 -102 -73s-50.666 -55.333 -63.999 -88c-6.66699 -15.333 -18.334 -23 -35.001 -23c-10.667 0 -19.5 3.83301 -26.5 11.5s-10.5 16.167 -10.5 25.5c0 4.66699 1 9.66699 3 15
c18 40.667 43.333 76.167 76 106.5s69.5 57.5 110.5 81.5s84.833 46 131.5 66l138.5 61c45.667 20.667 89.5 42.667 131.5 66s79 50 111 80s57.5 64.5 76.5 103.5s28.5 84.833 28.5 137.5c0 55.333 -11 104.333 -33 147s-51.5 79.834 -88.5 111.501
s-79.833 58.5 -128.5 80.5s-99.667 39.667 -153 53s-107.5 23 -162.5 29s-107.167 9 -156.5 9c-88.667 0 -169.5 -8.16699 -242.5 -24.5s-135.667 -40 -188 -71s-92.833 -68.833 -121.5 -113.5s-43 -95.334 -43 -152.001c0 -42 7.83301 -79.333 23.5 -112
s37 -60.334 64 -83.001s58.333 -39.834 94 -51.501s73.834 -17.5 114.501 -17.5c32 0 63.167 4 93.5 12s57.166 19.667 80.499 35c6 4 12.667 6 20 6c10 0 18.833 -3.5 26.5 -10.5s11.5 -16.167 11.5 -27.5c0 -14.667 -8.66699 -27.667 -26 -39
s-38.166 -20.833 -62.499 -28.5s-50 -13.5 -77 -17.5s-49.833 -6 -68.5 -6c-57.333 0 -108.833 8.83301 -154.5 26.5s-84.334 41.834 -116.001 72.501s-56 66.834 -73 108.501s-25.5 86.5 -25.5 134.5c0 67.333 16.167 127.833 48.5 181.5s77.833 99.167 136.5 136.5
s129.167 66.166 211.5 86.499s173.166 30.5 272.499 30.5zM720.001 22.0049c0 -15.333 -5.16699 -28.166 -15.5 -38.499s-23.166 -15.5 -38.499 -15.5s-28.166 5.16699 -38.499 15.5s-15.5 23.166 -15.5 38.499s5.16699 28.166 15.5 38.499s23.166 15.5 38.499 15.5
s28.166 -5.16699 38.499 -15.5s15.5 -23.166 15.5 -38.499z" />
    <glyph glyph-name="at" unicode="@" horiz-adv-x="1390" 
d="M1290 503c0 -47.333 -5.50195 -92.5059 -16.502 -135.506s-27.167 -80.833 -48.5 -113.5s-47.666 -58.667 -78.999 -78s-67.666 -29 -108.999 -29s-76.5 11.5 -105.5 34.5s-50.167 56.167 -63.5 99.5c-26 -44 -55.333 -76.333 -88 -97s-63.667 -31 -93 -31
c-26 0 -49.167 4.66699 -69.5 14s-37.666 22 -51.999 38s-25.166 35 -32.499 57s-11 46 -11 72c0 53.333 9 100.166 27 140.499s41.167 74.166 69.5 101.499s59.5 47.833 93.5 61.5s67 20.5 99 20.5c18 0 34.667 -2.16699 50 -6.5s29 -9.5 41 -15.5s22.167 -12 30.5 -18
s14.5 -10.667 18.5 -14c3.33301 -3.33301 6.66602 -7.5 9.99902 -12.5s5 -10.833 5 -17.5c0 -10 -3.66699 -19 -11 -27s-16.333 -12 -27 -12c-8 0 -14.833 2.5 -20.5 7.5s-12.5 10.667 -20.5 17s-18.333 12 -31 17s-30.334 7.5 -53.001 7.5
c-18.667 0 -39.834 -4.83301 -63.501 -14.5s-46 -24.5 -67 -44.5s-38.667 -45.667 -53 -77s-21.5 -69 -21.5 -113c0 -17.333 2.5 -32.833 7.5 -46.5s11.5 -25.167 19.5 -34.5s17.333 -16.666 28 -21.999s21.667 -8 33 -8c38 0 71.667 17.5 101 52.5s49 86.833 59 155.5
c0.666992 10 4.33398 18.167 11.001 24.5s14.334 9.5 23.001 9.5c11.333 0 20.333 -3.5 27 -10.5s10.667 -15.5 12 -25.5c0.666992 -13.333 2.16699 -32 4.5 -56s7.66602 -47.667 15.999 -71s20.5 -43.666 36.5 -60.999s37.667 -26 65 -26
c18.667 0 38.167 5.16699 58.5 15.5s38.833 26.833 55.5 49.5s30.5 52.334 41.5 89.001s16.5 81.334 16.5 134.001c0 46 -9.66699 90.833 -29 134.5s-47.166 82.5 -83.499 116.5s-81 61.333 -134 82s-113.167 31 -180.5 31c-78 0 -148.333 -13.667 -211 -41
s-116.334 -64.666 -161.001 -111.999s-79 -103 -103 -167s-36 -133 -36 -207c0 -56 11 -108.5 33 -157.5s52.167 -91.667 90.5 -128s83.333 -65.166 135 -86.499s107.5 -32 167.5 -32c40 0 70 1.66699 90 5s33 5 39 5c11.333 0 19.833 -3.16699 25.5 -9.5
s8.5 -13.833 8.5 -22.5c0 -10 -4.5 -18.333 -13.5 -25s-21 -12 -36 -16s-31.833 -6.66699 -50.5 -8s-37.334 -2 -56.001 -2c-63.333 0 -125.5 10.833 -186.5 32.5s-115.333 53 -163 94s-86 91 -115 150s-43.5 125.833 -43.5 200.5c0 86 14.333 165.5 43 238.5
s68.834 136.333 120.501 190s113.5 95.667 185.5 126s151.333 45.5 238 45.5c74 0 141.833 -11.333 203.5 -34s114.667 -53.667 159 -93s78.833 -85.666 103.5 -138.999s37 -110.666 37 -171.999z" />
    <glyph glyph-name="A" unicode="A" horiz-adv-x="2165" 
d="M1956 5c2.66699 -4.66699 4.00586 -10.3369 4.00586 -17.0039c0 -10 -3.5 -18.667 -10.5 -26s-16.167 -11 -27.5 -11c-7.33301 0 -13.833 1.66699 -19.5 5s-10.167 8.33301 -13.5 15c-12.667 24.667 -23.834 55.5 -33.501 92.5s-18 78.167 -25 123.5
s-12.667 94.166 -17 146.499s-7.83301 106.5 -10.5 162.5l-168.5 -22l-213.5 -28c-56 -8 -113 -15 -171 -21c-142.667 -155.333 -292.834 -273.166 -450.501 -353.499s-315.834 -120.5 -474.501 -120.5c-70.667 0 -131.834 6.83301 -183.501 20.5s-94.334 29 -128.001 46
s-59 32.833 -76 47.5s-26.167 22.667 -27.5 24c-6.66699 6.66699 -10 15.334 -10 26.001s3.66699 19.667 11 27s16 11 26 11c11.333 0 20.666 -4 27.999 -12c1.33301 -1.33301 9.33301 -8.16602 24 -20.499s36.5 -25.5 65.5 -39.5s65.833 -26.667 110.5 -38
s97.667 -17 159 -17c84 0 164.333 11.333 241 34s149.167 52.167 217.5 88.5s132 77.833 191 124.5s112.5 94 160.5 142c-47.333 -4 -94.333 -7 -141 -9s-92.667 -3 -138 -3c-89.333 0 -174.333 5 -255 15s-151.667 26.833 -213 50.5s-110.166 55.167 -146.499 94.5
s-54.5 88.333 -54.5 147c0 26.667 5.5 53.334 16.5 80.001s24.167 50.834 39.5 72.501s31.333 39.334 48 53.001s31 20.5 43 20.5c9.33301 0 18 -3.33301 26 -10s12 -15.667 12 -27c0 -6 -1.33301 -11.833 -4 -17.5s-6.66699 -10.167 -12 -13.5
c-1.33301 -1.33301 -7 -6 -17 -14s-20.667 -18.833 -32 -32.5s-21.666 -30 -30.999 -49s-14 -39.5 -14 -61.5c0 -38 13.167 -71.5 39.5 -100.5s64.666 -53.333 114.999 -73s112.166 -34.5 185.499 -44.5s157 -15 251 -15c54 0 111 1.66699 171 5s123.333 8.33301 190 15
c32 35.333 60.333 68.666 85 99.999s45.667 59.333 63 84l90 130l93.5 140l91 140.5l83.5 131l70 112l51 83.5c4 18 10 34.5 18 49.5s21 22.5 39 22.5c10 0 19.667 -4.16699 29 -12.5s14 -18.833 14 -31.5c0 -9.33301 -3.33301 -19.333 -10 -30s-13 -19.667 -19 -27
c-2 -12.667 -5.16699 -39.667 -9.5 -81s-8.66602 -91.833 -12.999 -151.5s-8 -125.334 -11 -197.001s-4.5 -144.167 -4.5 -217.5v-81c0 -26.667 0.666992 -53.667 2 -81c100 12.667 173 21.5 219 26.5s70.333 7.5 73 7.5c8.66699 0 17.167 -3.5 25.5 -10.5
s12.5 -16.167 12.5 -27.5c0 -9.33301 -3.16699 -17.5 -9.5 -24.5s-14.5 -11.167 -24.5 -12.5c-12 -1.33301 -26 -3 -42 -5s-35.667 -4.33301 -59 -7l-82 -9.5l-110 -13.5c2 -54.667 5.16699 -107.167 9.5 -157.5s9.66602 -97.166 15.999 -140.499s13.833 -82.333 22.5 -117
s18.667 -63 30 -85zM1411.01 520.997l214.5 28.499l174.5 22.5c-0.666992 28.667 -1.16699 57.334 -1.5 86.001s-0.5 57.667 -0.5 87c0 94 1.66699 183.833 5 269.5s8 160.167 14 223.5l-88.5 -139.5l-100.5 -156l-105 -157.5l-101 -146
c-16 -22.667 -32.333 -44.667 -49 -66l-50 -63c14.667 1.33301 29.167 3 43.5 5z" />
    <glyph glyph-name="B" unicode="B" horiz-adv-x="2359" 
d="M1878 695c57.333 -16 106.165 -34.335 146.498 -55.002s74.333 -42.167 102 -64.5s49.5 -45.166 65.5 -68.499s28.333 -45.666 37 -66.999s14.167 -41.166 16.5 -59.499s3.5 -33.833 3.5 -46.5c0 -46.667 -8.83301 -88.334 -26.5 -125.001s-41.5 -69 -71.5 -97
s-64.833 -51.667 -104.5 -71s-81.167 -35.166 -124.5 -47.499s-87.666 -21.333 -132.999 -27s-88.333 -8.5 -129 -8.5c-66 0 -134.167 6.66699 -204.5 20s-141.5 35 -213.5 65c-16 6.66699 -24 18.334 -24 35.001c0 11.333 4 20.5 12 27.5s16.667 10.5 26 10.5
c4.66699 0 9.66699 -1 15 -3c62 -26 125.667 -45.667 191 -59s131 -20 197 -20c90 0 167.333 8.66699 232 26s117.834 40.166 159.501 68.499s72.5 60.333 92.5 96s30 71.834 30 108.501c0 40.667 -11.167 78.334 -33.5 113.001s-54 65.667 -95 93
s-90.167 50.666 -147.5 69.999s-121 33.666 -191 42.999c-46 -8 -90.667 -13.667 -134 -17s-83.333 -5 -120 -5h-23c-4.66699 0 -9 0.333008 -13 1c-48 -115.333 -105.167 -215 -171.5 -299s-137 -153.5 -212 -208.5s-152 -95.667 -231 -122s-154.833 -39.5 -227.5 -39.5
c-75.333 0 -144.5 10.5 -207.5 31.5s-117.167 50.833 -162.5 89.5s-80.666 85.5 -105.999 140.5s-38 116.5 -38 184.5c0 70.667 13.833 143.834 41.5 219.501s68.834 152.5 123.501 230.5c52 73.333 109.667 139.166 173 197.499s129.833 109.5 199.5 153.5
s141.5 81.667 215.5 113s147.5 57 220.5 77s144.333 34.5 214 43.5s135.167 13.5 196.5 13.5c50 0 97.667 -1.66699 143 -5s88.666 -8.33301 129.999 -15c24 26.667 43.333 45.834 58 57.501s23 18.167 25 19.5c8 4 15 6 21 6c9.33301 0 17.666 -2.66699 24.999 -8
s11 -13 11 -23c0 -13.333 -4.66699 -24.5 -14 -33.5l-38 -36.5c122 -30 215.333 -75.167 280 -135.5s97 -134.833 97 -223.5c0 -48.667 -8 -92.334 -24 -131.001s-37.833 -72.667 -65.5 -102s-60 -54.833 -97 -76.5s-76.167 -39.834 -117.5 -54.501zM1707 727.998
c29.333 5.33301 59.499 12.3311 90.499 20.998s61.333 19.167 91 31.5s57.834 27 84.501 44s49.834 37 69.501 60s35.334 48.833 47.001 77.5s17.5 61.334 17.5 98.001c0 74.667 -31 136.334 -93 185.001s-151 84.667 -267 108c-33.333 -41.333 -64.666 -87 -93.999 -137
s-56.333 -101.833 -81 -155.5s-46.834 -108 -66.501 -163s-35.834 -108.167 -48.501 -159.5c13.333 0.666992 25.666 1 36.999 1h29c26 0 54.333 -0.833008 85 -2.5s63.667 -4.5 99 -8.5zM1662 1367c-34 4.66699 -69.0029 8.00293 -105.003 10.0029s-73.667 3 -113 3
c-58.667 0 -121 -4.33301 -187 -13s-133.667 -22.334 -203 -41.001s-139.166 -42.834 -209.499 -72.501s-138.666 -65.334 -204.999 -107.001s-129.5 -90.167 -189.5 -145.5s-114.667 -117.666 -164 -186.999c-50 -70.667 -87.667 -140.334 -113 -209.001s-38 -134 -38 -196
c0 -58 10.5 -110 31.5 -156s50.833 -84.833 89.5 -116.5s85 -56 139 -73s113.667 -25.5 179 -25.5s133.333 11.833 204 35.5s139.667 60 207 109s131.333 111 192 186s113.667 164.167 159 267.5c-12 0 -24.333 3.5 -37 10.5s-19 18.167 -19 33.5c0 16 7.66699 27.5 23 34.5
s39.333 12.833 72 17.5l55 164c18.667 54.667 39.334 108.667 62.001 162s47.667 105.833 75 157.5s59 102.167 95 151.5z" />
    <glyph glyph-name="C" unicode="C" horiz-adv-x="1739" 
d="M1674 371c-31.333 -50.667 -73.667 -100.828 -127 -150.495s-114.166 -94.334 -182.499 -134.001s-142.833 -71.667 -223.5 -96s-164 -36.5 -250 -36.5c-67.333 0 -134.5 6 -201.5 18s-131.333 30.333 -193 55s-119 55.834 -172 93.501s-99.167 82.167 -138.5 133.5
s-70.166 109.666 -92.499 174.999s-33.5 138 -33.5 218c0 78 11.5 152 34.5 222s55.167 134.833 96.5 194.5s90.333 113.5 147 161.5s118.667 88.833 186 122.5s138.333 59.5 213 77.5s151 27 229 27c86 0 166.833 -10.167 242.5 -30.5s141.834 -49 198.501 -86
s101.5 -81.333 134.5 -133s49.5 -109.167 49.5 -172.5c0 -58.667 -13.667 -114.5 -41 -167.5s-64.833 -99.5 -112.5 -139.5s-103.334 -71.667 -167.001 -95s-131.5 -35 -203.5 -35c-58 0 -109.333 7.16699 -154 21.5s-82 34.166 -112 59.499s-52.667 55 -68 89
s-23 70.667 -23 110c0 32.667 5.16699 62.5 15.5 89.5s21.666 50.167 33.999 69.5s24 34.5 35 45.5l18.5 18.5c3.33301 3.33301 7.16602 5.5 11.499 6.5s8.5 1.5 12.5 1.5c10.667 0 19.667 -3.33301 27 -10s11 -15.334 11 -26.001c0 -12 -4.33301 -22 -13 -30
c-1.33301 -0.666992 -6 -5.16699 -14 -13.5s-16.667 -19.666 -26 -33.999s-17.833 -31.5 -25.5 -51.5s-11.5 -42 -11.5 -66c0 -38 8.5 -70 25.5 -96s39.167 -47.167 66.5 -63.5s57.666 -28 90.999 -35s66.666 -10.5 99.999 -10.5c62 0 120.167 10 174.5 30
s101.833 46.667 142.5 80s72.667 71.666 96 114.999s35 88.666 35 135.999c0 52 -14.667 99.5 -44 142.5s-69 79.667 -119 110s-108.5 53.833 -175.5 70.5s-138.5 25 -214.5 25c-57.333 0 -117.5 -6.83301 -180.5 -20.5s-125.167 -34.167 -186.5 -61.5
s-119.833 -61.333 -175.5 -102s-104.5 -88.167 -146.5 -142.5s-75.5 -115.166 -100.5 -182.499s-37.5 -141 -37.5 -221c0 -72.667 10.167 -138.334 30.5 -197.001s48.5 -110.834 84.5 -156.501s78.167 -85.167 126.5 -118.5s100.333 -60.833 156 -82.5
s113.834 -37.667 174.501 -48s121 -15.5 181 -15.5c80 0 157 11.167 231 33.5s142.5 51.666 205.5 87.999s118.833 77.166 167.5 122.499s87.334 91 116.001 137c3.33301 6 8 10.5 14 13.5s12.333 4.5 19 4.5c11.333 0 20.333 -3.83301 27 -11.5s10 -16.167 10 -25.5
c0 -3.33301 -0.333008 -6.66602 -1 -9.99902s-2 -6.66602 -4 -9.99902z" />
    <glyph glyph-name="D" unicode="D" horiz-adv-x="2094" 
d="M936 1471c82 0 165.671 -7.5 251.004 -22.5s168.333 -37.833 249 -68.5s156.667 -69.167 228 -115.5s133.666 -100.5 186.999 -162.5s95.5 -132 126.5 -210s46.5 -164.333 46.5 -259s-16.667 -182.334 -50 -263.001s-80 -150.334 -140 -209.001
s-131.667 -104.667 -215 -138s-175 -50 -275 -50c-47.333 0 -96.333 3.5 -147 10.5s-101.334 17.833 -152.001 32.5s-100.5 32.834 -149.5 54.501s-95.833 47.5 -140.5 77.5c-52.667 -52 -113.5 -92.5 -182.5 -121.5s-141.833 -43.5 -218.5 -43.5
c-41.333 0 -80 4.66699 -116 14s-67.167 22.666 -93.5 39.999s-47 38.333 -62 63s-22.5 52 -22.5 82c0 26 6.5 50.333 19.5 73s31.333 42.667 55 60s52 31 85 41s69.167 15 108.5 15c116 0 253.333 -42.667 412 -128c29.333 36.667 53.333 78 72 124
c20.667 51.333 36.834 104.166 48.501 158.499s22 108.5 31 162.5s18.333 106.667 28 158s23 99.666 40 144.999s39.333 86.833 67 124.5s63.834 69.834 108.501 96.501c6.66699 3.33301 12.667 5 18 5c9.33301 0 18.166 -3.33301 26.499 -10s12.5 -16 12.5 -28
c0 -14 -6.33301 -24.667 -19 -32c-35.333 -20.667 -64.166 -46.5 -86.499 -77.5s-40.833 -65.833 -55.5 -104.5s-26.334 -80.334 -35.001 -125.001s-17 -91.334 -25 -140.001c-6.66699 -40 -14 -81.833 -22 -125.5s-18 -87 -30 -130s-27.167 -85 -45.5 -126
s-40.833 -78.833 -67.5 -113.5c1.33301 -0.666992 2.16602 -1.16699 2.49902 -1.5s1.16602 -0.833008 2.49902 -1.5c84.667 -50.667 172.667 -89 264 -115s180.666 -39 267.999 -39c94.667 0 179.5 15.667 254.5 47s138.5 73.5 190.5 126.5s91.667 114.833 119 185.5
s41 145.334 41 224.001c0 80 -13.333 154.5 -40 223.5s-63.167 131.833 -109.5 188.5s-101.333 107 -165 151s-132.334 80.833 -206.001 110.5s-151 52.334 -232 68.001s-162.167 23.5 -243.5 23.5c-109.333 0 -209.166 -9.16699 -299.499 -27.5s-168 -45.166 -233 -80.499
s-115.5 -78.666 -151.5 -129.999s-54 -109.666 -54 -174.999c0 -37.333 5.5 -70.333 16.5 -99s25 -53.5 42 -74.5s35.5 -38.833 55.5 -53.5s38.667 -26.5 56 -35.5s32.166 -15.5 44.499 -19.5l21.5 -7c8.66699 -2 15.5 -6.5 20.5 -13.5s7.5 -14.833 7.5 -23.5
c0 -11.333 -4 -20 -12 -26s-16.667 -9 -26 -9c-13.333 0 -30 3.16699 -50 9.5s-41.167 16 -63.5 29s-44.666 29.333 -66.999 49s-42.5 42.834 -60.5 69.501s-32.5 57 -43.5 91s-16.5 71.667 -16.5 113c0 75.333 19.167 143.166 57.5 203.499s92.5 111.5 162.5 153.5
s153.833 74.333 251.5 97s206.167 34 325.5 34zM686.004 186c-69.333 36.667 -133.667 64.333 -193 83s-113.666 28 -162.999 28c-28 0 -53.833 -3.16699 -77.5 -9.5s-44.167 -14.833 -61.5 -25.5s-31 -23 -41 -37s-15 -28.667 -15 -44c0 -14.667 4.5 -29.334 13.5 -44.001
s22.667 -27.667 41 -39s41.166 -20.666 68.499 -27.999s59.333 -11 96 -11c62.667 0 122.5 11.167 179.5 33.5s107.833 53.5 152.5 93.5z" />
    <glyph glyph-name="E" unicode="E" horiz-adv-x="1698" 
d="M1636 425c-0.666992 -2.66699 -5.33594 -14.001 -14.0029 -34.001s-23.167 -44.667 -43.5 -74s-47.166 -61.666 -80.499 -96.999s-75.333 -69.833 -126 -103.5s-110.667 -64.334 -180 -92.001s-149.666 -48.834 -240.999 -63.501c-61.333 -10 -125.666 -15 -192.999 -15
c-56 0 -112.167 3.83301 -168.5 11.5s-110.333 19.667 -162 36s-99.834 37.166 -144.501 62.499s-83.5 55.333 -116.5 90s-59 74.5 -78 119.5s-28.5 95.167 -28.5 150.5c0 98 27.167 182.333 81.5 253s134.833 125.667 241.5 165c-38 35.333 -66.333 74.333 -85 117
s-28 87 -28 133c0 57.333 13.167 110.333 39.5 159s62.833 90.667 109.5 126s102.167 62.833 166.5 82.5s134.833 29.5 211.5 29.5c77.333 0 144.833 -7.33301 202.5 -22s107 -33 148 -55s74.667 -46 101 -72s47.166 -50.333 62.499 -73s26 -41.834 32 -57.501
s9.33301 -24.5 10 -26.5c0.666992 -2.66699 1 -6.33398 1 -11.001c0 -9.33301 -3.5 -17.833 -10.5 -25.5s-16.167 -11.5 -27.5 -11.5c-8 0 -15.167 2.5 -21.5 7.5s-10.833 11.833 -13.5 20.5c0 1.33301 -2.66699 8.5 -8 21.5s-14.666 28.833 -27.999 47.5
s-31.5 38.5 -54.5 59.5s-52.5 40.667 -88.5 59s-79 33.5 -129 45.5s-108.667 18 -176 18c-77.333 0 -144.5 -9.66699 -201.5 -29s-104 -44.5 -141 -75.5s-64.5 -65.5 -82.5 -103.5s-27 -75.333 -27 -112c0 -43.333 10.667 -84.666 32 -123.999s52 -73 92 -101
c36 9.33301 71.333 16.666 106 21.999s67.334 9.5 98.001 12.5s58.5 5 83.5 6s45.5 1.5 61.5 1.5c29.333 0 56.333 -2.16699 81 -6.5s45.834 -10.666 63.501 -18.999s31.5 -19 41.5 -32s15 -27.833 15 -44.5s-5 -31.667 -15 -45s-23.833 -24.666 -41.5 -33.999
s-38.834 -16.5 -63.501 -21.5s-51.667 -7.5 -81 -7.5c-32 0 -64.333 2 -97 6s-64.5 9.66699 -95.5 17s-60.833 16.5 -89.5 27.5s-54.667 23.5 -78 37.5c-106 -32 -186.333 -78.167 -241 -138.5s-82 -134.833 -82 -223.5c0 -48 8.5 -91.167 25.5 -129.5
s40.5 -72.166 70.5 -101.499s65.167 -54.5 105.5 -75.5s83.5 -38.167 129.5 -51.5s94 -23.166 144 -29.499s99.667 -9.5 149 -9.5c32 0 63 1.16699 93 3.5s59 5.83301 87 10.5c84 13.333 157.833 32.833 221.5 58.5s118.667 53.667 165 84s84.833 61.333 115.5 93
s55.167 60.667 73.5 87s31.333 47.833 39 64.5s11.5 25.334 11.5 26.001c2.66699 8 7.16699 14.167 13.5 18.5s13.5 6.5 21.5 6.5c10.667 0 19.667 -3.66699 27 -11s11 -16 11 -26c0 -2.66699 -0.666992 -6.66699 -2 -12zM942.998 799.999
c0 5.33301 -4.33398 10.001 -13.001 14.001s-19.834 7.16699 -33.501 9.5s-29.167 4 -46.5 5s-35 1.5 -53 1.5c-39.333 0 -76.666 -1.16699 -111.999 -3.5s-75.666 -7.83301 -120.999 -16.5c34.667 -12.667 74.5 -22.834 119.5 -30.501s90.5 -11.5 136.5 -11.5
c42 0 73 3.33301 93 10s30 14 30 22z" />
    <glyph glyph-name="F" unicode="F" horiz-adv-x="2216" 
d="M2291 1480c22.667 0 47.1689 -2.49902 73.502 -7.49902s50.833 -13.333 73.5 -25s41.334 -27.334 56 -47.001c14.667 -19.667 22 -44.167 22 -73.5c0 -36 -10.5 -68.667 -31.5 -98s-50.5 -54.5 -88.5 -75.5s-83.5 -37.333 -136.5 -49s-111.5 -17.5 -175.5 -17.5
c-72 0 -150 5 -234 15c-15.333 -48 -26.833 -101.667 -34.5 -161s-11.834 -125.333 -12.501 -198c25.333 0.666992 51.166 1.16699 77.499 1.5s53.5 0.5 81.5 0.5c37.333 0 75 -0.5 113 -1.5s76.333 -2.16699 115 -3.5c11.333 -0.666992 20.166 -4.83398 26.5 -12.501
c6.33301 -7.66699 9.5 -16.5 9.5 -26.5c0 -10.667 -3.66699 -19.334 -11 -26.001s-16 -10 -26 -10c-38 0 -75.833 0.666992 -113.5 2s-74.834 2 -111.501 2c-28 0 -55.333 -0.166992 -82 -0.5s-53 -0.833008 -79 -1.5c0 -9.33301 0.166992 -18.333 0.5 -27
s0.5 -17.667 0.5 -27c0 -104 -15.667 -196.5 -47 -277.5s-77.166 -149.167 -137.499 -204.5s-134.5 -97.333 -222.5 -126s-189 -43 -303 -43c-84 0 -158.5 7.5 -223.5 22.5s-122 34.833 -171 59.5s-91 52.5 -126 83.5s-64.167 62.333 -87.5 94s-42 62.334 -56 92.001
s-24.333 55.167 -31 76.5c-0.666992 2 -1.16699 3.83301 -1.5 5.5s-0.5 3.5 -0.5 5.5c0 10 3.66699 18.833 11 26.5s16.666 11.5 27.999 11.5c8 0 15.167 -2.33301 21.5 -7s10.833 -11 13.5 -19c6 -18.667 15 -41 27 -67s28.5 -52.833 49.5 -80.5s47 -55.167 78 -82.5
s68.667 -51.666 113 -72.999s95.666 -38.666 153.999 -51.999s125.5 -20 201.5 -20c209.333 0 367.5 48.667 474.5 146s160.5 241 160.5 431c0 8 -0.166992 16.167 -0.5 24.5s-0.5 16.5 -0.5 24.5c-67.333 -2.66699 -129.333 -5.83398 -186 -9.50098
s-106.167 -7.33398 -148.5 -11.001l-102.5 -9c-26 -2.33301 -42 -3.5 -48 -3.5c-11.333 0 -21.333 3.16699 -30 9.5s-13 15.833 -13 28.5c0 9.33301 3.33301 17.5 10 24.5s14.667 11.167 24 12.5c0.666992 0 13.5 1.33301 38.5 4s59.5 5.83398 103.5 9.50098
s96 7.33398 156 11.001s125.333 6.83398 196 9.50098c1.33301 147.333 16.666 271.333 45.999 372c-72.667 10.667 -146.667 23.5 -222 38.5s-150.333 30.833 -225 47.5l-220.5 49.5c-72.333 16.333 -141.833 31.166 -208.5 44.499s-129.334 24 -188.001 32s-112 12 -160 12
c-67.333 0 -130 -6.83301 -188 -20.5s-108.167 -33.5 -150.5 -59.5s-75.666 -57.833 -99.999 -95.5s-36.5 -80.5 -36.5 -128.5c0 -31.333 5.83301 -59.5 17.5 -84.5s24.834 -46.333 39.501 -64s28.334 -31.334 41.001 -41.001s19.667 -14.834 21 -15.501
c6 -3.33301 10.333 -8 13 -14s4 -12 4 -18c0 -11.333 -3.83301 -20.5 -11.5 -27.5s-16.167 -10.5 -25.5 -10.5c-7.33301 0 -14.333 2.33301 -21 7c-16 10.667 -33 24.667 -51 42s-34.5 37.166 -49.5 59.499s-27.5 47.5 -37.5 75.5s-15 58.333 -15 91
c0 60 14.167 113.333 42.5 160s67.166 86.334 116.499 119.001s107.5 57.5 174.5 74.5s139.5 25.5 217.5 25.5c46 0 98.333 -4.16699 157 -12.5s121.834 -19.166 189.501 -32.499s138.667 -28.333 213 -45l227.5 -50.5c77.333 -17 155 -33.167 233 -48.5
s154.333 -28.333 229 -39c18.667 52 45.5 96.833 80.5 134.5s74.833 68.5 119.5 92.5s92.167 41.667 142.501 53c50.333 11.333 99.833 17 148.5 17zM2440 1329c0 16 -5.16699 28.8301 -15.5 38.4971s-23.166 17.334 -38.5 23.001c-15.333 5.66699 -31.5 9.5 -48.5 11.5
s-32.5 3 -46.5 3c-32 0 -67.5 -3.33301 -106.5 -10s-77.667 -18.667 -116 -36s-74.333 -41 -108 -71s-61.167 -68.333 -82.5 -115c74 -8 142.333 -12 205 -12c51.333 0 98.833 4.16699 142.5 12.5s81.334 19.833 113 34.5c31.667 14.667 56.5 32.334 74.5 53.001
s27 43.334 27 68.001z" />
    <glyph glyph-name="G" unicode="G" horiz-adv-x="1775" 
d="M1735 961c0 -10 -3.50293 -18.9932 -10.5029 -26.9932s-15.833 -12 -26.5 -12c-10 0 -18.667 3.33301 -26 10s-11.666 15.667 -12.999 27c-0.666992 2.66699 -2.16699 15.334 -4.5 38.001s-9 50.5 -20 83.5s-27.833 68.333 -50.5 106s-53.834 72.5 -93.501 104.5
s-89.834 58.667 -150.501 80s-134.334 32 -221.001 32c-76.667 0 -153.834 -11.5 -231.501 -34.5s-152.167 -55.333 -223.5 -97s-138 -91.334 -200 -149.001s-115.833 -121.167 -161.5 -190.5s-81.667 -143.333 -108 -222s-39.5 -159.667 -39.5 -243
c0 -75.333 10.333 -139.833 31 -193.5s49.334 -97.5 86.001 -131.5s79.834 -58.833 129.501 -74.5s103.167 -23.5 160.5 -23.5c99.333 0 192.166 17.167 278.499 51.5s166.333 80.666 240 138.999s140.834 126.333 201.501 204s115 159.5 163 245.5
c5.33301 81.333 14.833 143.5 28.5 186.5s34.167 64.5 61.5 64.5c15.333 0 28.166 -6.33301 38.499 -19s15.5 -29 15.5 -49c0 -22 -5.66699 -50 -17 -84s-28.666 -73.333 -51.999 -118c-2 -31.333 -3 -65 -3 -101c0 -52.667 2.16699 -110.334 6.5 -173.001
s11.166 -129.334 20.499 -200.001c28 14 49.833 24.167 65.5 30.5s27.167 10.666 34.5 12.999s12 3.33301 14 3s3.66699 -0.5 5 -0.5c10 0 18.833 -3.5 26.5 -10.5s11.5 -16.167 11.5 -27.5c0 -8 -2.33301 -15.167 -7 -21.5s-11 -10.833 -19 -13.5
c-1.33301 -0.666992 -12.833 -5.16699 -34.5 -13.5s-50.5 -21.5 -86.5 -39.5c3.33301 -36 6 -72.333 8 -109s3 -73.667 3 -111c0 -88 -6.33301 -172 -19 -252s-33.5 -150.333 -62.5 -211s-67.5 -108.834 -115.5 -144.501s-107 -53.5 -177 -53.5c-34.667 0 -66.667 6 -96 18
s-54.666 28.667 -75.999 50s-38 46.833 -50 76.5s-18 62.167 -18 97.5c0 50 8.5 99.333 25.5 148s39.667 95.667 68 141s60.833 88.166 97.5 128.499s74.334 77.5 113.001 111.5s76.834 64 114.501 90s72.167 47 103.5 63c-8.66699 66.667 -15.667 132.167 -21 196.5
s-8.66602 126.833 -9.99902 187.5c-58 -92.667 -121.833 -174.334 -191.5 -245.001s-142.5 -130 -218.5 -178s-154.167 -84.167 -234.5 -108.5s-160.166 -36.5 -239.499 -36.5c-72 0 -137.333 10.833 -196 32.5s-109 53.5 -151 95.5s-74.333 94 -97 156s-34 133.333 -34 214
c0 85.333 13.333 169.5 40 252.5s63.667 162 111 237s103.5 144.167 168.5 207.5s136 118.166 213 164.499s158.333 82.666 244 108.999s173.167 39.5 262.5 39.5c86 0 160.667 -9.83301 224 -29.5s117.166 -44.667 161.499 -75s80.333 -63.333 108 -99
s49.5 -69.5 65.5 -101.5c13.333 -27.333 23.833 -53.666 31.5 -78.999s13.334 -47.666 17.001 -66.999s6 -35 7 -47s1.5 -18.333 1.5 -19zM1482 71.0068c-33.333 -18.667 -67.832 -40.835 -103.499 -66.502s-70.334 -53.834 -104.001 -84.501s-65.5 -63.667 -95.5 -99
s-56.333 -72 -79 -110s-40.5 -77.167 -53.5 -117.5s-19.5 -80.833 -19.5 -121.5c0 -25.333 4 -48.166 12 -68.499s19.333 -37.666 34 -51.999s32 -25.5 52 -33.5s42 -12 66 -12c94 0 167.333 49.833 220 149.5s79 245.167 79 436.5c0 28.667 -0.666992 57.834 -2 87.501
s-3.33301 60.167 -6 91.5z" />
    <glyph glyph-name="H" unicode="H" horiz-adv-x="2425" 
d="M1519 1451c0 -23.333 -6.33691 -46.3252 -19.0039 -68.9922s-29 -43.667 -49 -63s-42.5 -36.833 -67.5 -52.5s-49.833 -28.5 -74.5 -38.5c-6.66699 -28 -12 -59.167 -16 -93.5s-6.66699 -72.5 -8 -114.5c-1.33301 -52 -3.33301 -103.667 -6 -155
s-6.66699 -102.333 -12 -153l177 6.5c64 2.33301 131 4.5 201 6.5s141.833 3.66699 215.5 5s147.167 2 220.5 2c5.33301 106.667 17 201.334 35 284.001s41.5 152.334 70.5 209.001s63.167 99.667 102.5 129s83 44 131 44c8 0 17.833 -0.666992 29.5 -2
s23.167 -3.83301 34.5 -7.5s21 -9 29 -16s12 -16.5 12 -28.5c0 -3.33301 -0.333008 -6.5 -1 -9.5s-2 -6.16699 -4 -9.5c-7.33301 -12 -17.333 -18 -30 -18c-5.33301 0 -9.5 0.833008 -12.5 2.5s-6.66699 3.33398 -11 5.00098s-9.83301 3.33398 -16.5 5.00098
s-16 2.5 -28 2.5c-10 0 -22.833 -1.83301 -38.5 -5.5s-32.5 -12.167 -50.5 -25.5s-36.5 -32.833 -55.5 -58.5s-36.667 -60.334 -53 -104.001s-30.666 -97.834 -43 -162.501c-12.333 -64.667 -20.5 -142.667 -24.5 -234l130 -2c42.667 -0.666992 84.667 -1.66699 126 -3
c11.333 0 20.166 -3.83301 26.5 -11.5c6.33301 -7.66699 9.5 -16.834 9.5 -27.501s-3.66699 -19.334 -11 -26.001s-16 -10 -26 -10c-13.333 0 -27.166 0.166992 -41.5 0.5c-14.333 0.333008 -31.333 0.833008 -51 1.5s-42.834 1.33398 -69.5 2.00098
c-26.667 0.666992 -58.334 1 -95 1c-0.666992 -10.667 -1 -21.334 -1 -32.001v-33c0 -73.333 2.83301 -139 8.5 -197s12.667 -109.333 21 -154s17.5 -82.834 27.5 -114.501s19.333 -57.667 28 -78s15.834 -35.333 21.501 -45l8.5 -14.5c4.66699 -6.66699 7 -14 7 -22
c0 -10 -3.66699 -18.833 -11 -26.5s-16.333 -11.5 -27 -11.5c-12.667 0 -22.667 5.33301 -30 16c-1.33301 2 -8.83301 15 -22.5 39s-28.5 61.833 -44.5 113.5s-30.5 118 -43.5 199s-19.5 179.5 -19.5 295.5v65c-74 0 -148.333 -0.666992 -223 -2s-147.167 -3 -217.5 -5
s-137.666 -4.16699 -201.999 -6.5l-177.5 -6.5c-12.667 -92.667 -32.167 -180 -58.5 -262s-64 -153.833 -113 -215.5s-111.5 -110.334 -187.5 -146.001s-169.667 -53.5 -281 -53.5c-58.667 0 -115.5 6.16699 -170.5 18.5s-106.167 29.666 -153.5 51.999
s-90 49.166 -128 80.499s-69 65.666 -93 102.999c-4 6 -6 12.667 -6 20c0 10 3.5 18.833 10.5 26.5s16.167 11.5 27.5 11.5c6 0 12 -1.5 18 -4.5s10.667 -7.16699 14 -12.5c20.667 -32.667 47.5 -62.334 80.5 -89.001s70.5 -49.667 112.5 -69s87.5 -34.333 136.5 -45
s99.833 -16 152.5 -16c98 0 180.333 15.5 247 46.5s121.167 73.5 163.5 127.5s75 117.167 98 189.5s40.167 150.166 51.5 233.499l-152 -8c-37.333 -2 -56.666 -3 -57.999 -3c-10 0 -19.167 3.16699 -27.5 9.5s-12.5 15.166 -12.5 26.499c0 10.667 3.16699 19.667 9.5 27
s14.833 11.666 25.5 12.999c1.33301 0 22 1 62 3l162 8c5.33301 51.333 9.5 103.166 12.5 155.499s5.83301 105.166 8.5 158.499c1.33301 34 3.83301 66.833 7.5 98.5s8.16699 60.5 13.5 86.5c-15.333 -3.33301 -32.5 -6.16602 -51.5 -8.49902s-37.833 -3.5 -56.5 -3.5
c-58.667 0 -116.334 4.66699 -173.001 14s-113.5 19.5 -170.5 30.5s-114.333 21.167 -172 30.5s-116.5 14 -176.5 14c-49.333 0 -95.5 -5.16699 -138.5 -15.5s-80.5 -26.166 -112.5 -47.499s-57.167 -48.166 -75.5 -80.499s-27.5 -70.5 -27.5 -114.5c0 -28 5 -52.667 15 -74
s21.333 -39.333 34 -54s24.834 -26.167 36.501 -34.5s19.167 -13.5 22.5 -15.5c12 -8.66699 18 -19.667 18 -33c0 -10.667 -3.33301 -19.5 -10 -26.5s-15 -10.5 -25 -10.5c-4.66699 0 -9.16699 0.833008 -13.5 2.5s-8.16602 3.5 -11.499 5.5
c-15.333 9.33301 -31.333 21.333 -48 36s-32 32.167 -46 52.5s-25.5 43.166 -34.5 68.499s-13.5 53 -13.5 83c-0 58.667 12.833 109.167 38.5 151.5s59.167 77 100.5 104s87.5 46.833 138.5 59.5s102.167 19 153.5 19c58 0 115.5 -4.83301 172.5 -14.5
s114.167 -20.167 171.5 -31.5s114.833 -21.833 172.5 -31.5s116.5 -14.5 176.5 -14.5c24 0 45.667 0.833008 65 2.5s37.666 5.16699 54.999 10.5c12 42 25.833 78.167 41.5 108.5s32.334 55.333 50.001 75s35.5 34.167 53.5 43.5s35.333 14 52 14
c22 0 40.5 -6.66699 55.5 -20s22.5 -30.666 22.5 -51.999zM1436 1452.01c-5.33301 0 -12.499 -2.83203 -21.499 -8.49902s-18.833 -14.334 -29.5 -26.001s-21.334 -26.5 -32.001 -44.5s-20 -39.333 -28 -64c22 10 41.333 23 58 39s30 31.833 40 47.5s16.333 29 19 40
s0.666992 16.5 -6 16.5z" />
    <glyph glyph-name="I" unicode="I" horiz-adv-x="1300" 
d="M1270 1550c16 0 29.998 -7.00391 41.998 -21.0039s18 -31.333 18 -52c0 -28 -11.167 -59.167 -33.5 -93.5s-54.5 -70.166 -96.5 -107.499c-7.33301 -37.333 -13.666 -79.833 -18.999 -127.5s-8 -101.834 -8 -162.501c0 -93.333 -3 -184.333 -9 -273
s-17.333 -172 -34 -250s-40.167 -149.667 -70.5 -215s-70 -121.5 -119 -168.5s-108.5 -83.667 -178.5 -110s-153 -39.5 -249 -39.5c-80 0 -151.333 9.33301 -214 28s-115.834 44.5 -159.501 77.5s-77 71.667 -100 116s-34.5 92.5 -34.5 144.5s11 100.167 33 144.5
s51.667 83 89 116s80.833 58.833 130.5 77.5s102.5 28 158.5 28c8.66699 0 17.5 -0.166992 26.5 -0.5s17.167 -1.66602 24.5 -3.99902s13.5 -6.33301 18.5 -12s7.5 -13.5 7.5 -23.5c0 -10.667 -3.83301 -19.5 -11.5 -26.5s-16.5 -10.5 -26.5 -10.5
c-6.66699 0 -13.167 0.166992 -19.5 0.5s-12.833 0.5 -19.5 0.5c-45.333 0 -88.333 -7.33301 -129 -22s-76.334 -35 -107.001 -61s-55 -56.667 -73 -92s-27 -73.666 -27 -114.999c0 -36.667 6.66699 -69.334 20 -98.001s31.333 -53.834 54 -75.501
s48.834 -40.167 78.501 -55.5s60.834 -27.666 93.501 -36.999s65.834 -16.166 99.501 -20.499s65.834 -6.5 96.501 -6.5c84.667 0 157.667 12 219 36s113.166 57.667 155.499 101s76.5 95.166 102.5 155.499s46.333 127 61 200s24.5 151 29.5 234s7.83301 168.833 8.5 257.5
c0.666992 42.667 2.33398 84.5 5.00098 125.5s6.33398 78.167 11.001 111.5c-26.667 -14 -56 -27.667 -88 -41l-96.5 -41.5c-32.333 -14.333 -63.833 -29.666 -94.5 -45.999s-57.834 -34.333 -81.501 -54s-42.667 -41.667 -57 -66s-21.5 -51.5 -21.5 -81.5
c0 -27.333 4.66699 -51.166 14 -71.499s21 -37.5 35 -51.5s29.333 -25.5 46 -34.5s32.167 -16 46.5 -21s26.666 -8.66699 36.999 -11s16.166 -3.5 17.499 -3.5c11.333 -3.33301 19 -7.83301 23 -13.5s6 -12.5 6 -20.5c0 -11.333 -3.33301 -20.5 -10 -27.5
s-15 -10.5 -25 -10.5c-1.33301 0 -4.16602 0.166992 -8.49902 0.5s-7.16602 0.833008 -8.49902 1.5c-22 4.66699 -47.333 12.834 -76 24.501s-55.834 28 -81.501 49s-47.334 47.5 -65.001 79.5s-26.5 71 -26.5 117c0 40.667 10 76.667 30 108s46.167 59.333 78.5 84
s68.333 46.667 108 66s79.167 37.5 118.5 54.5l111 49.5c34.667 16 63 33.333 85 52c18.667 80.667 40.334 140 65.001 178s49.667 57 75 57z" />
    <glyph glyph-name="J" unicode="J" horiz-adv-x="1157" 
d="M1016 1323c-19.333 -56 -35.667 -120.168 -49 -192.501s-20 -151.833 -20 -238.5c0 -61.333 2 -123.333 6 -186s7.33301 -130 10 -202c16 8.66699 30 13 42 13c9.33301 0 17.666 -3.16699 24.999 -9.5s11 -14.5 11 -24.5c0 -14.667 -6.66699 -25.5 -20 -32.5
s-32.333 -15.833 -57 -26.5v-87c0 -152 -8.83301 -291.5 -26.5 -418.5s-46.167 -236.333 -85.5 -328s-91.166 -163.167 -155.499 -214.5s-142.833 -77 -235.5 -77c-39.333 0 -78 7.5 -116 22.5s-71.833 37.833 -101.5 68.5s-53.667 68.834 -72 114.501
s-27.5 99.167 -27.5 160.5c0 67.333 12.5 131.5 37.5 192.5s58 118.333 99 172s87.833 103.334 140.5 149.001s106.5 87.167 161.5 124.5s109.167 70 162.5 98s101 51 143 69c-1.33301 68.667 -4.33301 137.5 -9 206.5s-7 139.833 -7 212.5c0 68 4.16699 133.5 12.5 196.5
s19.833 121.833 34.5 176.5c-26 -14.667 -54.5 -28.334 -85.5 -41.001s-63.5 -24.667 -97.5 -36s-68.833 -22.333 -104.5 -33l-105.5 -31c-52.667 -15.333 -100.5 -32.166 -143.5 -50.499s-79.833 -39.5 -110.5 -63.5s-54.5 -51.333 -71.5 -82s-25.5 -66 -25.5 -106
c0 -46.667 9 -86.334 27 -119.001s41.5 -59.167 70.5 -79.5s61.667 -35 98 -44s72.5 -13.5 108.5 -13.5c10.667 0 19.5 -3.66699 26.5 -11s10.5 -16.333 10.5 -27s-3.83301 -19.5 -11.5 -26.5s-16.167 -10.5 -25.5 -10.5c-45.333 0 -90.5 6.5 -135.5 19.5
s-85.5 33 -121.5 60s-65.333 61.167 -88 102.5s-34 90 -34 146c0 48.667 9.83301 92.167 29.5 130.5s47.167 72.5 82.5 102.5s78 56.333 128 79s105.333 42.667 166 60c44 12.667 87.667 26 131 40s84.5 28.5 123.5 43.5s74.833 30.667 107.5 47s60.667 33.5 84 51.5
c26.667 74.667 55.334 132.167 86.001 172.5s60 60.5 88 60.5c6 0 12.5 -1.16699 19.5 -3.5s13.667 -6 20 -11s11.5 -11.833 15.5 -20.5s6 -19.334 6 -32.001c0 -29.333 -15.333 -62.666 -46 -99.999s-72.334 -75 -125.001 -113zM888.999 390.999
c-38.667 -16.667 -82.001 -37.999 -130.001 -63.999s-96.833 -56.333 -146.5 -91s-98 -73 -145 -115s-89 -87.167 -126 -135.5s-66.667 -99.333 -89 -153s-33.5 -109.167 -33.5 -166.5c0 -48.667 7 -91.334 21 -128.001s32.833 -67.334 56.5 -92.001
s50.667 -43.167 81 -55.5s61.5 -18.5 93.5 -18.5c55.333 0 104 12.833 146 38.5s78.5 61.334 109.5 107.001s56.833 100 77.5 163s37.334 132.333 50.001 208s21.667 156 27 241s8 172.167 8 261.5z" />
    <glyph glyph-name="K" unicode="K" horiz-adv-x="2363" 
d="M1047 1274c-10 -14 -19.5068 -30.1699 -28.5068 -48.5029s-17.167 -39.5 -24.5 -63.5s-13.333 -51.5 -18 -82.5s-7.66699 -65.833 -9 -104.5c-1.33301 -36 -2.5 -72 -3.5 -108s-2.5 -72 -4.5 -108c3.33301 0.666992 8.66602 1 15.999 1c34 0 72.333 -5.16699 115 -15.5
s86.667 -25.833 132 -46.5c61.333 16 115.5 37 162.5 63s88.667 55.167 125 87.5s68.666 67 96.999 104s54.5 74.167 78.5 111.5l68 110.5c21.333 36.333 43.666 69.833 66.999 100.5c24 32 51.5 62.333 82.5 91s63 53.5 96 74.5s66.167 37.667 99.5 50
s64.666 18.5 93.999 18.5c10 0 19.167 -3.16699 27.5 -9.5s12.5 -15.166 12.5 -26.499c0 -10.667 -3.5 -19.667 -10.5 -27s-15.833 -11.333 -26.5 -12c-20 -0.666992 -43.5 -6 -70.5 -16s-54.833 -24 -83.5 -42s-57 -39.333 -85 -64s-53.333 -52.334 -76 -83.001
c-26 -35.333 -50.167 -71.333 -72.5 -108l-68 -108.5c-23 -35.667 -47.5 -70.667 -73.5 -105s-55.667 -67 -89 -98s-71.5 -60.167 -114.5 -87.5s-92.833 -52 -149.5 -74c47.333 -30 93 -67.5 137 -112.5l143 -150.5l120.5 -130
c37.667 -40.667 74.334 -76.167 110.001 -106.5s70.334 -54.166 104.001 -71.499s67.834 -26 102.501 -26c42.667 0 83.667 11.167 123 33.5s72.666 54.833 99.999 97.5c7.33301 11.333 18 17 32 17c11.333 0 20.5 -4 27.5 -12s10.5 -16.667 10.5 -26
c0 -7.33301 -2 -14 -6 -20c-34 -54 -76.333 -95.167 -127 -123.5s-103.667 -42.5 -159 -42.5c-42.667 0 -83.667 9.16699 -123 27.5s-78.666 43.666 -117.999 75.999s-79.666 70.333 -120.999 114l-132 141.5l-86.5 92c-27 28.667 -53.333 54.834 -79 78.501
s-51.5 45 -77.5 64s-53 35.5 -81 49.5c-36 -8.66699 -70.667 -14.667 -104 -18s-64 -5 -92 -5c-13.333 0 -25.666 0.333008 -36.999 1s-21.666 2 -30.999 4c-5.33301 -58.667 -13.166 -115.167 -23.499 -169.5s-24.166 -105.333 -41.499 -153
s-39.166 -91.167 -65.499 -130.5s-58.333 -73 -96 -101s-82 -49.833 -133 -65.5s-109.833 -23.5 -176.5 -23.5c-38 0 -75.5 3.16699 -112.5 9.5s-72.667 15.666 -107 27.999s-67 27.333 -98 45s-58.833 37.834 -83.5 60.501c-8 6.66699 -12 16 -12 28
c0 10 3.66699 18.833 11 26.5s16 11.5 26 11.5c10.667 0 19.334 -3.33301 26.001 -10c43.333 -39.333 95.666 -69.833 156.999 -91.5s125.666 -32.5 192.999 -32.5c84.667 0 155.167 14.333 211.5 43s101.833 69.167 136.5 121.5s60.667 115 78 188
s29.666 154.167 36.999 243.5c-8 7.33301 -13.833 15.166 -17.5 23.499s-5.5 17.166 -5.5 26.499c0 22.667 10.333 41.334 31 56.001c2 39.333 3.5 79.5 4.5 120.5s2.16699 83.167 3.5 126.5c1.33301 68.667 8.66602 126.334 21.999 173.001s28 86 44 118
c-33.333 -1.33301 -68.333 -0.166016 -105 3.50098s-74 7.83398 -112 12.501l-114 13.5c-38 4.33301 -75 6.5 -111 6.5c-46 0 -89.333 -6.66699 -130 -20s-76.167 -32.166 -106.5 -56.499s-54.166 -53.5 -71.499 -87.5s-26 -71.333 -26 -112c0 -35.333 7.5 -64.333 22.5 -87
s31.833 -40.834 50.5 -54.501s35.834 -23.167 51.501 -28.5l26.5 -9c8.66699 -2 15.667 -6.5 21 -13.5s8 -14.833 8 -23.5c0 -11.333 -4 -20.333 -12 -27s-16.667 -10 -26 -10c-4 0 -7 0.333008 -9 1c-18.667 4 -40 12 -64 24s-46.667 28.167 -68 48.5
s-39.333 45.333 -54 75s-22 64.5 -22 104.5c0 52 10.667 99.5 32 142.5s50.5 80 87.5 111s80.333 55 130 72s102.5 25.5 158.5 25.5c43.333 0 87.333 -2.33301 132 -7s88.334 -9.5 131.001 -14.5s83.5 -9.33301 122.5 -13s74.833 -4.16699 107.5 -1.5
c12.667 16 28 31.667 46 47s37.167 28.833 57.5 40.5s41 21.167 62 28.5s41.5 11 61.5 11c21.333 0 39.666 -6.5 54.999 -19.5s23 -29.5 23 -49.5c0 -16 -7.16699 -31.333 -21.5 -46s-33.666 -28 -57.999 -40s-52.666 -22 -84.999 -30s-66.166 -13 -101.499 -15z
M1108.99 669.997c-6 2 -14 4.16699 -24 6.5s-21 4.5 -33 6.5s-24.667 3.66699 -38 5s-26.333 2 -39 2c-3.33301 0 -6.5 -0.166992 -9.5 -0.5s-6.16699 -0.833008 -9.5 -1.5c-0.666992 -3.33301 -1 -6.83301 -1 -10.5s-0.333008 -7.16699 -1 -10.5c10 -2.66699 28 -4 54 -4
h19c8.66699 0 18.167 0.333008 28.5 1l30 2c9.66699 0.666992 17.5 2 23.5 4zM1237.99 1413c-6.66699 0 -15.499 -1.66699 -26.499 -5s-22.667 -8 -35 -14s-24.833 -12.667 -37.5 -20s-24 -15 -34 -23c17.333 1.33301 35.166 5.33301 53.499 12s34.5 13.667 48.5 21
s24.167 14 30.5 20s6.5 9 0.5 9z" />
    <glyph glyph-name="L" unicode="L" horiz-adv-x="1846" 
d="M1800 163c-0.666992 -1.33301 -4.6709 -7.00488 -12.0039 -17.0049s-17.833 -22.167 -31.5 -36.5s-30.667 -29.666 -51 -45.999s-44.333 -31.333 -72 -45s-58.834 -25.167 -93.501 -34.5s-73 -14 -115 -14c-65.333 0 -126.666 8.16699 -183.999 24.5
s-112.5 37.166 -165.5 62.499s-105.167 53.333 -156.5 84l-157 90c-32.667 -54.667 -70.167 -99.167 -112.5 -133.5s-86.333 -61.166 -132 -80.499s-91 -32.5 -136 -39.5s-86.5 -10.5 -124.5 -10.5c-36.667 0 -73.834 3.83301 -111.501 11.5s-71.667 20.334 -102 38.001
s-55.166 40.834 -74.499 69.501s-29 64.334 -29 107.001c0 40 9.16699 76.167 27.5 108.5s43.666 59.833 75.999 82.5s70.5 40.167 114.5 52.5s91.333 18.5 142 18.5c38 0 75.833 -3.33301 113.5 -10s74.5 -15.667 110.5 -27s71 -24.166 105 -38.499s66 -28.833 96 -43.5
c4 12 7.5 24 10.5 36s5.66699 25.167 8 39.5s4 30.333 5 48s1.5 38.167 1.5 61.5c0 22 -0.5 43 -1.5 63s-2 41.833 -3 65.5s-2 50.334 -3 80.001s-1.5 65.167 -1.5 106.5c0 95.333 9.33301 182.166 28 260.499s46.334 145.5 83.001 201.5s82.334 99.5 137.001 130.5
s118.334 46.5 191.001 46.5c44 0 85.833 -7 125.5 -21s74.667 -34 105 -60s54.333 -57 72 -93s26.5 -76 26.5 -120c0 -24 -3.33301 -49 -10 -75s-15.834 -49.833 -27.501 -71.5s-25 -39.5 -40 -53.5s-30.833 -21 -47.5 -21c-9.33301 0 -17.666 2.66699 -24.999 8
s-11 13.666 -11 24.999c0 8 1.83301 14.833 5.5 20.5s8.16699 10.834 13.5 15.501c19.333 17.333 35.166 38.666 47.499 63.999s18.5 54.666 18.5 87.999s-6.83301 63.5 -20.5 90.5s-32 50 -55 69s-49.667 33.667 -80 44s-62.166 15.5 -95.499 15.5
c-62.667 0 -117 -13.667 -163 -41s-84 -65.833 -114 -115.5s-52.167 -109.667 -66.5 -180s-21.5 -148.5 -21.5 -234.5c0 -41.333 0.5 -77.666 1.5 -108.999s2 -60 3 -86s2 -50.5 3 -73.5s1.5 -46.5 1.5 -70.5c0 -14 -0.666992 -29.167 -2 -45.5s-3.33301 -33 -6 -50
s-6.16699 -33.667 -10.5 -50s-9.16602 -31.166 -14.499 -44.499c50.667 -26.667 100.667 -55 150 -85s99.5 -57.5 150.5 -82.5s103.667 -45.667 158 -62s111.833 -24.5 172.5 -24.5c53.333 0 99.5 8 138.5 24s71.333 33.833 97 53.5s44.834 37.667 57.501 54
s19 24.833 19 25.5c7.33301 12 18 18 32 18c11.333 0 20.5 -4 27.5 -12s10.5 -16.667 10.5 -26c0 -7.33301 -2 -14 -6 -20zM695.996 267.995c-28.667 14 -58.8311 27.834 -90.498 41.501s-64.167 25.834 -97.5 36.501s-67.5 19.167 -102.5 25.5s-69.833 9.5 -104.5 9.5
c-39.333 0 -76.333 -4.16699 -111 -12.5s-65 -20.5 -91 -36.5s-46.5 -35.333 -61.5 -58s-22.5 -48.334 -22.5 -77.001c0 -26.667 6.66699 -49.834 20 -69.501s31.166 -36 53.499 -49s48.166 -22.667 77.499 -29s60 -9.5 92 -9.5c38.667 0 78.667 3.16699 120 9.5
s81.333 18 120 35s75 40.333 109 70s63.667 67.5 89 113.5z" />
    <glyph glyph-name="M" unicode="M" horiz-adv-x="2722" 
d="M2382 1288c-28.667 -42 -60.6699 -92.3281 -96.0029 -150.995l-113 -197c-34 -60.667 -67.5 -125.167 -100.5 -193.5l-94.5 -203l-83 -193l-66 -163l-44 -113c-10.667 -28.333 -16 -42.833 -16 -43.5c-6.66699 -16.667 -18.667 -25 -36 -25
c-8.66699 0 -16.334 2.83301 -23.001 8.5s-11 12.834 -13 21.501c0 0.666992 -3.16699 14.834 -9.5 42.501l-25.5 111l-36.5 160l-43 189l-45.5 199.5l-43 192c-44.667 -126 -89.5 -237.5 -134.5 -334.5s-91.167 -181.333 -138.5 -253s-96.166 -131.834 -146.499 -180.501
s-103 -87.834 -158 -117.501s-112.667 -50.834 -173 -63.501s-124.166 -19 -191.499 -19c-34.667 0 -71.667 3.83301 -111 11.5s-78.333 19.5 -117 35.5s-75.667 36 -111 60s-66.666 52.5 -93.999 85.5s-49 70.333 -65 112s-24 88.167 -24 139.5c0 54 11.333 103.5 34 148.5
s53.334 83.667 92.001 116s83.5 57.5 134.5 75.5s104.833 27 161.5 27c41.333 0 78.5 -3.5 111.5 -10.5s62.167 -15.833 87.5 -26.5s47 -22.334 65 -35.001s33 -24.334 45 -35.001s20.667 -19.834 26 -27.501s8.33301 -11.5 9 -11.5c4 -7.33301 6 -14.333 6 -21
c0 -9.33301 -3.5 -18 -10.5 -26s-16.167 -12 -27.5 -12c-13.333 0 -24 5.66699 -32 17c-0.666992 0.666992 -6 6.83398 -16 18.501s-26.333 24.5 -49 38.5s-51.834 26.667 -87.501 38s-79.167 17 -130.5 17c-46.667 0 -90.834 -7.16699 -132.501 -21.5s-78 -34.5 -109 -60.5
s-55.667 -56.833 -74 -92.5s-27.5 -74.834 -27.5 -117.501c0 -42 7 -80.333 21 -115s32.667 -65.667 56 -93s50.333 -51 81 -71s62.667 -36.5 96 -49.5s66.833 -22.667 100.5 -29s65.5 -9.5 95.5 -9.5c50.667 0 100.167 3.83301 148.5 11.5s96 22.167 143 43.5
s93.167 50.666 138.5 87.999s90.333 86 135 146s88.834 132.333 132.501 217s87.5 184.667 131.5 300c13.333 34.667 26.333 72 39 112l39 121c-11.333 58.667 -19.5 108.667 -24.5 150s-7.5 75.666 -7.5 102.999c0 29.333 2.33301 52.666 7 69.999s10.667 30.5 18 39.5
s15.333 14.667 24 17s17 3.5 25 3.5c6.66699 0 14.167 -1.33301 22.5 -4s16 -8.5 23 -17.5s12.833 -22.167 17.5 -39.5s7 -40.666 7 -69.999c0 -32 -3 -69 -9 -111s-15 -88.333 -27 -139l30 -136l35 -155.5l37 -164.5l37 -164l34.5 -153l30.5 -132l66 164.5
c26 64.333 55 132.666 87 204.999l101.5 221c35.667 75 72.167 145.833 109.501 212.5c52.667 94.667 101 175.834 145 243.501s82 123.5 114 167.5s57.167 76.5 75.5 97.5s28.166 32.5 29.5 34.5c7.33301 7.33301 16.333 11 27 11c11.333 0 20.5 -3.83301 27.5 -11.5
s10.5 -16.5 10.5 -26.5c0 -4.66699 -1 -9.33398 -3 -14.001c0 -0.666992 -3.83301 -10.5 -11.5 -29.5s-17.334 -45 -29 -78c-11.667 -33 -24.5 -71.667 -38.5 -116s-27.667 -92 -41 -143s-25.166 -104.333 -35.5 -160c-10.333 -55.667 -17.833 -111.167 -22.5 -166.5
c-2 -25.333 -3.66699 -51.833 -5 -79.5s-2 -55.5 -2 -83.5c0 -44 2 -88.333 6 -133s10.667 -87.667 20 -129s22 -80.166 38 -116.499s35.667 -68.166 59 -95.499s51.166 -49.333 83.5 -66c32.333 -16.667 69.833 -25.667 112.5 -27
c10.667 -0.666992 19.167 -5.16699 25.5 -13.5s9.5 -17.166 9.5 -26.499s-3.66699 -17.666 -11 -24.999s-16 -11 -26 -11c-10.667 0 -21.334 1 -32 3c-48 6.66699 -90.333 20.5 -127 41.5s-68.334 47 -95 78c-26.667 31 -48.834 66.333 -66.5 106
c-17.667 39.667 -31.834 82.167 -42.5 127.5c-10.667 45.333 -18.167 92.5 -22.5 141.5s-6.5 98.5 -6.5 148.5c0 59.333 3 118.666 9 177.999s14 117.166 24 173.499s21.667 110.833 35 163.5s27 101.667 41 147z" />
    <glyph glyph-name="N" unicode="N" horiz-adv-x="2310" 
d="M2660 1504c-1.33301 -10 -5.66797 -18.0068 -13.002 -24.0068c-7.33301 -6 -15.666 -9 -25 -9c-1.33301 0 -3.66602 0.166992 -7 0.5c-3.33301 0.333008 -11 0.5 -23 0.5c-12.667 0 -28.834 -1.33301 -48.5 -4c-19.667 -2.66699 -41.334 -8.16699 -65 -16.5
c-23.667 -8.33301 -48.334 -20.5 -74 -36.5c-25.667 -16 -50.834 -37.5 -75.5 -64.5c-24.667 -27 -48 -60.333 -70 -100s-40.667 -87.5 -56 -143.5c-8 -28 -17.167 -68.167 -27.5 -120.5s-21.333 -111.166 -33 -176.499s-23.334 -135 -35 -209l-33 -218l-28.5 -203.5
c-8.66699 -64.333 -15.334 -119.5 -20.001 -165.5c-1.33301 -8.66699 -5.16602 -16.5 -11.499 -23.5s-14.166 -10.5 -23.499 -10.5s-17.5 2.33301 -24.5 7s-11.833 11.667 -14.5 21c-8.66699 32 -22.334 76.333 -41.001 133l-64.5 191.5l-79.5 226.5l-85.5 237.5l-82 225
l-69.5 189.5c-3.33301 -37.333 -8.5 -78.833 -15.5 -124.5s-16.333 -94.667 -28 -147s-26.167 -107.666 -43.5 -165.999s-38 -118.833 -62 -181.5c-37.333 -96 -81.166 -178 -131.499 -246s-103.166 -124.667 -158.499 -170s-111.5 -81.166 -168.5 -107.499
s-110.5 -46.166 -160.5 -59.499s-95 -21.833 -135 -25.5s-70.667 -5.5 -92 -5.5c-73.333 0 -140.833 9.66699 -202.5 29s-115 46.833 -160 82.5s-80 78.334 -105 128.001s-37.5 104.5 -37.5 164.5c0 54 12.167 104.5 36.5 151.5s57 87.833 98 122.5s88 62 141 82
s108.167 30 165.5 30c47.333 0 89.833 -4.66699 127.5 -14s71 -21.166 100 -35.499s54 -29.833 75 -46.5s38.333 -32.5 52 -47.5s24 -27.833 31 -38.5l12.5 -19c2.66699 -5.33301 4 -11.333 4 -18c0 -9.33301 -3.5 -18 -10.5 -26s-16.167 -12 -27.5 -12
c-14.667 0 -25.667 6.66699 -33 20c-0.666992 2 -7.16699 11.5 -19.5 28.5s-31.333 35.5 -57 55.5s-58.834 38.167 -99.501 54.5s-90 24.5 -148 24.5c-47.333 0 -93.5 -8 -138.5 -24s-84.833 -38 -119.5 -66s-62.5 -61.167 -83.5 -99.5s-31.5 -79.833 -31.5 -124.5
c0 -48.667 11.333 -93.167 34 -133.5s53.5 -74.833 92.5 -103.5s84.333 -50.834 136 -66.501s106.834 -23.5 165.501 -23.5c22.667 0 52.667 1.66699 90 5s79.166 11 125.499 23s95.166 30.167 146.499 54.5s102 57.5 152 99.5s97.833 94.333 143.5 157
s85.834 138.667 120.501 228c36 92 64.167 179.5 84.5 262.5s35.5 157.833 45.5 224.5s16.167 123.5 18.5 170.5s3.5 80.5 3.5 100.5v20c0 10.667 3.5 19.834 10.5 27.501s16.167 11.5 27.5 11.5c16.667 0 28.334 -8.33301 35.001 -25
c2 -4.66699 7.83301 -20.334 17.5 -47.001l38 -103.5l54 -146.5l64.5 -176.5l70 -193.5l70.5 -197l65.5 -187l56 -164l24 169.5l27.5 181l29 179.5c9.66699 58.667 19.334 113.667 29 165l26.5 138c8 40.667 15.333 73.334 22 98.001c14.667 58.667 35.667 113.5 63 164.5
s60.5 95.5 99.5 133.5s83.667 67.833 134 89.5s106.166 32.5 167.5 32.5c23.333 0 40.166 -2.66699 50.5 -8c10.333 -5.33301 15.5 -15.666 15.5 -30.999v-5v0z" />
    <glyph glyph-name="O" unicode="O" horiz-adv-x="1584" 
d="M1500 835c12 6.66699 24.4932 14.9912 37.4932 24.9912s25.5 20.333 37.5 31s22.833 20.834 32.5 30.501s17.167 18.167 22.5 25.5c4 4.66699 9.33301 7 16 7c11.333 0 20.5 -4.16699 27.5 -12.5s10.5 -17.166 10.5 -26.499c0 -6.66699 -1.33301 -12.334 -4 -17.001
c-8 -10.667 -18.167 -22.5 -30.5 -35.5s-26.666 -26.167 -42.999 -39.5s-34.166 -26.833 -53.499 -40.5s-39.333 -26.5 -60 -38.5c-11.333 -131.333 -38.833 -245.833 -82.5 -343.5s-99.334 -179.167 -167.001 -244.5s-145 -114.166 -232 -146.499
s-179.5 -48.5 -277.5 -48.5c-53.333 0 -107.166 5.66699 -161.499 17s-106.5 28.833 -156.5 52.5s-96.667 53.667 -140 90s-81 79.666 -113 129.999s-57.167 107.666 -75.5 171.999s-27.5 136.5 -27.5 216.5c0 79.333 9.5 154.5 28.5 225.5s47 137 84 198
s82.5 116 136.5 165s116.333 91.167 187 126.5c5.33301 2.66699 11.333 4 18 4c9.33301 0 18 -3.33301 26 -10s12 -15.667 12 -27c0 -7.33301 -2.16699 -14.166 -6.5 -20.499s-10.166 -11.166 -17.499 -14.499l-37.5 -18.5c-21 -10.333 -46 -26.166 -75 -47.499
s-60 -48.5 -93 -81.5s-63.333 -73.167 -91 -120.5s-50.667 -102.333 -69 -165s-27.5 -134 -27.5 -214c0 -73.333 7.83301 -138 23.5 -194s36.5 -105 62.5 -147s55.833 -77.667 89.5 -107s68.334 -53.666 104.001 -72.999s71.167 -34.666 106.5 -45.999
s67.833 -19.666 97.5 -24.999s54.834 -8.66602 75.501 -9.99902s34.334 -2 41.001 -2c82.667 0 161.667 13 237 39s143 66.167 203 120.5s110.5 123.5 151.5 207.5s68.833 184 83.5 300c-43.333 -19.333 -88.5 -34.5 -135.5 -45.5s-96.167 -16.5 -147.5 -16.5
c-70.667 0 -139.334 9.16699 -206.001 27.5s-125.667 46 -177 83s-92.666 83.167 -123.999 138.5s-47 120 -47 194c0 60 10.5 113.833 31.5 161.5s49.5 88.334 85.5 122.001s77.667 59.334 125 77.001s97 26.5 149 26.5c42.667 0 85.5 -5 128.5 -15s84.333 -25.5 124 -46.5
s76.667 -47.5 111 -79.5s64.333 -70.333 90 -115s45.834 -95.5 60.501 -152.5s22 -120.833 22 -191.5v-35zM1421.99 787.991c2 26 2.99805 51.9971 2.99805 77.9971c0 94.667 -13.833 175.667 -41.5 243s-63.667 122.333 -108 165s-94.166 73.834 -149.499 93.501
s-110.666 29.5 -165.999 29.5c-42.667 0 -82.834 -7 -120.501 -21s-70.667 -34.333 -99 -61s-50.666 -59.5 -66.999 -98.5s-24.5 -83.5 -24.5 -133.5c0 -48 10.167 -94.167 30.5 -138.5s50.5 -83.666 90.5 -117.999s89.833 -61.666 149.5 -81.999s129.167 -30.5 208.5 -30.5
c54 0 105.5 6.66699 154.5 20s95.5 31.333 139.5 54z" />
    <glyph glyph-name="P" unicode="P" horiz-adv-x="1913" 
d="M1883 987c0 -80.667 -15.333 -152.835 -46 -216.502s-74 -117.667 -130 -162s-123 -78.333 -201 -102s-164 -35.5 -258 -35.5c-11.333 0 -21.166 3.16699 -29.499 9.5s-12.5 15.833 -12.5 28.5c0 10 3.66699 18.667 11 26s16.333 11 27 11c84 0 160.667 9.66699 230 29
s128.666 47.833 177.999 85.5s87.666 83.834 114.999 138.501s41 117.334 41 188.001c0 72 -15.833 136 -47.5 192s-76 103.333 -133 142s-125 68 -204 88s-165.833 30 -260.5 30c-89.333 0 -175.833 -7.33301 -259.5 -22s-162.167 -35.334 -235.5 -62.001
s-140.166 -58.667 -200.499 -96s-112 -78.333 -155 -123s-76.5 -92.5 -100.5 -143.5s-36 -103.833 -36 -158.5c0 -48 8.33301 -90 25 -126s38.834 -66.167 66.501 -90.5s59.5 -42.5 95.5 -54.5s73.667 -18 113 -18c46.667 0 88.167 5 124.5 15s67 21 92 33
s44.167 23.167 57.5 33.5s20.666 16.166 21.999 17.499c7.33301 7.33301 16 11 26 11s18.833 -3.83301 26.5 -11.5s11.5 -16.5 11.5 -26.5c0 -11.333 -4 -20.333 -12 -27c-1.33301 -1.33301 -9.83301 -8.33301 -25.5 -21s-38.334 -26.5 -68.001 -41.5
s-65.834 -28.5 -108.501 -40.5s-91.334 -18 -146.001 -18c-50 0 -97.833 8.33301 -143.5 25s-85.667 40.834 -120 72.501s-61.666 70 -81.999 115s-30.5 95.833 -30.5 152.5c0 62 12.833 121.833 38.5 179.5s61.667 111.667 108 162s101.833 96.333 166.5 138
s136.334 77.334 215.001 107.001s163 52.667 253 69s183.333 24.5 280 24.5c106 0 203.333 -12 292 -36s164.834 -58.667 228.501 -104s113.167 -100.5 148.5 -165.5s53 -138.833 53 -221.5zM1289 1225c10 0 18.833 -3.50098 26.5 -10.501s11.5 -16.167 11.5 -27.5
c0 -6.66699 -1.83301 -12.667 -5.5 -18s-8.16699 -10.333 -13.5 -15c-37.333 -29.333 -67.166 -61 -89.499 -95s-39.333 -70.5 -51 -109.5s-19.334 -80.5 -23.001 -124.5s-5.5 -90 -5.5 -138v-126c0 -82.667 -7.33301 -161.167 -22 -235.5s-39.5 -139.5 -74.5 -195.5
s-81.833 -100.5 -140.5 -133.5s-132.334 -49.5 -221.001 -49.5c-40 0 -79.167 4.83301 -117.5 14.5s-74.5 23.667 -108.5 42s-65.333 40.833 -94 67.5s-53.334 56.667 -74.001 90c-1.33301 2.66699 -2.66602 5.83398 -3.99902 9.50098s-2 7.16699 -2 10.5
c0 9.33301 3.5 17.833 10.5 25.5s16.167 11.5 27.5 11.5c6.66699 0 12.834 -1.83301 18.501 -5.5s10.5 -8.16699 14.5 -13.5c42.667 -59.333 91 -103.833 145 -133.5s115.333 -44.5 184 -44.5c78.667 0 142.834 14.5 192.501 43.5s88.667 68.667 117 119
s47.666 109.166 57.999 176.499s15.5 139 15.5 215v127c0 44.667 2 90.834 6 138.501s13.167 94.334 27.5 140.001s35 89 62 130s63.5 77.167 109.5 108.5c2.66699 1.33301 6 2.66602 10 3.99902s7.33301 2 10 2z" />
    <glyph glyph-name="Q" unicode="Q" horiz-adv-x="1749" 
d="M1076 114c-99.333 -44 -195.831 -76.1641 -289.498 -96.4971s-182.5 -30.5 -266.5 -30.5c-62.667 0 -116.5 3.83301 -161.5 11.5s-83.167 17.5 -114.5 29.5s-56.333 25.667 -75 41s-33.167 31 -43.5 47s-17.166 31.333 -20.499 46s-5 27.667 -5 39
c0 28 6.66699 52.333 20 73s30.166 38.5 50.499 53.5s42.666 27.333 66.999 37s47.5 17.5 69.5 23.5c-54 55.333 -94.667 116.333 -122 183s-41 138 -41 214c0 66 9.5 129.333 28.5 190s45.333 117.167 79 169.5s74.167 99.833 121.5 142.5s99.166 79.167 155.499 109.5
s116.5 53.666 180.5 69.999s129.667 24.5 197 24.5s131.833 -8 193.5 -24s119 -38.5 172 -67.5s101 -63.667 144 -104s79.833 -85.333 110.5 -135s54.334 -102.834 71.001 -159.501s25 -115.667 25 -177c0 -58.667 -6.83301 -113.667 -20.5 -165s-32.334 -99 -56.001 -143
s-51 -84.5 -82 -121.5s-63.667 -70.5 -98 -100.5s-69.666 -56.667 -105.999 -80s-71.166 -43.333 -104.499 -60l105.5 -68.5l101 -66.5c33 -21.333 65.667 -41.333 98 -60s64.166 -35 95.499 -49c40 -18 79.667 -30.333 119 -37s77 -10 113 -10s69.833 2.5 101.5 7.5
s59 10.5 82 16.5s41.333 11.667 55 17l20.5 8c4.66699 2 9.66699 3 15 3c10 0 18.833 -3.5 26.5 -10.5s11.5 -16.167 11.5 -27.5c0 -7.33301 -1.83301 -14 -5.5 -20s-9.16699 -10.667 -16.5 -14c-2 -0.666992 -10.667 -4 -26 -10s-35.833 -12.333 -61.5 -19
s-55.667 -12.834 -90 -18.501s-71.5 -8.5 -111.5 -8.5c-40.667 0 -83.334 4 -128.001 12s-90 22.333 -136 43c-36 16 -72.167 34.667 -108.5 56l-110.5 68l-113 74zM1084 197.003c60.667 28.667 118.83 62.8291 174.497 102.496s104.834 85.5 147.501 137.5
s76.667 110.333 102 175s38 136 38 214c0 81.333 -16.333 157.833 -49 229.5s-77.667 134.334 -135 188.001s-125 96 -203 127s-162.333 46.5 -253 46.5c-61.333 0 -120.666 -7.5 -177.999 -22.5s-111.5 -36 -162.5 -63s-97.667 -59.5 -140 -97.5
s-78.833 -80.333 -109.5 -127s-54.5 -97 -71.5 -151s-25.5 -110 -25.5 -168c0 -45.333 5.16699 -87.166 15.5 -125.499s24 -73.5 41 -105.5s36.5 -60.667 58.5 -86s44.667 -48 68 -68c8.66699 0.666992 17.5 1.16699 26.5 1.5s18.167 0.5 27.5 0.5c30 0 62.667 -2 98 -6
s73.333 -10.667 114 -20c75.333 -17.333 147.833 -42.666 217.5 -75.999s135.834 -68.666 198.501 -105.999zM997.998 160.998c-40 26 -79.498 48.666 -118.498 67.999s-78.5 35.833 -118.5 49.5s-81.333 24.667 -124 33s-87.667 14.5 -135 18.5
c19.333 -13.333 37.166 -23.166 53.499 -29.499s26.833 -10.5 31.5 -12.5c16.667 -7.33301 25 -18.666 25 -33.999c0 -11.333 -3.66699 -20.166 -11 -26.499s-16 -9.5 -26 -9.5c-7.33301 0 -15.333 1.66699 -24 5c-1.33301 0 -6.66602 2 -15.999 6s-22 10.167 -38 18.5
s-34.333 19 -55 32s-42.667 28.5 -66 46.5c-17.333 0 -37.5 -2.5 -60.5 -7.5s-44.833 -12.5 -65.5 -22.5s-38.334 -22.833 -53.001 -38.5s-22 -34.5 -22 -56.5c0 -16 5.16699 -32.333 15.5 -49s28.666 -31.834 54.999 -45.501s61.833 -24.834 106.5 -33.501
s101.334 -13 170.001 -13c26 0 56.167 1.33301 90.5 4s71.666 7.66699 111.999 15s83.5 17.5 129.5 30.5s94 30.167 144 51.5z" />
    <glyph glyph-name="R" unicode="R" horiz-adv-x="2073" 
d="M1289 1225c10 0 18.834 -3.49219 26.501 -10.4922s11.5 -16.167 11.5 -27.5c0 -14.667 -6.33301 -25.667 -19 -33c-2 -1.33301 -10.833 -7.66602 -26.5 -18.999s-32.834 -29.666 -51.501 -54.999s-36.667 -58.833 -54 -100.5s-28.333 -93.167 -33 -154.5
c-1.33301 -10.667 -2.16602 -21.334 -2.49902 -32.001s-0.833008 -21.334 -1.5 -32.001c12 1.33301 24.5 2.5 37.5 3.5s26.833 1.5 41.5 1.5c48 0 94.333 -5.33301 139 -16s85.667 -26 123 -46c96.667 38.667 170.667 90 222 154s77 135.333 77 214
c0 58.667 -14.667 110.834 -44 156.501s-70.5 84.167 -123.5 115.5s-116.333 55.333 -190 72s-154.5 25 -242.5 25c-76.667 0 -154.834 -5.83301 -234.501 -17.5s-156.667 -29.167 -231 -52.5s-144.166 -52.333 -209.499 -87s-122.333 -74.5 -171 -119.5
s-87 -95.167 -115 -150.5s-42 -115.333 -42 -180c0 -48 8.33301 -90.167 25 -126.5s38.834 -66.666 66.501 -90.999s59.5 -42.666 95.5 -54.999s73.667 -18.5 113 -18.5c46.667 0 87.667 4.66699 123 14s65 19.5 89 30.5s42.167 21.333 54.5 31s19.166 15.167 20.499 16.5
l16 11.5c6 4.33301 12.333 6.5 19 6.5c10 0 18.667 -3.5 26 -10.5s11 -15.833 11 -26.5s-3.66699 -19.334 -11 -26.001c-1.33301 -1.33301 -9.83301 -8.5 -25.5 -21.5s-38.167 -26.833 -67.5 -41.5s-65.166 -28 -107.499 -40s-90.833 -18 -145.5 -18
c-50.667 0 -98.834 8.33301 -144.501 25s-85.834 40.667 -120.501 72s-62.167 69.5 -82.5 114.5s-30.5 96.167 -30.5 153.5c0 63.333 13 124.166 39 182.499s62.667 112.833 110 163.5s104 96.5 170 137.5s138.833 76.167 218.5 105.5s165.167 52 256.5 68
s185.666 24 282.999 24c99.333 0 190.5 -9.83301 273.5 -29.5s154.5 -48 214.5 -85s106.667 -82.333 140 -136s50 -114.5 50 -182.5c0 -90 -25.833 -171.667 -77.5 -245s-127.5 -134.333 -227.5 -183c36.667 -31.333 65.5 -67.833 86.5 -109.5s36.667 -83.834 47 -126.501
s17 -83.334 20 -122.001s5.16699 -71 6.5 -97c1.33301 -38 4.83301 -68.833 10.5 -92.5s13.667 -42.167 24 -55.5s23 -22.5 38 -27.5s33.167 -7.5 54.5 -7.5c30 0 57.667 7.16699 83 21.5s48.166 32.166 68.499 53.499s38.333 44.5 54 69.5s28.834 48.333 39.5 70
c10.667 21.667 18.834 39.667 24.5 54c5.66699 14.333 8.5 21.833 8.5 22.5c6.66699 16.667 18.334 25 35 25c11.333 0 20.5 -3.83301 27.5 -11.5s10.5 -16.5 10.5 -26.5c0 -3.33301 -0.666992 -7.66602 -2 -12.999c-0.666992 -2.66699 -4.5 -12.834 -11.5 -30.501
s-17.167 -39 -30.5 -64s-30 -51.833 -50 -80.5s-43.167 -55.167 -69.5 -79.5s-56 -44.5 -89 -60.5s-69.5 -24 -109.5 -24c-35.333 0 -64.833 5.66699 -88.5 17s-43 27.833 -58 49.5s-26 48 -33 79s-11.167 66.5 -12.5 106.5c-0.666992 16.667 -1.66699 36.5 -3 59.5
s-3.83301 47.333 -7.5 73s-8.83398 52.167 -15.501 79.5s-16 54 -28 80s-27 50.667 -45 74s-40 43.666 -66 60.999c-51.333 -17.333 -104.5 -30.833 -159.5 -40.5s-111.833 -14.834 -170.5 -15.501v-30c0 -82 -8.16699 -158.833 -24.5 -230.5s-42.833 -134 -79.5 -187
s-84 -94.667 -142 -125s-128.667 -45.5 -212 -45.5c-41.333 0 -82.166 5.5 -122.499 16.5s-78 26.167 -113 45.5s-66.333 42.166 -94 68.499s-49.5 54.833 -65.5 85.5c-3.33301 5.33301 -5 11.333 -5 18c0 9.33301 3.5 17.833 10.5 25.5s16.167 11.5 27.5 11.5
c14.667 0 25.667 -6.33301 33 -19c14.667 -26 33.667 -50 57 -72s49.5 -40.833 78.5 -56.5s60 -27.834 93 -36.501s66.5 -13 100.5 -13c68.667 0 127.334 12.167 176.001 36.5s88.334 59 119.001 104s53 99 67 162s21 133.5 21 211.5v39
c-22 7.33301 -39.667 17.666 -53 30.999s-20 29.666 -20 48.999s6.33301 36.333 19 51s30.667 26.667 54 36c0 15.333 0.333008 30.5 1 45.5s1.66699 29.833 3 44.5c4 48 11.5 91 22.5 129s24 71.333 39 100s30.5 53 46.5 73s31 36.5 45 49.5s25.667 22.5 35 28.5
s14.666 9.33301 15.999 10c4.66699 2.66699 10.334 4 17.001 4zM1383 667.008l-33 10.001c-10.667 3.33301 -22.167 6.16602 -34.5 8.49902s-26 4.33301 -41 6s-32.167 2.5 -51.5 2.5c-34.667 0 -63 -2 -85 -6v-1v-48c40.667 0 82.5 2.33301 125.5 7s82.833 11.667 119.5 21
z" />
    <glyph glyph-name="S" unicode="S" horiz-adv-x="1681" 
d="M1814 1050c-2 -9.33301 -6.33984 -16.6738 -13.0068 -22.0068s-14 -8 -22 -8c-12 0 -21.667 3.83301 -29 11.5s-11 16.5 -11 26.5s1 19.833 3 29.5s3 19.167 3 28.5c0 48.667 -15 92.334 -45 131.001s-72.5 71.167 -127.5 97.5s-121.833 46.5 -200.5 60.5
s-166.334 21 -263.001 21c-74 0 -148.5 -4.83301 -223.5 -14.5s-147 -23.667 -216 -42s-133.5 -41.333 -193.5 -69s-112.167 -59.667 -156.5 -96s-79.166 -76.666 -104.499 -120.999s-38 -92.833 -38 -145.5c0 -40.667 8.83301 -76.5 26.5 -107.5s41.834 -58 72.501 -81
s66.834 -42.667 108.501 -59s86.834 -30 135.501 -41s99.334 -20 152.001 -27s105.667 -12.833 159 -17.5l154 -13c76.667 -6.66699 145.334 -13.667 206.001 -21s114 -16.666 160 -27.999c76.667 -19.333 133.334 -47 170.001 -83s55 -84 55 -144c0 -58 -16 -109 -48 -153
s-75.667 -81 -131 -111s-120 -52.667 -194 -68s-153.333 -23 -238 -23c-92 0 -172.833 6.16699 -242.5 18.5s-128 26 -175 41s-82.833 28.833 -107.5 41.5s-38 19.667 -40 21c-12 6.66699 -18 17.334 -18 32.001c0 11.333 4 20.5 12 27.5s16.667 10.5 26 10.5
c7.33301 0 14 -2 20 -6c0.666992 0 12.167 -5.83301 34.5 -17.5s55.666 -24.5 99.999 -38.5s99.166 -26.667 164.499 -38s141.333 -17 228 -17c86 0 162 7 228 21s121.5 33.5 166.5 58.5s79 54.333 102 88s34.5 70.167 34.5 109.5c0 23.333 -4.16699 43.5 -12.5 60.5
s-19.833 31.667 -34.5 44s-32.167 22.833 -52.5 31.5s-42.5 16 -66.5 22c-25.333 6.66699 -52.5 12.334 -81.5 17.001s-58.833 8.66699 -89.5 12s-61.5 6.33301 -92.5 9l-91.5 8l-154 13c-121.333 10 -227.166 25.5 -317.499 46.5s-165.5 48 -225.5 81s-105 72.5 -135 118.5
s-45 99.667 -45 161c0 62.667 14.167 120.167 42.5 172.5s67 99.5 116 141.5s106.333 78.5 172 109.5s135.834 56.833 210.501 77.5s152 36.167 232 46.5s158.667 15.5 236 15.5c96.667 0 180.834 -5.83301 252.501 -17.5s133 -26.667 184 -45s92.833 -39.166 125.5 -62.499
s59 -46.333 79 -69c47.333 -55.333 71 -118.333 71 -189c0 -23.333 -2.33301 -45.666 -7 -66.999z" />
    <glyph glyph-name="T" unicode="T" horiz-adv-x="1797" 
d="M1749 1392c9.33301 0 18.1689 -3.50391 26.502 -10.5039s12.5 -16.167 12.5 -27.5c0 -14 -6.33301 -24.667 -19 -32c-0.666992 -0.666992 -9.83398 -7 -27.501 -19s-38.5 -30.667 -62.5 -56c50 -6 101 -9 153 -9c50.667 0 96.834 3.5 138.501 10.5s79 16.667 112 29
s61.667 26.833 86 43.5s44.5 35 60.5 55c4 4.66699 8.66699 8.5 14 11.5s11 4.5 17 4.5c10.667 0 19.5 -4 26.5 -12s10.5 -16.667 10.5 -26s-2.33301 -16.666 -7 -21.999c-16 -21.333 -37.333 -42.166 -64 -62.499s-59 -38.5 -97 -54.5s-81.667 -28.833 -131 -38.5
s-104.333 -14.5 -165 -14.5c-34.667 0 -69.334 1.5 -104.001 4.5s-69.334 7.16699 -104.001 12.5c-15.333 -22 -29.5 -46.667 -42.5 -74s-23.5 -57.333 -31.5 -90c-14 -56 -21.833 -115.333 -23.5 -178s-3 -126.5 -4 -191.5s-4.16699 -129.667 -9.5 -194
s-18 -126.5 -38 -186.5c-15.333 -45.333 -35.833 -87.333 -61.5 -126s-57 -72.167 -94 -100.5s-79.333 -50.666 -127 -66.999s-101.167 -24.5 -160.5 -24.5c-97.333 0 -185.333 19.333 -264 58s-147 99.667 -205 183l-8 14c-3.33301 6 -5 12 -5 18
c0 9.33301 3.33301 18.333 10 27s16 13 28 13c7.33301 0 14 -1.83301 20 -5.5s10.667 -8.16699 14 -13.5c48.667 -74.667 105.667 -129.834 171 -165.501s144.666 -53.5 237.999 -53.5c49.333 0 93.666 6.16699 132.999 18.5s74.166 30 104.499 53s56.5 51.167 78.5 84.5
s40.333 71.333 55 114c16 46.667 26.167 100.5 30.5 161.5s7.16602 124.667 8.49902 191s3.83301 132.833 7.5 199.5s12.834 129.667 27.501 189c7.33301 31.333 17 60.333 29 87s24.667 51.334 38 74.001c-89.333 18 -178.166 40.833 -266.499 68.5l-259 80
c-84.333 25.667 -165.666 47.834 -243.999 66.501s-152.166 28 -221.499 28c-63.333 0 -121.833 -9 -175.5 -27s-100 -43.333 -139 -76s-69.333 -72 -91 -118s-32.5 -97 -32.5 -153c0 -40.667 7.16699 -78 21.5 -112s34.166 -63.5 59.499 -88.5s55.333 -44.5 90 -58.5
s72.667 -21 114 -21c43.333 0 82 6.5 116 19.5s64 29.167 90 48.5s48.167 40.333 66.5 63s33.333 43.834 45 63.501s20.334 36 26.001 49l8.5 19.5c2.66699 7.33301 7.33398 13.333 14.001 18s14 7 22 7c11.333 0 20.5 -3.83301 27.5 -11.5s10.5 -16.5 10.5 -26.5
c0 -2 -0.166992 -3.83301 -0.5 -5.5s-0.833008 -3.5 -1.5 -5.5c-0.666992 -1.33301 -4.33398 -10.166 -11.001 -26.499s-17 -36 -31 -59s-32 -47.833 -54 -74.5s-48.667 -51.5 -80 -74.5s-67.5 -42 -108.5 -57s-87.833 -22.5 -140.5 -22.5c-50.667 0 -97.834 9 -141.501 27
s-81.667 42.667 -114 74s-57.666 68.666 -75.999 111.999s-27.5 90.666 -27.5 141.999c0 68 13 129.5 39 184.5s62 102.167 108 141.5s100.333 69.666 163 90.999s130.667 32 204 32c53.333 0 107 -4.66699 161 -14s108.833 -21.666 164.5 -36.999
s112.167 -32.333 169.5 -51l174.5 -56.5c59 -19 119 -36.833 180 -53.5s123.167 -30.334 186.5 -41.001c16.667 20.667 33.167 39 49.5 55s31 29.167 44 39.5s23.833 18.333 32.5 24s13.667 8.83398 15 9.50098c6.66699 3.33301 12.667 5 18 5z" />
    <glyph glyph-name="U" unicode="U" horiz-adv-x="2034" 
d="M1610 648c-38.667 -120 -81.0059 -224.331 -127.006 -312.998s-94 -162.334 -144 -221.001s-101.667 -102.334 -155 -131.001s-106.333 -43 -159 -43c-57.333 0 -105.333 9.16699 -144 27.5s-69.834 43.333 -93.501 75s-40.667 69 -51 112s-15.5 89.5 -15.5 139.5
c0 58.667 6.33301 121.334 19 188.001s26.834 134 42.501 202s29.834 135.667 42.501 203s19 131.333 19 192c0 93.333 -24 165.5 -72 216.5s-117.667 76.5 -209 76.5c-57.333 0 -111.833 -9.16699 -163.5 -27.5s-97 -44 -136 -77s-70 -72.167 -93 -117.5
s-34.5 -95 -34.5 -149c0 -37.333 4.33301 -69.5 13 -96.5s19.5 -49.833 32.5 -68.5s27 -33.667 42 -45s29.333 -20 43 -26s25.167 -10 34.5 -12s14.666 -3 15.999 -3c10 -1.33301 18 -5.66602 24 -12.999s9 -15.666 9 -24.999c0 -10.667 -3.83301 -19.5 -11.5 -26.5
s-16.5 -10.5 -26.5 -10.5c-1.33301 0 -4.66602 0.333008 -9.99902 1s-8.66602 1.33398 -9.99902 2.00098c-26 6.66699 -52.833 17.167 -80.5 31.5s-52.667 34.333 -75 60s-40.666 57.334 -54.999 95.001s-21.5 83.167 -21.5 136.5c0 64.667 13.667 124.167 41 178.5
s64 101.333 110 141s99.333 70.5 160 92.5s124.334 33 191.001 33c56 0 106 -8.33301 150 -25s81.5 -40.834 112.5 -72.501s54.667 -70.167 71 -115.5s24.5 -96.666 24.5 -153.999c0 -62 -6.5 -126.667 -19.5 -194s-27.167 -134.833 -42.5 -202.5
s-29.5 -134.334 -42.5 -200.001s-19.5 -128.167 -19.5 -187.5c0 -42 3.83301 -80.333 11.5 -115s20.5 -64.334 38.5 -89.001s41.5 -43.834 70.5 -57.501s64.833 -20.5 107.5 -20.5c28.667 0 59.167 6 91.5 18s66 33.333 101 64s71.333 72.334 109 125.001
s76.167 120 115.5 202c28.667 60 55.167 124.667 79.5 194s46.333 138.5 66 207.5s37 135.667 52 200s27.5 121.333 37.5 171s17.667 89.5 23 119.5s8 45.667 8 47c2 9.33301 6.33301 16.833 13 22.5s14.667 8.5 24 8.5c11.333 0 20.5 -3.66699 27.5 -11
s10.5 -15.666 10.5 -24.999c0 -2.66699 -1.83301 -17 -5.5 -43l-14.5 -101l-20.5 -143.5l-23 -170.5l-23 -181c-7.66699 -61.333 -14.5 -120.166 -20.5 -176.499s-10.833 -108.333 -14.5 -156s-5.5 -87.5 -5.5 -119.5c0 -86 14.833 -149.833 44.5 -191.5
s68.5 -62.5 116.5 -62.5c33.333 0 63.833 11 91.5 33s52.334 48.667 74.001 80s39.834 63.666 54.501 96.999s26 61.666 34 84.999c2.66699 8 7.33398 14.333 14 19c6.66699 4.66699 14 7 22 7c11.333 0 20.5 -4 27.5 -12s10.5 -16.667 10.5 -26
c0 -2.66699 -0.666992 -6.66699 -2 -12c-2.66699 -7.33301 -7.83398 -20.833 -15.5 -40.5c-7.66699 -19.667 -17.834 -42.334 -30.5 -68.001c-12.667 -25.667 -28 -52.334 -46 -80.001s-38.667 -53 -62 -76s-49.5 -42 -78.5 -57s-60.833 -22.5 -95.5 -22.5
c-38 0 -71.667 7.5 -101 22.5s-54 36.5 -74 64.5s-35.167 62.167 -45.5 102.5s-15.5 86.166 -15.5 137.499c0 42.667 3 97.667 9 165s13.667 140 23 218z" />
    <glyph glyph-name="V" unicode="V" horiz-adv-x="2119" 
d="M1332 53c116 90.667 220.496 187.004 313.496 289.004s172 205.167 237 309.5s114.833 208.333 149.5 312s52 202.5 52 296.5c0 54.667 -5.83301 105.667 -17.5 153s-28.5 88.166 -50.5 122.499s-48.5 61.333 -79.5 81s-65.833 29.5 -104.5 29.5h-19
c-11.333 0 -20.833 3.33301 -28.5 10s-11.5 15.667 -11.5 27c0 16 5.83301 26.5 17.5 31.5s24.834 7.5 39.501 7.5c48.667 0 93.334 -11.333 134.001 -34s75.334 -54.334 104.001 -95.001s51 -88.667 67 -144s24 -115.333 24 -180c0 -105.333 -18.167 -213.5 -54.5 -324.5
s-90 -222.667 -161 -335s-159 -224.166 -264 -335.499s-225.833 -220 -362.5 -326c-3.33301 -2.66699 -7.66602 -5.66699 -12.999 -9s-11.666 -5 -18.999 -5c-12.667 0 -22 4.16699 -28 12.5s-9 18.166 -9 29.499c0 4.66699 0.5 14.334 1.5 29.001l3.5 54
c1.33301 21.333 3 44.833 5 70.5s3.66699 51.667 5 78s2.5 51.833 3.5 76.5s1.5 46.667 1.5 66c0.666992 146 -10.333 280.833 -33 404.5s-58.667 230.834 -108 321.501s-112.833 161.5 -190.5 212.5s-171.5 76.5 -281.5 76.5c-82 0 -154.167 -11.167 -216.5 -33.5
s-114.5 -51.833 -156.5 -88.5s-73.667 -78.167 -95 -124.5s-32 -93.5 -32 -141.5c0 -42.667 7.16699 -80.834 21.5 -114.501s34 -62.334 59 -86.001s54.5 -41.667 88.5 -54s70.667 -18.5 110 -18.5c33.333 0 63.666 3.66699 90.999 11s50.666 15.5 69.999 24.5
s34.5 17.333 45.5 25s17.167 12.167 18.5 13.5c3.33301 3.33301 7.16602 5.5 11.499 6.5s8.5 1.5 12.5 1.5c10 0 18.667 -3.16699 26 -9.5s11 -14.833 11 -25.5c0 -12.667 -4.33301 -22.334 -13 -29.001c-1.33301 -1.33301 -8.66602 -6.83301 -21.999 -16.5
s-31.833 -20 -55.5 -31s-52.167 -21.167 -85.5 -30.5s-70.333 -14 -111 -14c-50 0 -96.667 8.33301 -140 25s-80.666 40.334 -111.999 71.001s-56 67.167 -74 109.5s-27 89.166 -27 140.499c0 57.333 12.333 113.666 37 168.999s61.167 104.666 109.5 147.999
s108 78.166 179 104.499s153.167 39.5 246.5 39.5c120.667 0 224.5 -26.167 311.5 -78.5s158.667 -126.166 215 -221.499s98 -210.166 125 -344.499s40.5 -283.5 40.5 -447.5c0 -46 -1 -93.5 -3 -142.5s-5 -98.833 -9 -149.5z" />
    <glyph glyph-name="W" unicode="W" horiz-adv-x="2851" 
d="M1146 -46c-7.33301 -13.333 -18.335 -20.001 -33.002 -20.001c-12 0 -21.333 3.83301 -28 11.5s-10 16.834 -10 27.501c0 1.33301 0.333008 15.166 1 41.499s1 61.833 1 106.5c0 56.667 0.166992 117 0.5 181s-0.5 129 -2.5 195s-6.33301 131.667 -13 197
s-17 127.833 -31 187.5s-32.333 115.167 -55 166.5s-51.667 95.833 -87 133.5s-77.333 67.167 -126 88.5s-106 32 -172 32c-64.667 0 -123.667 -11.167 -177 -33.5s-99.166 -52.333 -137.499 -90s-68 -81.667 -89 -132s-31.5 -103.5 -31.5 -159.5
c0 -48.667 8.5 -93.5 25.5 -134.5s40.167 -76.5 69.5 -106.5s63.5 -53.5 102.5 -70.5s80.5 -25.5 124.5 -25.5c32.667 0 62.667 4.5 90 13.5s50.666 18.833 69.999 29.5s34.333 20.5 45 29.5s16.334 13.5 17.001 13.5c7.33301 7.33301 16.333 11 27 11
c10 0 18.667 -3.5 26 -10.5s11 -15.5 11 -25.5s-3.66699 -18.667 -11 -26c-1.33301 -1.33301 -8.83301 -7.83301 -22.5 -19.5s-32.5 -24.167 -56.5 -37.5s-52.5 -25.333 -85.5 -36s-69.5 -16 -109.5 -16c-55.333 0 -107.166 10.333 -155.499 31s-90.5 49.334 -126.5 86.001
s-64.5 80.167 -85.5 130.5s-31.5 104.833 -31.5 163.5c0 66.667 12.833 129.667 38.5 189s61.167 111.166 106.5 155.499s98.833 79.333 160.5 105s128.834 38.5 201.501 38.5c94 0 173.333 -16.833 238 -50.5s118.167 -78.667 160.5 -135s75 -121.333 98 -195
s39.833 -150.5 50.5 -230.5s17 -160.5 19 -241.5s3 -157.167 3 -228.5v-43c0 -15.333 -0.166992 -30.666 -0.5 -45.999s-0.666016 -29.833 -0.999023 -43.5s-0.5 -24.834 -0.5 -33.501l670 1240c6 12.667 16.667 19 32 19c11.333 0 20.5 -3.83301 27.5 -11.5
s10.5 -16.5 10.5 -26.5c0 -3.33301 -2 -15.5 -6 -36.5s-8.83301 -48.833 -14.5 -83.5s-11.834 -74.834 -18.501 -120.501s-12.834 -94.834 -18.501 -147.501s-10.5 -107.5 -14.5 -164.5s-6 -113.833 -6 -170.5c0 -95.333 5 -179.833 15 -253.5s26.333 -135.834 49 -186.501
s52.5 -89 89.5 -115s82.5 -39 136.5 -39c48.667 0 95 10.5 139 31.5s85 49.833 123 86.5s73.333 79.667 106 129s62.167 102.5 88.5 159.5s49.666 116.167 70 177.5c20.333 61.333 37.333 122.333 51 183s24 119.667 31 177s10.5 110 10.5 158
c0 86.667 -9.83301 166.5 -29.5 239.5s-51.167 132.5 -94.5 178.5c-6.66699 6.66699 -10 15 -10 25c0 10.667 3.83301 19.667 11.5 27s16.5 11 26.5 11c11.333 0 20.333 -3.66699 27 -11c25.333 -27.333 47.166 -58.166 65.5 -92.499
c18.333 -34.333 33.333 -71.666 45 -111.999s20.334 -82.833 26 -127.5c5.66699 -44.667 8.5 -91 8.5 -139c0 -73.333 -7 -153.166 -21 -239.499s-34.667 -173 -62 -260s-60.833 -171.167 -100.5 -252.5s-85.334 -153.166 -137 -215.499
c-51.667 -62.333 -108.834 -112.333 -171.5 -150c-62.667 -37.667 -130.334 -56.5 -203 -56.5c-68.667 0 -126.334 15.5 -173.001 46.5s-84.167 75.667 -112.5 134s-48.666 129.166 -60.999 212.499s-18.5 177.333 -18.5 282c0 43.333 1.5 88 4.5 134s6.66699 91 11 135
s9 86.333 14 127s9.83301 77.334 14.5 110.001z" />
    <glyph glyph-name="X" unicode="X" horiz-adv-x="2011" 
d="M1974 8c0 -10 -3.66016 -19.0039 -10.9932 -27.0039s-16.333 -11.333 -27 -10c-59.333 4.66699 -112 15.334 -158 32.001s-87.167 38.334 -123.5 65.001s-68.833 58.334 -97.5 95.001s-55.5 77.5 -80.5 122.5s-49.167 94 -72.5 147l-73 169.5
c-112 -109.333 -228.5 -217 -349.5 -323s-247.5 -210.333 -379.5 -313l-21.5 -17c-5.66699 -4.66699 -10.5 -8.33398 -14.5 -11.001s-7.66699 -4.5 -11 -5.5s-7 -1.5 -11 -1.5c-10 0 -18.833 3.83301 -26.5 11.5s-11.5 16.5 -11.5 26.5c0 6.66699 2.33301 13.667 7 21
c1.33301 2 2.5 3.5 3.5 4.5s2.83301 2.66699 5.5 5s6.33398 5.33301 11.001 9l21 16.5c134.667 104.667 264 211.334 388 320.001s243 219 357 331c-1.33301 2 -2.16602 4.16699 -2.49902 6.5s-1.16602 4.5 -2.49902 6.5l-80 187.5
c-24.667 60.333 -49.834 116.833 -75.501 169.5s-53.167 100.834 -82.5 144.501s-63 81 -101 112s-81.5 55.167 -130.5 72.5s-105.833 26 -170.5 26c-37.333 0 -75.5 -5 -114.5 -15s-76.833 -24.167 -113.5 -42.5s-71.5 -40.5 -104.5 -66.5s-61.833 -55.167 -86.5 -87.5
s-44.167 -67.5 -58.5 -105.5s-21.5 -77.667 -21.5 -119c0 -36.667 5.66699 -70.167 17 -100.5s27 -56.5 47 -78.5s43.5 -39 70.5 -51s56.5 -18 88.5 -18c34.667 0 66 5.16699 94 15.5s51.833 21.666 71.5 33.999s35 23.833 46 34.5s16.833 16 17.5 16
c7.33301 7.33301 16.333 11 27 11c10 0 18.667 -3.83301 26 -11.5s11 -16.5 11 -26.5c0 -10.667 -3.66699 -19.667 -11 -27c-2 -1.33301 -9.83301 -8.5 -23.5 -21.5s-32.834 -26.833 -57.501 -41.5s-53.834 -28 -87.501 -40s-71.5 -18 -113.5 -18s-81.167 8 -117.5 24
s-67.833 38.333 -94.5 67s-47.667 62.667 -63 102s-23 82.333 -23 129c0 47.333 7.66699 92.666 23 135.999s36.5 84 63.5 122s58.667 72.5 95 103.5s75.666 57.667 117.999 80s86.666 39.5 132.999 51.5s92.833 18 139.5 18c71.333 0 134.166 -8.66699 188.499 -26
s102.333 -41.666 144 -72.999s78.667 -69.5 111 -114.5s62.666 -94.833 90.999 -149.5s55.833 -114 82.5 -178l87 -201c132 133.333 253.667 266 365 398s211.666 263 300.999 393c7.33301 10.667 17.666 16 30.999 16c11.333 0 20.5 -3.83301 27.5 -11.5
s10.5 -16.167 10.5 -25.5s-2.33301 -16.666 -7 -21.999c-92.667 -134.667 -197 -270.667 -313 -408s-243.333 -275.333 -382 -414l67.5 -158c21.667 -50.667 43.834 -98.167 66.501 -142.5s47 -84.833 73 -121.5s55.167 -68.5 87.5 -95.5s69.166 -48.833 110.499 -65.5
s88.666 -26.667 141.999 -30c10.667 -0.666992 19.667 -4.5 27 -11.5s11 -15.833 11 -26.5z" />
    <glyph glyph-name="Y" unicode="Y" horiz-adv-x="2076" 
d="M2076 54c0 -21.333 -13.001 -34.0029 -39.001 -38.0029c-1.33301 0 -9.83301 -1.33301 -25.5 -4s-35.667 -7 -60 -13s-52.166 -13.833 -83.499 -23.5s-63.333 -21.5 -96 -35.5c2.66699 -36 4.66699 -71.833 6 -107.5s2 -70.834 2 -105.501
c0 -70 -5.33301 -138.333 -16 -205s-28.667 -126.167 -54 -178.5s-59 -94.5 -101 -126.5s-94 -48 -156 -48c-36 0 -68.333 6.5 -97 19.5s-53 30.667 -73 53s-35.333 48.5 -46 78.5s-16 62 -16 96c0 44.667 9.33301 92.334 28 143.001s47.334 101.5 86.001 152.5
s87.667 100.333 147 148s129.666 90.5 210.999 128.5c-3.33301 42 -6.16602 86.167 -8.49902 132.5s-3.5 91.166 -3.5 134.499c0 22 0.666992 47.167 2 75.5s3.33301 58.833 6 91.5s5.83398 67 9.50098 103l11.5 110c-39.333 -113.333 -82 -213.333 -128 -300
s-94.167 -159.167 -144.5 -217.5s-102.833 -102.5 -157.5 -132.5s-110.334 -45 -167.001 -45c-50 0 -93.333 8.16699 -130 24.5s-67.334 39.333 -92.001 69s-43 65.5 -55 107.5s-18 89 -18 141c0 69.333 7.33301 143.5 22 222.5s31 159.167 49 240.5l32 147
c10.667 49.333 16 96 16 140c0 48.667 -7 94 -21 136s-34.5 78.333 -61.5 109s-60.167 54.834 -99.5 72.501s-84.333 26.5 -135 26.5c-64 0 -124.167 -12.167 -180.5 -36.5s-105.5 -58.166 -147.5 -101.499s-75.333 -94.666 -100 -153.999s-37 -124 -37 -194
c0 -42 5 -83.833 15 -125.5s25.5 -80 46.5 -115s47.833 -64.833 80.5 -89.5s71.667 -41 117 -49c9.33301 -1.33301 17.166 -5.66602 23.499 -12.999s9.5 -15.666 9.5 -24.999c0 -10 -3.66699 -18.833 -11 -26.5s-16 -11.5 -26 -11.5c-7.33301 0 -20.666 2.66699 -39.999 8
s-41.166 14.333 -65.499 27s-49.833 29.834 -76.5 51.501s-50.834 49.167 -72.501 82.5s-39.667 72.833 -54 118.5s-21.5 99.167 -21.5 160.5c0 84 14.167 160.833 42.5 230.5s66.833 129.5 115.5 179.5s105.834 88.833 171.501 116.5s135.5 41.5 209.5 41.5
c62 0 117.5 -10.833 166.5 -32.5s90.167 -51.334 123.5 -89.001s58.833 -82.167 76.5 -133.5s26.5 -106.666 26.5 -165.999c0 -22 -1 -44.5 -3 -67.5s-5.66699 -46.5 -11 -70.5c-10 -51.333 -21.167 -103.666 -33.5 -156.999s-23.833 -106 -34.5 -158
s-19.5 -102.667 -26.5 -152s-10.5 -95.666 -10.5 -138.999c0 -38.667 3.83301 -74.5 11.5 -107.5s20.167 -61.667 37.5 -86s40 -43.333 68 -57s62.667 -20.5 104 -20.5c75.333 0 148.833 33.667 220.5 101s140.834 168 207.501 302c25.333 50.667 49 105.667 71 165
s42 118.666 60 177.999s34.167 116.333 48.5 171s26.333 103.167 36 145.5s17.167 76.5 22.5 102.5s8 39.333 8 40c1.33301 9.33301 5.5 16.833 12.5 22.5s14.833 8.5 23.5 8.5c11.333 0 20.5 -3.83301 27.5 -11.5s10.5 -16.167 10.5 -25.5
c0 -2.66699 -1.66699 -14.834 -5 -36.501l-13 -85l-18.5 -121.5l-21.5 -145c-5.33301 -38 -10.833 -81.5 -16.5 -130.5s-10.834 -99.5 -15.501 -151.5s-8.5 -103.667 -11.5 -155s-4.5 -98.333 -4.5 -141c0 -36 1 -73.5 3 -112.5s4.66699 -77.833 8 -116.5
c27.333 11.333 55.166 21.333 83.499 30s54.833 16.167 79.5 22.5s46.334 11.166 65.001 14.499s31.667 5.33301 39 6c13.333 1.33301 23.666 -1.83398 30.999 -9.50098s11 -17.167 11 -28.5zM1699 -94.0029c-64 -29.333 -120.832 -64.334 -170.499 -105.001
s-91.667 -83.167 -126 -127.5s-60.5 -88.833 -78.5 -133.5s-27 -86 -27 -124c0 -24 3.5 -46.333 10.5 -67s17.167 -38.834 30.5 -54.501s29.666 -27.834 48.999 -36.501s41 -13 65 -13c36 0 67.167 7.66699 93.5 23s49 36 68 62s34.333 55.667 46 89s21 67.833 28 103.5
s11.667 71.334 14 107.001s3.5 68.834 3.5 99.501c0 28.667 -0.666992 57.834 -2 87.501z" />
    <glyph glyph-name="Z" unicode="Z" horiz-adv-x="1865" 
d="M1863 1286c1.33301 -5.33301 1.99219 -9.66895 1.99219 -13.002c0 -13.333 -5 -23.333 -15 -30l-206.5 -159.5l-223 -174l-228 -180l-221.5 -177l-203.5 -166.5l-174.5 -146.5l-134 -118c-37.333 -34.333 -64.666 -61.5 -81.999 -81.5c30.667 4.66699 69.5 11 116.5 19
s102.833 15.5 167.5 22.5s137.834 13.167 219.501 18.5s172.167 8 271.5 8c93.333 0 192.833 -3.83301 298.5 -11.5s218.834 -21.167 339.501 -40.5c9.33301 -1.33301 17 -5.33301 23 -12s9 -14.667 9 -24c0 -11.333 -3.66699 -20.833 -11 -28.5s-16.333 -11.5 -27 -11.5
c-2.66699 0 -5.66699 0.333008 -9 1c-118.667 19.333 -229.5 32.833 -332.5 40.5s-200.167 11.5 -291.5 11.5c-80 0 -155.333 -2 -226 -6s-135.667 -8.66699 -195 -14s-112.666 -11.166 -159.999 -17.499l-121 -16.5c-10 -1.33301 -20.333 -3 -31 -5s-21 -3.66699 -31 -5
s-19.167 -2.5 -27.5 -3.5s-14.833 -1.5 -19.5 -1.5c-16 0 -30.333 4.16699 -43 12.5s-19 21.166 -19 38.499c0 9.33301 2.16699 19 6.5 29s12.166 20.667 23.499 32c20.667 22.667 47.5 49.834 80.5 81.501s76.833 71.167 131.5 118.5l114 96.5l146.5 120.5l167.5 135.5
l178 142l177 141l165 130.5l142.5 111.5l108.5 84.5c-71.333 4.66699 -143.5 12.167 -216.5 22.5s-144.833 21.833 -215.5 34.5s-139.667 25.667 -207 39l-191.5 36.5c-60.333 11 -116.5 20 -168.5 27s-98 10.5 -138 10.5c-62.667 0 -121.167 -7.66699 -175.5 -23
s-101.666 -37.333 -141.999 -66s-72 -63 -95 -103s-34.5 -84.333 -34.5 -133c0 -33.333 5.66699 -65 17 -95s28.5 -56.333 51.5 -79s51.333 -40.5 85 -53.5s73.167 -19.5 118.5 -19.5c44 0 87.333 7.33301 130 22s82.334 36.334 119.001 65.001c7.33301 5.33301 15 8 23 8
c10 0 18.833 -3.5 26.5 -10.5s11.5 -15.833 11.5 -26.5c0 -12.667 -4.66699 -22.667 -14 -30c-43.333 -34 -90.5 -59.667 -141.5 -77s-102.5 -26 -154.5 -26c-58 0 -108.667 8.83301 -152 26.5s-79.5 41.167 -108.5 70.5s-50.667 63.5 -65 102.5s-21.5 79.833 -21.5 122.5
c0 60.667 13.5 115.667 40.5 165s64.167 91.333 111.5 126s102.833 61.5 166.5 80.5s132.167 28.5 205.5 28.5c47.333 0 100 -4 158 -12s119.833 -18 185.5 -30l206 -39.5c71.667 -14.333 144.834 -27.833 219.501 -40.5s149.834 -23.667 225.501 -33
s150.834 -15 225.501 -17h22c8 0 15.333 -2.33301 22 -7s11.667 -10.667 15 -18z" />
    <glyph glyph-name="bracketleft" unicode="[" horiz-adv-x="705" 
d="M653 1616c1.33301 -5.33301 2.00293 -9.66504 2.00293 -12.998c0 -16.667 -8 -28.667 -24 -36c-8 -3.33301 -16.5 -6.66602 -25.5 -9.99902s-19.667 -6.5 -32 -9.5s-26.833 -5.66699 -43.5 -8s-36 -4.5 -58 -6.5c-27.333 -2.66699 -54.333 -4.33398 -81 -5.00098
s-49 -1.33398 -67 -2.00098c-0.666992 -18 -1.83398 -53.333 -3.50098 -106s-3.5 -116.167 -5.5 -190.5s-4.5 -156.833 -7.5 -247.5s-5.83301 -183.334 -8.5 -278.001l-8 -280.5c-2.66699 -92.333 -5 -177.833 -7 -256.5s-3.83301 -147.167 -5.5 -205.5
s-2.5 -100.5 -2.5 -126.5c30 8.66699 59.833 15.667 89.5 21s55.5 8 77.5 8c23.333 0 40.5 -2.5 51.5 -7.5s16.5 -15.5 16.5 -31.5c0 -10.667 -3.66699 -19.5 -11 -26.5s-16 -10.5 -26 -10.5c-2 0 -5.83301 0.166992 -11.5 0.5s-11.5 0.5 -17.5 0.5
c-8 0 -17.667 -0.5 -29 -1.5s-23 -2.5 -35 -4.5c-36 -6 -65.167 -13.667 -87.5 -23s-40.833 -14 -55.5 -14c-10 0 -18.833 3.33301 -26.5 10s-11.5 16 -11.5 28v34.5c0 22.333 0.333008 53.5 1 93.5l2.5 143.5c1 55.667 2.16699 117.334 3.5 185.001
s3.16602 140 5.49902 217s5.16602 157.167 8.49902 240.5c4.66699 124.667 8.66699 239.667 12 345l9 273.5c2.66699 77 4.66699 137.333 6 181s2 66.167 2 67.5c0 10 3.66699 18.5 11 25.5s16 10.5 26 10.5l16.5 0.5c11 0.333008 25 0.666016 42 0.999023s36.167 1 57.5 2
s42.333 2.5 63 4.5c22.667 2 42.5 4.66699 59.5 8s31.5 6.66602 43.5 9.99902s21.833 6.33301 29.5 9s13.5 4 17.5 4c8 0 15.333 -2.16699 22 -6.5s11.667 -10.166 15 -17.499z" />
    <glyph glyph-name="backslash" unicode="\" horiz-adv-x="1000" 
d="M941 19c3.33301 -5.33301 5 -11.999 5 -19.999c0 -9.33301 -3.33301 -17.833 -10 -25.5s-15.667 -11.5 -27 -11.5c-14.667 0 -25.667 6.33301 -33 19l-817 1399c-3.33301 4.66699 -5 10.667 -5 18c0 9.33301 3.33301 18.166 10 26.499s15.667 12.5 27 12.5
c14.667 0 25.667 -6.33301 33 -19z" />
    <glyph glyph-name="bracketright" unicode="]" horiz-adv-x="705" 
d="M52 -232c-1.33301 5.33301 -2.00293 9.66504 -2.00293 12.998c0 16.667 8 28.667 24 36c8 3.33301 16.5 6.66602 25.5 9.99902s19.667 6.5 32 9.5s26.833 5.66699 43.5 8s36 4.5 58 6.5c27.333 2.66699 54.333 4.33398 81 5.00098s49 1.33398 67 2.00098
c0.666992 18 1.83398 53.333 3.50098 106s3.5 116.167 5.5 190.5s4.5 156.833 7.5 247.5s5.83301 183.334 8.5 278.001l8 280.5c2.66699 92.333 5 177.833 7 256.5s3.83301 147.167 5.5 205.5s2.5 100.5 2.5 126.5c-30 -8.66699 -59.833 -15.667 -89.5 -21
s-55.5 -8 -77.5 -8c-23.333 0 -40.5 2.5 -51.5 7.5s-16.5 15.5 -16.5 31.5c0 10.667 3.66699 19.5 11 26.5s16 10.5 26 10.5c2 0 5.83301 -0.166992 11.5 -0.5s11.5 -0.5 17.5 -0.5c8 0 17.667 0.5 29 1.5s23 2.5 35 4.5c36 6 65.5 13.667 88.5 23s41.167 14 54.5 14
c10 0 18.833 -3.33301 26.5 -10s11.5 -16 11.5 -28v-34.5c0 -22.333 -0.333008 -53.5 -1 -93.5l-2.5 -143.5c-1 -55.667 -2.16699 -117.334 -3.5 -185.001s-3.16602 -140.167 -5.49902 -217.5s-5.16602 -157.333 -8.49902 -240
c-4.66699 -124.667 -8.66699 -239.667 -12 -345l-9 -273.5c-2.66699 -77 -4.66699 -137.5 -6 -181.5s-2 -66.333 -2 -67c0 -10 -3.66699 -18.5 -11 -25.5s-16 -10.5 -26 -10.5l-16.5 -0.5c-11 -0.333008 -25 -0.666016 -42 -0.999023s-36.167 -1 -57.5 -2
s-42.333 -2.5 -63 -4.5c-23.333 -2 -43.333 -4.66699 -60 -8s-31 -6.66602 -43 -9.99902s-21.833 -6.33301 -29.5 -9s-13.5 -4 -17.5 -4c-8 0 -15.333 2.16699 -22 6.5s-11.667 10.166 -15 17.499z" />
    <glyph glyph-name="asciicircum" unicode="^" horiz-adv-x="626" 
d="M520 1173c4 -6 6 -12.333 6 -19c0 -8.66699 -3.16699 -16.334 -9.5 -23.001s-14.166 -10 -23.499 -10c-11.333 0 -20.333 4.33301 -27 13l-152 216l-154 -216c-6.66699 -8.66699 -15.334 -13 -26.001 -13c-9.33301 0 -17.333 3.33301 -24 10s-10 14.334 -10 23.001
c0 8 2.33301 14.667 7 20l182 252c6.66699 8.66699 15.667 13 27 13s20 -4.66699 26 -14z" />
    <glyph glyph-name="underscore" unicode="_" horiz-adv-x="620" 
d="M620 -172c0 -10.667 -3.16699 -19.666 -9.5 -26.999s-15.166 -11.333 -26.499 -12h-544c-10 0 -19.167 3.16699 -27.5 9.5s-12.5 15.166 -12.5 26.499c0 10.667 3.16699 19.667 9.5 27s15.166 11.333 26.499 12h544c10.667 0.666992 20 -2.5 28 -9.5s12 -15.833 12 -26.5
z" />
    <glyph glyph-name="grave" unicode="`" 
d="M353 641c6.66699 -6.66699 9.99902 -14.666 9.99902 -23.999c0 -8.66699 -3.16699 -16.334 -9.5 -23.001s-14.166 -10 -23.499 -10c-8.66699 0 -16.334 3 -23.001 9l-160 152c-6.66699 6 -10 13.667 -10 23s3.33301 17.333 10 24s14.334 10 23.001 10
c8 0 15.667 -3 23 -9l160 -152v0z" />
    <glyph glyph-name="a" unicode="a" horiz-adv-x="704" 
d="M811 279l-16.502 -33.4932c-8.33301 -17 -19 -36.5 -32 -58.5s-28.167 -45 -45.5 -69s-36.666 -46 -57.999 -66s-44.333 -36.5 -69 -49.5s-50.667 -19.5 -78 -19.5c-38.667 0 -71.167 12.333 -97.5 37s-45.5 55.667 -57.5 93c-22.667 -38 -49.667 -68.167 -81 -90.5
s-62.666 -33.5 -93.999 -33.5c-24.667 0 -47 4.5 -67 13.5s-37 21.667 -51 38s-24.833 35.5 -32.5 57.5s-11.5 46 -11.5 72c0 52 8.83301 97.833 26.5 137.5s40.167 72.834 67.5 99.501s57.5 46.667 90.5 60s64.833 20 95.5 20c20.667 0 39.667 -2.83301 57 -8.5
s32.166 -11.834 44.499 -18.501s21.833 -12.834 28.5 -18.501s10.334 -8.83398 11.001 -9.50098c7.33301 -8.66699 11 -17.667 11 -27c0 -10 -3.66699 -18.833 -11 -26.5s-16 -11.5 -26 -11.5c-10.667 0 -19.667 3.66699 -27 11c-1.33301 1.33301 -4.33301 3.83301 -9 7.5
s-11 7.5 -19 11.5s-17.5 7.5 -28.5 10.5s-23.5 4.5 -37.5 4.5c-20.667 0 -42.667 -4.66699 -66 -14s-44.666 -23.833 -63.999 -43.5s-35.5 -44.334 -48.5 -74.001s-19.5 -64.834 -19.5 -105.501c0 -12.667 1.33301 -25.5 4 -38.5s7.33398 -24.833 14.001 -35.5
s15.667 -19.334 27 -26.001s25.333 -10 42 -10c12 0 25.833 4 41.5 12s30.667 20.333 45 37s27.333 37.667 39 63s19.834 55.333 24.501 90c1.33301 9.33301 5.66602 17.166 12.999 23.499s16 9.5 26 9.5c9.33301 0 17.5 -3.66699 24.5 -11s10.833 -15.666 11.5 -24.999
c0.666992 -12.667 2 -30.5 4 -53.5s6.5 -45.833 13.5 -68.5s17.5 -42.334 31.5 -59.001s33.333 -25 58 -25c16 0 31.833 4.33301 47.5 13s31 20.167 46 34.5s29.333 30.666 43 48.999s26.167 36.833 37.5 55.5s21.333 36.667 30 54l22 45
c3.33301 7.33301 8.16602 13 14.499 17s13.166 6 20.499 6c11.333 0 20.5 -4.16699 27.5 -12.5s10.5 -17.166 10.5 -26.499c0 -4.66699 -1 -9.33398 -3 -14.001z" />
    <glyph glyph-name="b" unicode="b" horiz-adv-x="775" 
d="M881 277c-2 -4 -6.33203 -12.1709 -12.999 -24.5039s-15.334 -26.666 -26.001 -42.999s-23.334 -33.666 -38.001 -51.999s-30.667 -35.166 -48 -50.499s-36 -28 -56 -38s-40.667 -15 -62 -15c-34.667 0 -64 6.16699 -88 18.5s-43.667 26.166 -59 41.499
c-10.667 -23.333 -23.667 -44.666 -39 -63.999s-32.333 -36.166 -51 -50.499s-38.5 -25.5 -59.5 -33.5s-42.5 -12 -64.5 -12c-40.667 0 -75.334 12 -104.001 36s-52.5 56.167 -71.5 96.5s-33.833 87.166 -44.5 140.499s-18.834 109.333 -24.501 168s-9.16699 118 -10.5 178
s-2 117 -2 171c0 103.333 3 192.833 9 268.5s14.167 140 24.5 193s22.333 96 36 129s28.167 58.667 43.5 77s31 30.833 47 37.5s31.667 10 47 10c24.667 0 46.5 -7.33301 65.5 -22s35 -35.167 48 -61.5s22.833 -58.166 29.5 -95.499s10 -78.333 10 -123
c0 -71.333 -7.66699 -145 -23 -221s-35.166 -151.833 -59.499 -227.5s-51.5 -150 -81.5 -223l-89 -207.5c4 -32.667 10 -63.834 18 -93.501s18.333 -56 31 -79s27.667 -41.333 45 -55s37.333 -20.5 60 -20.5s44 6.5 64 19.5s37.333 30 52 51s26.167 44.833 34.5 71.5
s12.5 54 12.5 82c0 18.667 -1.83301 37.5 -5.5 56.5s-9.33398 36 -17.001 51s-17.167 27.167 -28.5 36.5s-25 14 -41 14c-12 0 -21.333 -2.5 -28 -7.5s-11.667 -10.667 -15 -17s-5.33301 -12.5 -6 -18.5s-1 -10 -1 -12c0 -9.33301 2 -18.666 6 -27.999
s11.667 -17.666 23 -24.999c11.333 -8 17 -19 17 -33c0 -11.333 -3.83301 -20.333 -11.5 -27s-16.167 -10 -25.5 -10c-13.333 0 -25.166 4 -35.499 12s-19.166 18.167 -26.499 30.5s-13 25.5 -17 39.5s-6 27 -6 39c0 19.333 3.33301 37.166 10 53.499
s15.834 30.333 27.501 42s25 20.667 40 27s30.833 9.5 47.5 9.5c28.667 0 53.5 -6.66699 74.5 -20s38.5 -31 52.5 -53s24.333 -47 31 -75s10 -56.333 10 -85c0 -16.667 -1 -33 -3 -49c2.66699 -5.33301 7 -12.333 13 -21s14 -17 24 -25s22 -15 36 -21s30.333 -9 49 -9
c16 0 32.5 6.16699 49.5 18.5s33.333 27.666 49 45.999s30.167 38 43.5 59s24.333 40.5 33 58.5c3.33301 6.66699 8 11.834 14 15.501s12.667 5.5 20 5.5c11.333 0 20.5 -4 27.5 -12s10.5 -17 10.5 -27c0 -4 -1.33301 -9.33301 -4 -16zM108.001 405.996l68.998 176.502
c23.333 61.667 44.333 124.5 63 188.5s34 128.667 46 194s18 129.666 18 192.999c0 24 -1.16699 49.167 -3.5 75.5s-6.5 50.5 -12.5 72.5s-14.167 40.333 -24.5 55s-23.5 22 -39.5 22c-5.33301 0 -12.166 -3.5 -20.499 -10.5s-17.166 -19.333 -26.499 -37
s-18.666 -42.167 -27.999 -73.5s-17.833 -71.166 -25.5 -119.499s-14 -106.5 -19 -174.5s-7.5 -148 -7.5 -240c0 -30.667 0.333008 -61.834 1 -93.501s1.5 -61.834 2.5 -90.501s2.16699 -55 3.5 -79s2.66602 -43.667 3.99902 -59z" />
    <glyph glyph-name="c" unicode="c" horiz-adv-x="586" 
d="M692 277c-4 -7.33301 -10.8301 -20.6641 -20.4971 -39.9971s-22.667 -41.166 -39 -65.499s-35.833 -49.5 -58.5 -75.5s-48.667 -49.833 -78 -71.5s-62.166 -39.5 -98.499 -53.5s-75.833 -21 -118.5 -21c-38 0 -71.667 6.83301 -101 20.5s-54.333 33 -75 58
s-36.334 54.5 -47.001 88.5s-16 71.667 -16 113c0 40 5.66699 77.5 17 112.5s26.833 65.5 46.5 91.5s42.5 46.5 68.5 61.5s53.667 22.5 83 22.5c22 0 42 -3.83301 60 -11.5s33.167 -17.834 45.5 -30.501s22 -26.667 29 -42s10.5 -30.666 10.5 -45.999
c0 -14.667 -1.83301 -28.334 -5.5 -41.001s-8.33398 -23.834 -14.001 -33.501s-12.167 -17.334 -19.5 -23.001s-14.666 -8.5 -21.999 -8.5c-11.333 0 -20.5 3.66699 -27.5 11s-10.5 16.333 -10.5 27c0 5.33301 1.16699 10 3.5 14s5 8.16699 8 12.5s5.66699 9.66602 8 15.999
s3.5 14.5 3.5 24.5c0 14 -6.5 26.667 -19.5 38s-29.5 17 -49.5 17c-18.667 0 -36.5 -5.66699 -53.5 -17s-31.833 -26.5 -44.5 -45.5s-22.834 -41.333 -30.501 -67s-11.5 -52.834 -11.5 -81.501c0 -27.333 3.33301 -53.333 10 -78s16.667 -46.5 30 -65.5
s30.166 -34.167 50.499 -45.5s44.5 -17 72.5 -17c36 0 69.333 6.5 100 19.5s58.667 29.5 84 49.5s47.666 41.833 66.999 65.5s35.833 46 49.5 67s24.334 39.333 32.001 55s12.167 25.5 13.5 29.5c2.66699 6.66699 7.16699 11.834 13.5 15.501s13.166 5.5 20.499 5.5
c11.333 0 20.5 -4 27.5 -12s10.5 -17 10.5 -27c0 -4 -1.33301 -9.33301 -4 -16z" />
    <glyph glyph-name="d" unicode="d" horiz-adv-x="748" 
d="M426 291c32.667 -154 79.998 -231.009 141.998 -231.009c24 0 47 8.83301 69 26.5s42.5 39.334 61.5 65.001s35.833 52.834 50.5 81.501s26.667 53.667 36 75c6.66699 16 18.334 24 35.001 24c10.667 0 19.667 -4 27 -12s11 -16.667 11 -26c0 -5.33301 -1 -10 -3 -14
c-4.66699 -11.333 -11.5 -26.5 -20.5 -45.5s-20 -39.333 -33 -61s-27.5 -43.834 -43.5 -66.501s-33.667 -43 -53 -61s-39.833 -32.833 -61.5 -44.5s-44.5 -17.5 -68.5 -17.5c-44.667 0 -83 15.5 -115 46.5s-59.667 82.167 -83 153.5c-32 -68 -64.333 -117.333 -97 -148
s-68 -46 -106 -46c-20 0 -39.333 3.16699 -58 9.5s-35 16.833 -49 31.5s-25.333 33.5 -34 56.5s-13 51.167 -13 84.5c0 46 8 88.333 24 127s36.667 71.834 62 99.501s53.5 49.167 84.5 64.5s61.833 23 92.5 23c10 0 18.667 -3.5 26 -10.5s11 -15.833 11 -26.5
c0 -9.33301 -3 -17.666 -9 -24.999s-14 -11.666 -24 -12.999c-20 -2.66699 -41.333 -9 -64 -19s-43.5 -24.5 -62.5 -43.5s-34.667 -43.167 -47 -72.5s-18.5 -64.333 -18.5 -105c0 -33.333 6.83301 -59.333 20.5 -78s33.5 -28 59.5 -28c10.667 0 22 2.83301 34 8.5
s24.833 16.834 38.5 33.501s28.667 40.334 45 71.001s34.5 71 54.5 121c-11.333 58.667 -21.666 126.334 -30.999 203.001s-14 162.334 -14 257.001c0 41.333 1.33301 84.5 4 129.5s7 89 13 132s14 83.833 24 122.5s22.167 72.667 36.5 102s31.166 52.5 50.499 69.5
s41.333 25.5 66 25.5c22 0 40.667 -6 56 -18s27.833 -28.667 37.5 -50s16.834 -47 21.501 -77s7 -63 7 -99c0 -77.333 -6.66699 -154.666 -20 -231.999s-29.833 -151.333 -49.5 -222s-40.5 -136 -62.5 -196s-42 -111.667 -60 -155zM542.998 1096.99
c0 16.667 -0.499023 34.667 -1.49902 54s-3.33301 37.5 -7 54.5s-8.5 31.167 -14.5 42.5s-14 17 -24 17c-16.667 0 -32.167 -14.667 -46.5 -44s-26.833 -67.833 -37.5 -115.5s-19.167 -101.667 -25.5 -162s-9.5 -121.166 -9.5 -182.499
c0 -58.667 2.33301 -117.334 7 -176.001s10 -111 16 -157c19.333 51.333 37.666 104.166 54.999 158.499s32.5 109.833 45.5 166.5s23.333 113.834 31 171.501s11.5 115.167 11.5 172.5z" />
    <glyph glyph-name="e" unicode="e" horiz-adv-x="523" 
d="M158 110c14 -19.333 31.9971 -34.833 53.9971 -46.5s49 -17.5 81 -17.5c32.667 0 62.334 7.83301 89.001 23.5s51 36.167 73 61.5s41.667 53.666 59 84.999s33 62.666 47 93.999c3.33301 7.33301 8 12.833 14 16.5s12.667 5.5 20 5.5c11.333 0 20.5 -4 27.5 -12
s10.5 -16.667 10.5 -26c0 -3.33301 -0.333008 -6.16602 -1 -8.49902s-1.66699 -4.83301 -3 -7.5c-46 -101.333 -96.167 -177.666 -150.5 -228.999s-115.833 -77.666 -184.5 -78.999c-44 0 -82 8.5 -114 25.5s-58.333 39 -79 66s-36 57.5 -46 91.5s-15 68 -15 102
s4.16699 65.333 12.5 94s20.333 53.667 36 75s34.334 38 56.001 50s45.5 18 71.5 18c15.333 0 30.5 -3.16699 45.5 -9.5s28.5 -15.333 40.5 -27s21.667 -25.834 29 -42.501s11 -35.667 11 -57c0 -27.333 -4.66699 -53 -14 -77s-22.166 -46.333 -38.499 -67
s-35.833 -39.667 -58.5 -57s-47 -32.333 -73 -45zM127.997 175c20.667 8.66699 39.501 19.667 56.501 33s31.5 28 43.5 44s21.333 32.833 28 50.5s10 35.5 10 53.5c0 20 -5 35.167 -15 45.5s-21.667 15.5 -35 15.5c-18 0 -33.333 -5 -46 -15s-23 -23 -31 -39
s-13.833 -33.833 -17.5 -53.5s-5.5 -39.167 -5.5 -58.5c0 -12 1.16699 -24.667 3.5 -38s5.16602 -26 8.49902 -38z" />
    <glyph glyph-name="f" unicode="f" horiz-adv-x="455" 
d="M116 -49c49.333 22 94.166 47.3301 134.499 75.9971s76.333 58.834 108 90.501s58.667 64 81 97s40.166 64.5 53.499 94.5c6 14.667 17.333 22 34 22c11.333 0 20.5 -3.83301 27.5 -11.5s10.5 -16.167 10.5 -25.5c0 -5.33301 -1 -10.333 -3 -15
c-14.667 -32.667 -33.334 -66.5 -56.001 -101.5s-50.167 -69.333 -82.5 -103s-70.166 -66.167 -113.499 -97.5s-93 -60 -149 -86c36 -37.333 67.333 -78.833 94 -124.5s48.834 -93.167 66.501 -142.5s31 -99.166 40 -149.499s13.5 -98.5 13.5 -144.5
c0 -42 -3.83301 -81.5 -11.5 -118.5s-19 -69.167 -34 -96.5s-33.167 -48.833 -54.5 -64.5s-45.666 -23.5 -72.999 -23.5c-40 0 -71 14.833 -93 44.5s-38.167 70.667 -48.5 123s-16.333 114 -18 185s-2.5 148.167 -2.5 231.5v144.5c0 55 0.166992 114 0.5 177l1 198
c0.333008 69 0.833008 138.167 1.5 207.5l2 204.5c0.666992 67 1.66699 130.5 3 190.5c2 114.667 6 217 12 307s15.667 166 29 228s31.5 109.167 54.5 141.5s52.167 48.5 87.5 48.5c28 0 51.667 -7.83301 71 -23.5s35 -36.667 47 -63s20.667 -57.166 26 -92.499
s8 -72.333 8 -111c0 -81.333 -7 -160 -21 -236s-33 -149.667 -57 -221s-52.167 -141 -84.5 -209s-66.833 -135 -103.5 -201v-88.5v-95c0 -31.667 -0.166992 -62 -0.5 -91s-0.5 -54.167 -0.5 -75.5zM119 454.997c27.333 51.333 52.501 105.506 75.501 162.506
s42.833 115.833 59.5 176.5s29.667 122.667 39 186s14 127 14 191c0 32 -1.5 61 -4.5 87s-7.66699 48.167 -14 66.5s-14.333 32.666 -24 42.999s-20.834 15.5 -33.501 15.5c-13.333 0 -25 -8 -35 -24s-18.667 -37.333 -26 -64s-13.5 -57.334 -18.5 -92.001
s-9.16699 -70.834 -12.5 -108.501s-6 -75.334 -8 -113.001s-3.5 -73 -4.5 -106s-1.66699 -62.167 -2 -87.5s-0.5 -44.333 -0.5 -57c-0.666992 -26.667 -1.16699 -50.334 -1.5 -71.001s-0.833008 -41 -1.5 -61s-1.16699 -41.333 -1.5 -64s-0.5 -49.334 -0.5 -80.001z
M116.001 -171.997c0 -42 -0.166992 -81.1719 -0.5 -117.505s-0.5 -69.5 -0.5 -99.5c0 -62 0.333008 -123.333 1 -184s3.83398 -115.167 9.50098 -163.5s14.334 -87.333 26.001 -117s28.5 -44.5 50.5 -44.5c20 0 36.333 9 49 27s22.5 39.333 29.5 64
s11.833 49.834 14.5 75.501s4 46.5 4 62.5c0 40.667 -3.83301 83.334 -11.5 128.001s-19.334 88.834 -35.001 132.501s-34.834 85.834 -57.501 126.501s-49 77.334 -79 110.001z" />
    <glyph glyph-name="g" unicode="g" horiz-adv-x="623" 
d="M400 -98c125.333 163.333 212.336 299.005 261.003 407.005c3.33301 7.33301 7.83301 12.833 13.5 16.5s12.167 5.5 19.5 5.5c11.333 0 20.666 -3.83301 27.999 -11.5s11 -16.5 11 -26.5c0 -4.66699 -1 -9.33398 -3 -14.001c-29.333 -66.667 -71 -141 -125 -223
s-122.333 -174.667 -205 -278c0 -42 0.333008 -84 1 -126s1 -88 1 -138s-1.16699 -99.5 -3.5 -148.5s-6.5 -95.667 -12.5 -140s-14.167 -85.333 -24.5 -123s-23.666 -70.334 -39.999 -98.001s-36 -49.334 -59 -65.001s-50.167 -23.5 -81.5 -23.5c-44.667 0 -79 17 -103 51
s-36 82.333 -36 145c0 33.333 3.16699 69.5 9.5 108.5s15.5 79.167 27.5 120.5s26.5 83.166 43.5 125.499s35.833 83.5 56.5 123.5s43.167 78.333 67.5 115s50.166 70 77.499 100c0.666992 46.667 1.16699 93 1.5 139s1.16602 88.333 2.49902 127
c-20 -25.333 -43.833 -45.333 -71.5 -60s-55.167 -22 -82.5 -22c-23.333 0 -44.5 4.5 -63.5 13.5s-35.167 21.667 -48.5 38s-23.666 35.5 -30.999 57.5s-11 46 -11 72c0 52 8.83301 97.833 26.5 137.5s40.167 72.834 67.5 99.501s57.5 46.667 90.5 60s64.833 20 95.5 20
c20.667 0 39.667 -2.66699 57 -8s32.166 -11.333 44.499 -18s21.833 -13 28.5 -19s10.334 -9.33301 11.001 -10c7.33301 -8 11 -17 11 -27s-3.66699 -18.833 -11 -26.5s-16 -11.5 -26 -11.5c-9.33301 0 -18.333 3.66699 -27 11c-2.66699 2 -6.16699 4.83301 -10.5 8.5
s-10 7.5 -17 11.5s-15.333 7.33301 -25 10s-21.167 4 -34.5 4c-20 0 -42 -4.5 -66 -13.5s-46.333 -23.167 -67 -42.5s-38 -44.166 -52 -74.499s-21 -66.833 -21 -109.5c0 -32 7 -57.833 21 -77.5s35.667 -29.5 65 -29.5c14 0 28.833 4 44.5 12s30.834 20.333 45.501 37
s27.5 37.667 38.5 63s18.833 55.333 23.5 90c1.33301 9.33301 5.66602 17.166 12.999 23.499s16 9.5 26 9.5c11.333 0 20.166 -4 26.499 -12s9.5 -17 9.5 -27c0 -0.666992 -0.333008 -10.834 -1 -30.501s-1.33398 -45.834 -2.00098 -78.501s-1.5 -70.5 -2.5 -113.5
s-1.83301 -88.5 -2.5 -136.5zM324.003 -316.995c-31.333 -43.333 -59.667 -90.5 -85 -141.5s-47 -102.5 -65 -154.5s-31.833 -102.5 -41.5 -151.5s-14.5 -92.833 -14.5 -131.5c0 -24.667 2.16699 -44.334 6.5 -59.001s9.66602 -26 15.999 -34s13.333 -13.333 21 -16
s14.834 -4 21.501 -4c20.667 0 38.667 8.33301 54 25s28.333 38.834 39 66.501s19.334 59.5 26.001 95.5s11.667 73.167 15 111.5s5.66602 76.5 6.99902 114.5s2 73 2 105v86c0 28.667 -0.666992 58 -2 88z" />
    <glyph glyph-name="h" unicode="h" horiz-adv-x="769" 
d="M117 85c10.667 22.667 23.001 47.1709 37.001 73.5039l45 81c16 27.667 33 55.167 51 82.5s36.667 53 56 77c19.333 23.333 38.833 40.166 58.5 50.499s38.167 15.5 55.5 15.5s32.5 -3.5 45.5 -10.5s23.667 -16.5 32 -28.5s14.666 -26 18.999 -42s6.5 -33.333 6.5 -52
c0 -15.333 -1.5 -35.833 -4.5 -61.5s-4.5 -52.5 -4.5 -80.5c0 -16 0.833008 -31.833 2.5 -47.5s4.66699 -29.667 9 -42s10.833 -22.333 19.5 -30s20 -11.5 34 -11.5c16 0 32 4.5 48 13.5s31.667 21 47 36s30 31.667 44 50s26.667 36.666 38 54.999s21.333 36 30 53l21 42.5
c6.66699 15.333 18.334 23 35.001 23c11.333 0 20.333 -4 27 -12s10 -16.667 10 -26c0 -5.33301 -1 -10.333 -3 -15c-2.66699 -5.33301 -7.83398 -16.333 -15.501 -33s-18 -36 -31 -58s-28.167 -45 -45.5 -69s-36.5 -46.167 -57.5 -66.5s-43.667 -37 -68 -50
s-49.833 -19.5 -76.5 -19.5c-30.667 0 -55.334 6.5 -74.001 19.5s-33.167 29.5 -43.5 49.5s-17.333 42.333 -21 67s-5.5 48.667 -5.5 72c0 12 0.5 24.833 1.5 38.5s2.16699 27.167 3.5 40.5s2.5 25.833 3.5 37.5s1.5 21.5 1.5 29.5c0 20.667 -2.83301 34.667 -8.5 42
s-12.167 11 -19.5 11c-10.667 0 -22.834 -6.16699 -36.501 -18.5s-28 -28.5 -43 -48.5s-30 -42.5 -45 -67.5l-43.5 -74.5c-14 -24.667 -26.667 -48.167 -38 -70.5l-28 -55.5c-14 -28 -28.167 -46.833 -42.5 -56.5s-27.166 -14.5 -38.499 -14.5
c-20.667 0 -36.5 8.16699 -47.5 24.5s-16.5 36.166 -16.5 59.499v63c0 126 0.166992 246.167 0.5 360.5s2 220.666 5 318.999s8 187.333 15 267s17.5 147.667 31.5 204s31.833 99.833 53.5 130.5s48.834 46 81.501 46c28 0 51.667 -7.66699 71 -23s35 -36.166 47 -62.499
s20.667 -57 26 -92s8 -71.833 8 -110.5c0 -78.667 -7.16699 -155.834 -21.5 -231.501s-33.5 -149.5 -57.5 -221.5s-52 -142.167 -84 -210.5s-65.667 -134.833 -101 -199.5v-43v-50v-47v-35zM117.001 454.004c28 61.333 53.502 121.169 76.502 179.502s42.667 116.5 59 174.5
s29.166 116.833 38.499 176.5s14 121.834 14 186.501c0 10.667 -0.5 27.667 -1.5 51s-4 47 -9 71s-12.667 45 -23 63s-24.833 27 -43.5 27c-14.667 0 -27.334 -9.83301 -38.001 -29.5s-20 -46.334 -28 -80.001s-14.667 -72.834 -20 -117.501s-9.66602 -92 -12.999 -142
s-5.83301 -101.333 -7.5 -154s-2.83398 -103.834 -3.50098 -153.501s-1 -96.167 -1 -139.5v-113z" />
    <glyph glyph-name="i" unicode="i" horiz-adv-x="430" 
d="M201 785c0 -25.333 -8.83301 -46.833 -26.5 -64.5s-39.167 -26.5 -64.5 -26.5s-46.833 8.83301 -64.5 26.5s-26.5 39.167 -26.5 64.5c0 12.667 2.33301 24.5 7 35.5s11.167 20.667 19.5 29s18 14.833 29 19.5s22.833 7 35.5 7s24.5 -2.33301 35.5 -7
s20.667 -11.167 29 -19.5s14.833 -18 19.5 -29s7 -22.833 7 -35.5zM39 199c0 96 6.00293 191.666 18.0029 286.999c1.33301 9.33301 5.5 17.5 12.5 24.5s16.167 10.5 27.5 10.5c10 0 18.333 -3.83301 25 -11.5s10 -16.5 10 -26.5c0 -4 -0.833008 -16 -2.5 -36l-6 -71.5
c-2.33301 -27.667 -4.33301 -57 -6 -88s-2.5 -59.5 -2.5 -85.5c0 -35.333 3.5 -63.833 10.5 -85.5s16 -38.5 27 -50.5s22.667 -20 35 -24s24.166 -6 35.499 -6c18.667 0 38 6.66699 58 20s40.5 32 61.5 56s42.167 52.833 63.5 86.5s42.333 71.167 63 112.5
c3.33301 6.66699 8 11.834 14 15.501s12.667 5.5 20 5.5c10.667 0 19.5 -4 26.5 -12s10.5 -16.667 10.5 -26c0 -6.66699 -1.33301 -12.334 -4 -17.001l-30 -56c-12 -22 -25.667 -44.667 -41 -68s-32.166 -46.5 -50.499 -69.5s-37.833 -43.667 -58.5 -62
s-42.334 -33.166 -65.001 -44.499s-45.667 -17 -69 -17c-30 0 -56.333 6.33301 -79 19s-41.834 29.667 -57.501 51s-27.334 46.5 -35.001 75.5s-11.5 60.167 -11.5 93.5zM145.003 784.999c0 9.33301 -3.5 17.5 -10.5 24.5s-15.167 10.5 -24.5 10.5s-17.333 -3.5 -24 -10.5
s-10 -15.167 -10 -24.5s3.33301 -17.333 10 -24s14.667 -10 24 -10s17.5 3.33301 24.5 10s10.5 14.667 10.5 24z" />
    <glyph glyph-name="j" unicode="j" horiz-adv-x="340" 
d="M210 785c0 -25.333 -8.83301 -46.833 -26.5 -64.5s-39.167 -26.5 -64.5 -26.5s-46.833 8.83301 -64.5 26.5s-26.5 39.167 -26.5 64.5c0 12.667 2.33301 24.5 7 35.5s11.167 20.667 19.5 29s18 14.833 29 19.5s22.833 7 35.5 7s24.5 -2.33301 35.5 -7
s20.667 -11.167 29 -19.5s14.833 -18 19.5 -29s7 -22.833 7 -35.5zM114 -35l76 84.5l75 89c24 29.667 46 59 66 88s35.667 56.5 47 82.5c6 14.667 17.333 22 34 22c11.333 0 20.5 -3.83301 27.5 -11.5s10.5 -16.167 10.5 -25.5c0 -5.33301 -1 -10.333 -3 -15
c-15.333 -34.667 -36.333 -70.667 -63 -108s-55.5 -74.5 -86.5 -111.5l-95 -108l-88.5 -97.5c0.666992 -53.333 1.5 -105.666 2.5 -156.999s1.5 -100 1.5 -146c0 -183.333 -18 -319.333 -54 -408s-89.667 -133 -161 -133c-24.667 0 -47.334 5.33301 -68.001 16
s-38.334 26 -53.001 46s-26.167 44.667 -34.5 74s-12.5 62.666 -12.5 99.999c0 41.333 5.5 86.5 16.5 135.5s28.667 100.833 53 155.5s55.833 111.167 94.5 169.5s85.334 117.5 140.001 177.5c0 57.333 0.333008 114.5 1 171.5s1.83398 111.667 3.50098 164s4 101.333 7 147
s6.5 86.167 10.5 121.5c1.33301 10 5.5 18 12.5 24s15.5 9 25.5 9s18.667 -3.66699 26 -11s11 -16.333 11 -27c0 -4 -1.16699 -17 -3.5 -39s-4.83301 -54.333 -7.5 -97s-5.16699 -95.5 -7.5 -158.5s-3.5 -137.5 -3.5 -223.5zM153 785c0 9.33301 -3.33301 17.5 -10 24.5
s-14.667 10.5 -24 10.5s-17.5 -3.5 -24.5 -10.5s-10.5 -15.167 -10.5 -24.5s3.5 -17.333 10.5 -24s15.167 -10 24.5 -10s17.333 3.33301 24 10s10 14.667 10 24zM43 -443c0 34 -0.332031 68.002 -0.999023 102.002s-1.33398 71 -2.00098 111
c-41.333 -50 -76.5 -99.333 -105.5 -148s-52.833 -95.334 -71.5 -140.001s-32.167 -87 -40.5 -127s-12.5 -76.333 -12.5 -109c0 -18.667 1.33301 -37.5 4 -56.5s7.5 -36.333 14.5 -52s16.5 -28.334 28.5 -38.001s27.333 -14.5 46 -14.5c7.33301 0 16 1.66699 26 5
s20.167 10.5 30.5 21.5s20.5 26.833 30.5 47.5s19 48.5 27 83.5s14.333 78.167 19 129.5s7 113 7 185z" />
    <glyph glyph-name="k" unicode="k" horiz-adv-x="715" 
d="M290 123c11.333 -25.333 29.998 -45.5098 55.998 -60.5098s55.333 -22.5 88 -22.5c10 0 26.333 1.5 49 4.5s48.834 13 78.501 30s61.167 43.833 94.5 80.5s65.666 88.334 96.999 155.001c3.33301 7.33301 8 12.833 14 16.5s12.667 5.5 20 5.5c11.333 0 20.5 -4 27.5 -12
s10.5 -16.667 10.5 -26c0 -4 -1.33301 -9.33301 -4 -16c-23.333 -48.667 -49.333 -92.167 -78 -130.5s-59.667 -71 -93 -98s-68.166 -47.667 -104.499 -62s-73.5 -21.5 -111.5 -21.5c-30 0 -58.167 4.66699 -84.5 14s-49 21.833 -68 37.5s-34 33.334 -45 53.001
s-16.5 39.834 -16.5 60.501c0 2.66699 0.333008 6.33398 1 11.001s2.5 9.83398 5.5 15.501s7.33301 11 13 16s13.5 9.16699 23.5 12.5c27.333 8 52.5 17.833 75.5 29.5s42.833 24.834 59.5 39.501s29.667 30.834 39 48.501s14 36.834 14 57.501c0 18 -6 32.667 -18 44
s-26.667 17 -44 17c-18 0 -35.667 -6.16699 -53 -18.5s-34.166 -28.666 -50.499 -48.999s-31.833 -43.666 -46.5 -69.999s-28.167 -53.833 -40.5 -82.5s-23.166 -57.167 -32.499 -85.5s-17 -54.5 -23 -78.5l-6.5 -24c-2.33301 -8.66699 -5.83301 -16.834 -10.5 -24.501
s-10.334 -14 -17.001 -19s-15.334 -7.5 -26.001 -7.5c-10 0 -19.667 4.16699 -29 12.5s-14 22.5 -14 42.5c0 4 0.166992 19.333 0.5 46s0.833008 61.5 1.5 104.5s1.5 92.333 2.5 148s1.83301 114.667 2.5 177s1.66699 126.5 3 192.5s2.33301 130.333 3 193
s1.5 122.167 2.5 178.5s1.83301 106.333 2.5 150s1.16699 79.334 1.5 107.001s0.5 44.167 0.5 49.5c0 10.667 4 19.5 12 26.5s16.667 10.5 26 10.5c10.667 0 19.667 -3.5 27 -10.5s11 -16.167 11 -27.5c0 -1.33301 -0.166992 -14.5 -0.5 -39.5s-0.833008 -58.5 -1.5 -100.5
s-1.5 -91 -2.5 -147s-2 -115.5 -3 -178.5l-3 -194.5l-3 -195c-1 -63.333 -1.83301 -123.666 -2.5 -180.999s-1.33398 -108 -2.00098 -152c10.667 34 24.334 69.833 41.001 107.5s36.334 72.5 59.001 104.5s48.167 58.333 76.5 79s59.833 31 94.5 31
c19.333 0 37.333 -3.5 54 -10.5s31.167 -16.667 43.5 -29s22 -26.833 29 -43.5s10.5 -34.667 10.5 -54c0 -30 -6.66699 -57.5 -20 -82.5s-31 -47.333 -53 -67s-47.167 -36.834 -75.5 -51.501s-57.5 -26.667 -87.5 -36z" />
    <glyph glyph-name="l" unicode="l" horiz-adv-x="501" 
d="M607 277c-7.33301 -15.333 -16.5049 -33.5039 -27.5049 -54.5039s-23.5 -42.833 -37.5 -65.5s-29.667 -45.167 -47 -67.5s-36.166 -42.333 -56.499 -60s-42 -32 -65 -43s-47.5 -16.5 -73.5 -16.5c-40 0 -74.333 12.333 -103 37s-53 57 -73 97s-36.167 85.5 -48.5 136.5
s-21.833 103 -28.5 156s-11.167 104.5 -13.5 154.5s-3.5 94.333 -3.5 133c0 56 1.83301 114 5.5 174s9.5 118.667 17.5 176s18.167 111.666 30.5 162.999s27 96.333 44 135s36.5 69.334 58.5 92.001s47 34 75 34c22 0 41.833 -5.16699 59.5 -15.5s32.5 -27.166 44.5 -50.499
s21.333 -53.666 28 -90.999s10 -83 10 -137c0 -66.667 -7 -135.5 -21 -206.5s-33 -142.5 -57 -214.5s-52.333 -143.833 -85 -215.5s-67.667 -141.5 -105 -209.5c16.667 -84.667 39 -151.167 67 -199.5s61.667 -72.5 101 -72.5c26.667 0 52.334 10.5 77.001 31.5
s47.334 45.833 68.001 74.5s38.834 57.834 54.501 87.501s27.834 53.5 36.501 71.5c3.33301 6.66699 8 11.834 14 15.501s12.667 5.5 20 5.5c11.333 0 20.5 -4 27.5 -12s10.5 -17 10.5 -27c0 -4 -1.33301 -9.33301 -4 -16zM105.995 678.996
c0 -42.667 0.999023 -83.6689 2.99902 -123.002s4.66699 -77 8 -113c28 54 54.667 111.5 80 172.5s47.666 122.667 66.999 185s34.833 124.333 46.5 186s17.5 120.5 17.5 176.5c0 78.667 -6.33301 135 -19 169s-29.667 51 -51 51c-14 0 -27.5 -9.66699 -40.5 -29
s-25.167 -45.666 -36.5 -78.999s-21.666 -72.666 -30.999 -117.999s-17.166 -94 -23.499 -146s-11.333 -106.333 -15 -163s-5.5 -113 -5.5 -169z" />
    <glyph glyph-name="m" unicode="m" horiz-adv-x="1309" 
d="M269 89l38.502 74.4912l49 89.5l50 85c16.333 26.667 30.166 47 41.499 61c19.333 23.333 39.333 40 60 50s39.667 15 57 15s32.166 -3.66699 44.499 -11s22.5 -17.166 30.5 -29.499s14 -26.666 18 -42.999s6 -33.833 6 -52.5c0 -10.667 -0.5 -24.667 -1.5 -42
s-2 -36 -3 -56l-3 -62c-1 -21.333 -1.83301 -41.333 -2.5 -60l34 66.5l38.5 72.5l37.5 67.5c12 21 23 38.167 33 51.5c28.667 39.333 55.5 65.666 80.5 78.999s47.167 20 66.5 20c22.667 0 41.334 -4.16699 56.001 -12.5s26.167 -19 34.5 -32s14.166 -27.5 17.499 -43.5
s5 -31.333 5 -46c0 -22.667 -1.66699 -46.334 -5 -71.001s-5 -54 -5 -88c0 -14 0.666992 -28 2 -42s4.16602 -26.333 8.49902 -37s11.166 -19.334 20.499 -26.001s22 -10 38 -10c17.333 0 34.333 4.5 51 13.5s32.667 20.833 48 35.5s29.833 31.334 43.5 50.001
s26.167 37.334 37.5 56.001s21.333 36.5 30 53.5s15.667 31.5 21 43.5c3.33301 7.33301 8 13 14 17s12.667 6 20 6c11.333 0 20.5 -4.16699 27.5 -12.5s10.5 -17.166 10.5 -26.499c0 -4.66699 -1 -9.33398 -3 -14.001l-16 -33.5c-8 -17 -18.667 -36.333 -32 -58
s-28.833 -44.5 -46.5 -68.5s-37.167 -46.167 -58.5 -66.5s-44.333 -37 -69 -50s-50.667 -19.5 -78 -19.5c-29.333 0 -53.166 5.16699 -71.499 15.5s-33 24.166 -44 41.499s-18.5 37.333 -22.5 60s-6 46.334 -6 71.001c0 32.667 1.66699 62.834 5 90.501s5 49.167 5 64.5
c0 16.667 -1.5 29.334 -4.5 38.001s-6.66699 14.834 -11 18.501s-8.5 5.66699 -12.5 6s-7 0.5 -9 0.5c-16 0 -32.833 -8.83301 -50.5 -26.5s-35.834 -41.167 -54.501 -70.5s-37.834 -62.666 -57.501 -99.999l-59.5 -114l-28.5 -53c-7.66699 -14 -15 -25 -22 -33
s-13.833 -13.667 -20.5 -17s-14 -5 -22 -5c-17.333 0 -30.5 6 -39.5 18s-13.5 27.667 -13.5 47c0 10 0.333008 23.333 1 40s1.33398 35 2.00098 55s1.66699 40.667 3 62s2.33301 41.833 3 61.5s1.33398 37.167 2.00098 52.5s1 27 1 35c0 17.333 -3 29.833 -9 37.5
s-13 11.5 -21 11.5c-7.33301 0 -15.5 -2.66699 -24.5 -8s-19.5 -15.666 -31.5 -30.999c-9.33301 -12 -21.166 -29.5 -35.499 -52.5l-45.5 -76.5l-47.5 -86c-15.667 -29.333 -29.167 -55.666 -40.5 -78.999c-14 -28 -28 -47.167 -42 -57.5s-27.667 -15.5 -41 -15.5
c-19.333 0 -33.666 5.83301 -42.999 17.5s-14 27.167 -14 46.5c0 2 0.5 14 1.5 36l3.5 80.5c1.33301 31.667 2.83301 65.5 4.5 101.5l4.5 101c0.666992 16.667 0 32 -2 46s-4.66699 22.333 -8 25c-5.33301 -1.33301 -15.833 -13.666 -31.5 -36.999s-35.5 -64 -59.5 -122
c-3.33301 -7.33301 -8.33301 -13 -15 -17s-13.667 -6 -21 -6c-11.333 0 -20.333 3.83301 -27 11.5s-10 16.5 -10 26.5c0 4.66699 1 9.66699 3 15c30 71.333 58.667 123.833 86 157.5s54 50.5 80 50.5c15.333 0 28.166 -3.5 38.499 -10.5s18.5 -16 24.5 -27
s10.333 -23.5 13 -37.5s4 -27.667 4 -41c0 -59.333 -1.5 -113.666 -4.5 -162.999z" />
    <glyph glyph-name="n" unicode="n" horiz-adv-x="911" 
d="M260 90c10.667 22 23.0039 46.167 37.0039 72.5s29 53 45 80s32.833 53.833 50.5 80.5s36.167 52 55.5 76c19.333 23.333 38.833 40.166 58.5 50.499s38.167 15.5 55.5 15.5c34.667 0 60.334 -12.667 77.001 -38s25 -56.666 25 -93.999
c0 -8.66699 -0.5 -19.167 -1.5 -31.5s-2 -25.5 -3 -39.5l-3 -42.5c-1 -14.333 -1.5 -27.833 -1.5 -40.5c0 -16 0.833008 -31.333 2.5 -46s4.83398 -27.5 9.50098 -38.5s11.334 -19.667 20.001 -26s20 -9.5 34 -9.5c25.333 0 50 9.83301 74 29.5s46.167 43 66.5 70
s38 54.5 53 82.5s26.167 50.667 33.5 68c3.33301 7.33301 8.16602 13 14.499 17s13.166 6 20.499 6c11.333 0 20.5 -4.16699 27.5 -12.5s10.5 -17.166 10.5 -26.499c0 -4.66699 -1 -9.33398 -3 -14.001l-16 -33c-8 -16.667 -18.5 -35.834 -31.5 -57.501
s-28.167 -44.667 -45.5 -69s-36.5 -46.5 -57.5 -66.5s-43.667 -36.667 -68 -50s-49.833 -20 -76.5 -20c-30 0 -54.333 5.83301 -73 17.5s-33.334 27 -44.001 46s-17.834 40 -21.501 63s-5.5 46.167 -5.5 69.5c0 10 0.5 21.333 1.5 34s2.33301 26 4 40s3 28 4 42
s1.5 27.333 1.5 40c0 21.333 -3.33301 35.833 -10 43.5s-12.667 11.5 -18 11.5c-10.667 0 -22.834 -6.16699 -36.501 -18.5s-28 -28.5 -43 -48.5s-30.333 -42.5 -46 -67.5s-30.334 -49.833 -44.001 -74.5l-38 -70.5c-11.667 -22.333 -20.834 -40.833 -27.501 -55.5
c-13.333 -28 -26.666 -46.833 -39.999 -56.5s-27 -14.5 -41 -14.5c-19.333 0 -34.833 5.83301 -46.5 17.5s-17.5 28.167 -17.5 49.5c0 4.66699 0.666992 13.834 2 27.501l5 49c2 19 4 39.5 6 61.5l6 65.5c2 21.667 3.66699 41.834 5 60.501s2 34.334 2 47.001
c0 16.667 -0.666992 32.667 -2 48s-4 24.666 -8 27.999c-6 -2 -16.667 -14.5 -32 -37.5s-35 -63.5 -59 -121.5c-3.33301 -7.33301 -8.33301 -13 -15 -17s-13.667 -6 -21 -6c-11.333 0 -20.333 3.83301 -27 11.5s-10 16.5 -10 26.5c0 4.66699 1 9.66699 3 15
c30 71.333 58.167 123.833 84.5 157.5s52.5 50.5 78.5 50.5c15.333 0 28.333 -3.83301 39 -11.5s19.167 -17.834 25.5 -30.501s11 -26.667 14 -42s4.5 -31 4.5 -47c0 -12 -0.833008 -30.667 -2.5 -56s-3.83398 -52.5 -6.50098 -81.5s-5.16699 -57.833 -7.5 -86.5
s-4.5 -52.667 -6.5 -72z" />
    <glyph glyph-name="o" unicode="o" horiz-adv-x="647" 
d="M499 110c-16.667 0 -31.3369 1.33008 -44.0039 3.99707c-10 -20 -22 -38.5 -36 -55.5s-30.167 -31.833 -48.5 -44.5s-38.833 -22.667 -61.5 -30s-47.334 -11 -74.001 -11c-31.333 0 -60 5.5 -86 16.5s-48.667 26.333 -68 46s-34.333 43.334 -45 71.001
s-16 58.167 -16 91.5c0 42.667 7.66699 79.834 23 111.501s33 58 53 79s40 36.667 60 47s35 15.5 45 15.5c11.333 0 19.833 -3 25.5 -9s8.5 -14 8.5 -24c0 -11.333 -3.5 -19.833 -10.5 -25.5s-15.833 -11.167 -26.5 -16.5s-22 -12.833 -34 -22.5
s-23.167 -21.834 -33.5 -36.501s-18.833 -32 -25.5 -52s-10 -42.333 -10 -67c0 -22 3.33301 -42.5 10 -61.5s16.334 -35.333 29.001 -49s27.667 -24.334 45 -32.001s36.666 -11.5 57.999 -11.5c38 0 69.5 8.83301 94.5 26.5s44.167 40.167 57.5 67.5
c-39.333 20.667 -71.666 50 -96.999 88s-38 80.667 -38 128c0 38 9.16699 69 27.5 93s42.5 36 72.5 36c18 0 35 -4.33301 51 -13s30.167 -22.334 42.5 -41.001s22.166 -42.667 29.499 -72s11 -64.333 11 -105c0 -21.333 -2.66699 -43.666 -8 -66.999c4 -0.666992 8 -1 12 -1
h13c22.667 0 43 2.66699 61 8s34.333 13.333 49 24s27.834 24.334 39.501 41.001s22.834 36 33.501 58c2 4 6.33301 7.83301 13 11.5s13.334 5.5 20.001 5.5c8.66699 0 16.834 -3.5 24.501 -10.5s11.5 -16.167 11.5 -27.5c0 -5.33301 -1.33301 -11.166 -4 -17.499
s-5.33398 -12.166 -8.00098 -17.499c-11.333 -20 -24.5 -39.167 -39.5 -57.5s-32.667 -34.333 -53 -48s-43.166 -24.5 -68.499 -32.5s-53.666 -11.667 -84.999 -11zM327.997 361.997c0 -12.667 1.66699 -26.002 5 -40.002s8.5 -27.833 15.5 -41.5s15.667 -26.667 26 -39
s22.5 -22.833 36.5 -31.5c2 14 3 27.667 3 41c0 18 -1.33301 36.333 -4 55s-6.5 35.834 -11.5 51.501s-11.167 28.334 -18.5 38.001s-16 14.5 -26 14.5c-4 0 -9.33301 -3 -16 -9s-10 -19 -10 -39z" />
    <glyph glyph-name="p" unicode="p" horiz-adv-x="723" 
d="M551 279c0 -61.333 -10.999 -113.667 -32.999 -157s-49 -76.333 -81 -99h4c39.333 0 75.166 8.83301 107.499 26.5s61.5 40.334 87.5 68.001s49.333 58.5 70 92.5s39 67 55 99c3.33301 7.33301 8.16602 13 14.499 17s13.166 6 20.499 6c11.333 0 20.333 -4 27 -12
s10 -16.667 10 -26c0 -5.33301 -1 -10.333 -3 -15c-17.333 -38.667 -38 -77.5 -62 -116.5s-52 -74.167 -84 -105.5s-68 -56.833 -108 -76.5s-84.333 -29.5 -133 -29.5c-35.333 0 -69.666 5.5 -102.999 16.5s-62.666 28.167 -87.999 51.5
c-9.33301 7.33301 -17.333 15.166 -24 23.499s-12 16.166 -16 23.499c-1.33301 1.33301 -2 2.66602 -2 3.99902c-4 6 -6 12.333 -6 19c0 8.66699 3 16.667 9 24c0.666992 1.33301 1.33398 2.16602 2.00098 2.49902s1.33398 0.833008 2.00098 1.5c6.66699 6 14 9.33301 22 10
h3c3.33301 0 5.66602 -0.333008 6.99902 -1c0.666992 0 1.16699 -0.166992 1.5 -0.5s0.833008 -0.5 1.5 -0.5c2 0 4.33301 -0.666992 7 -2c0.666992 -0.666992 1.33398 -1 2.00098 -1c6 -4 11 -9 15 -15c4.66699 -8 10 -15.333 16 -22
c5.33301 -5.33301 11.666 -10.166 18.999 -14.499s15.666 -6.5 24.999 -6.5c16.667 0 33.334 5 50.001 15s31.667 24.333 45 43s24.166 41.334 32.499 68.001s12.5 56.334 12.5 89.001c0 24 -2.5 44.5 -7.5 61.5s-11.333 30.833 -19 41.5s-15.834 18.5 -24.501 23.5
s-17 7.5 -25 7.5c-18 0 -36.167 -9.33301 -54.5 -28s-36.5 -42.334 -54.5 -71.001s-35.833 -60.334 -53.5 -95.001l-53.5 -101c-1.33301 -108 -3.16602 -211 -5.49902 -309s-6.33301 -189 -12 -273s-13.5 -160 -23.5 -228s-23.667 -126.167 -41 -174.5
s-38.666 -85.5 -63.999 -111.5s-56.333 -39 -93 -39c-11.333 0 -24.333 2.33301 -39 7s-28.334 14.167 -41.001 28.5s-23.334 34.833 -32.001 61.5s-13 62.334 -13 107.001c0 56.667 7 122.334 21 197.001s33.833 153.834 59.5 237.501s56.167 169.5 91.5 257.5
s74.333 173.667 117 257c0 23.333 0.166992 46.333 0.5 69s0.5 44.667 0.5 66c-8.66699 -10 -19 -15 -31 -15c-11.333 0 -20.333 4 -27 12s-10 16.667 -10 26c0 4.66699 1 9.66699 3 15c16 36.667 28.333 71.5 37 104.5s15.167 62 19.5 87s6.83301 44.833 7.5 59.5
s1 22.334 1 23.001c0 10 3.66699 18.667 11 26s16.333 11 27 11c10 0 18.667 -3.5 26 -10.5s11 -15.833 11 -26.5v-307l46 77c15.333 25.333 31.5 48 48.5 68s35.333 36.167 55 48.5s41.5 18.5 65.5 18.5c22.667 0 43.334 -5.33301 62.001 -16s34.667 -25.334 48 -44.001
s23.5 -40.834 30.5 -66.501s10.5 -53.167 10.5 -82.5zM107.001 -42.001c-32.667 -73.333 -62.167 -147.003 -88.5 -221.003s-48.666 -145.333 -66.999 -214s-32.5 -133 -42.5 -193s-15 -112.667 -15 -158c0 -11.333 0.666992 -23.666 2 -36.999s4 -25.666 8 -36.999
s9.66699 -20.833 17 -28.5s17 -11.5 29 -11.5c22 0 41 13.833 57 41.5s29.5 65 40.5 112s20.167 101 27.5 162s13.166 124.833 17.499 191.5s7.5 133.834 9.5 201.501s3.66699 131.5 5 191.5z" />
    <glyph glyph-name="q" unicode="q" horiz-adv-x="623" 
d="M400 -102l81 110.011c26 36.667 50.167 72.667 72.5 108s42.666 69.333 60.999 102s33.833 63 46.5 91c3.33301 7.33301 7.83301 12.833 13.5 16.5s12.167 5.5 19.5 5.5c11.333 0 20.666 -3.83301 27.999 -11.5s11 -16.5 11 -26.5c0 -4.66699 -1 -9.33398 -3 -14.001
c-14.667 -32.667 -32.667 -67.834 -54 -105.501s-45.166 -76.834 -71.499 -117.501s-54.666 -82 -84.999 -124s-61.833 -83.333 -94.5 -124c28.667 -33.333 55.5 -74.666 80.5 -123.999s46.5 -102.333 64.5 -159s32.167 -114.334 42.5 -173.001s15.5 -113.667 15.5 -165
c0 -58 -5.66699 -104.333 -17 -139s-25 -61.334 -41 -80.001s-32.667 -30.834 -50 -36.501s-32 -8.5 -44 -8.5c-36.667 0 -65.5 11.5 -86.5 34.5s-37 56.667 -48 101s-18 99.166 -21 164.499s-4.5 140.666 -4.5 225.999c0 56 0.5 112.667 1.5 170s2.5 113.666 4.5 168.999
s4.33301 108.5 7 159.5s5.66699 98.167 9 141.5c-21.333 -32 -45.166 -56.667 -71.499 -74s-55.5 -26 -87.5 -26c-24 0 -45.833 4.66699 -65.5 14s-36.5 22.166 -50.5 38.499s-24.667 35.5 -32 57.5s-11 45.667 -11 71c0 52 8.83301 97.833 26.5 137.5
s40.167 72.834 67.5 99.501s57.5 46.667 90.5 60s64.833 20 95.5 20c20.667 0 39.667 -2.83301 57 -8.5s32 -11.834 44 -18.501s21.5 -12.834 28.5 -18.501s10.833 -8.83398 11.5 -9.50098c7.33301 -6.66699 11 -15.667 11 -27c0 -10 -3.5 -18.833 -10.5 -26.5
s-16.167 -11.5 -27.5 -11.5c-6 0 -10.833 1 -14.5 3s-7.5 4.66699 -11.5 8c-6.66699 5.33301 -16.5 12.333 -29.5 21s-32.167 13 -57.5 13c-20 0 -42 -4.5 -66 -13.5s-46.333 -23.167 -67 -42.5s-38 -44.166 -52 -74.499s-21 -66.833 -21 -109.5
c0 -30.667 6.83301 -56.167 20.5 -76.5s35.5 -30.5 65.5 -30.5c14.667 0 30.834 4.83301 48.501 14.5s34.667 24.167 51 43.5s31 43.333 44 72s22.167 62 27.5 100c1.33301 9.33301 5.66602 17.166 12.999 23.499s15.666 9.5 24.999 9.5c10.667 0 19.5 -3.83301 26.5 -11.5
s10.5 -16.5 10.5 -26.5c0 -1.33301 -0.833008 -12.833 -2.5 -34.5l-6.5 -86l-9 -123.5c-3.33301 -46.667 -6.33301 -96 -9 -148zM393 -271.989c-0.666992 -20.667 -1.16602 -40.668 -1.49902 -60.001s-0.5 -38.333 -0.5 -57c0 -86 0.333008 -166.167 1 -240.5
s3.5 -139 8.5 -194s13.333 -98.333 25 -130s28.167 -47.5 49.5 -47.5c17.333 0 31.166 7.5 41.499 22.5s18.166 32.833 23.499 53.5s8.83301 41.834 10.5 63.501s2.5 39.167 2.5 52.5c0 44.667 -4.16699 92 -12.5 142s-19.666 99.333 -33.999 148s-31.333 94.5 -51 137.5
s-40.5 79.5 -62.5 109.5z" />
    <glyph glyph-name="r" unicode="r" horiz-adv-x="621" 
d="M143 411c-2.66699 -18 -5.99316 -34.8311 -9.99316 -50.498s-7.83301 -29.334 -11.5 -41.001s-6.83398 -21.167 -9.50098 -28.5s-4.33398 -11.333 -5.00098 -12c-6.66699 -15.333 -18.334 -23 -35.001 -23c-9.33301 0 -18 3.5 -26 10.5s-12 15.833 -12 26.5
c0 4 0.666992 7 2 9s3.33301 6 6 12s6 16 10 30s9 35.667 15 65c-11.333 0 -23 0.333008 -35 1s-23.167 3 -33.5 7s-18.833 10.333 -25.5 19s-10 20.667 -10 36c0 11.333 3.16699 26.666 9.5 45.999s14.833 38.333 25.5 57s22.667 34.834 36 48.501s26.666 20.5 39.999 20.5
c15.333 0 27.833 -5.66699 37.5 -17s17.167 -25.166 22.5 -41.499s9.16602 -33.5 11.499 -51.5s3.5 -33.667 3.5 -47c11.333 0 22.5 0.166992 33.5 0.5s21.5 0.5 31.5 0.5c38 0 67 -8.33301 87 -25s30 -44 30 -82c0 -15.333 -1 -31.333 -3 -48s-4.33301 -33.834 -7 -51.501
s-5 -35.167 -7 -52.5s-3 -34.333 -3 -51c0 -24 3.33301 -43.833 10 -59.5s15 -28.167 25 -37.5s20.667 -15.833 32 -19.5s21.666 -5.5 30.999 -5.5c28.667 0 55.667 9.33301 81 28s48.666 41.167 69.999 67.5s40.5 54.166 57.5 83.499s31.167 55 42.5 77
c3.33301 6 8 10.667 14 14s12.333 5 19 5c12 0 21.333 -3.83301 28 -11.5s10 -16.167 10 -25.5c0 -6.66699 -1.33301 -12.667 -4 -18l-53.5 -92.5c-20.333 -34.333 -43.5 -66.5 -69.5 -96.5s-55.167 -55.333 -87.5 -76s-67.833 -31 -106.5 -31c-24 0 -46.667 4.5 -68 13.5
s-39.833 22 -55.5 39s-28.167 38 -37.5 63s-14 53.167 -14 84.5c0 33.333 3.33301 66.5 10 99.5s10 64.5 10 94.5c0 12.667 -2.83301 22.167 -8.5 28.5s-18.167 9.5 -37.5 9.5h-30.5c-11 0 -22.833 -0.333008 -35.5 -1zM76.0068 485.002
c0 4.66699 -0.166992 10.834 -0.5 18.501s-1 15.167 -2 22.5s-2.33301 13.666 -4 18.999s-3.5 8 -5.5 8s-4.5 -2.5 -7.5 -7.5s-6.16699 -11 -9.5 -18s-6.33301 -14.5 -9 -22.5s-4.66699 -14.667 -6 -20h44z" />
    <glyph glyph-name="s" unicode="s" horiz-adv-x="520" 
d="M149 370c-4 -10.667 -8.83496 -22.6738 -14.502 -36.0068s-12.167 -27.333 -19.5 -42c-6 -11.333 -12.167 -20.166 -18.5 -26.499s-14.5 -9.5 -24.5 -9.5c-11.333 0 -20.333 3.5 -27 10.5s-10 15.167 -10 24.5c0 3.33301 0.333008 6.16602 1 8.49902
s2.33398 6.16602 5.00098 11.499c17.333 33.333 30.166 62.5 38.499 87.5s15.166 51.167 20.499 78.5c-4.66699 15.333 -8 28.333 -10 39s-3 21.667 -3 33c0 22 4.66699 39.833 14 53.5s22.333 20.5 39 20.5c15.333 0 27.5 -6.66699 36.5 -20s13.5 -29.666 13.5 -48.999
c0 -10.667 -1 -21.334 -3 -32.001s-4.66699 -24 -8 -40c15.333 -38 30.666 -71.667 45.999 -101l41 -80.5c12 -24.333 21.833 -47.166 29.5 -68.499s11.5 -42.666 11.5 -63.999c0 -28 -5.66699 -54.667 -17 -80s-30 -46.666 -56 -63.999
c3.33301 -0.666992 6.66602 -1 9.99902 -1h10c38 0 73 8.66699 105 26s60.833 39.833 86.5 67.5s48.5 58.334 68.5 92.001s37.333 67.167 52 100.5c6.66699 15.333 16 23 28 23c11.333 0 20.166 -4 26.499 -12s9.5 -16.667 9.5 -26c0 -5.33301 -1 -10.333 -3 -15
c-7.33301 -18 -16.833 -38.5 -28.5 -61.5s-25.667 -46.667 -42 -71s-35.166 -48.166 -56.499 -71.499s-45.166 -44.166 -71.499 -62.499s-55.166 -33 -86.499 -44s-65.666 -16.5 -102.999 -16.5c-44.667 0 -86.167 7.83301 -124.5 23.5s-69.5 41.5 -93.5 77.5
c-4 6 -6 12.333 -6 19c0 10 3.83301 18.833 11.5 26.5s16.5 11.5 26.5 11.5c10.667 0 19.667 -3.66699 27 -11c0.666992 -1.33301 3 -3.5 7 -6.5s8.83301 -6.33301 14.5 -10s12.334 -6.83398 20.001 -9.50098s15.5 -4 23.5 -4c16 0 29.5 3.33301 40.5 10
s19.833 14.834 26.5 24.501s11.5 20 14.5 31s4.5 20.5 4.5 28.5c0 16.667 -2.66699 33.334 -8 50.001s-12.166 33.334 -20.499 50.001l-27 51.5c-9.66699 17.667 -18.5 36.167 -26.5 55.5z" />
    <glyph glyph-name="t" unicode="t" horiz-adv-x="478" 
d="M848 1001c0 -10.667 -3.66895 -19.166 -11.002 -25.499s-16.333 -9.5 -27 -9.5h-507v-11c0 -40.667 -3 -84 -9 -130s-14.167 -91.833 -24.5 -137.5s-22 -90.167 -35 -133.5s-26.333 -83.333 -40 -120s-27.167 -68.5 -40.5 -95.5s-25.333 -47.167 -36 -60.5
c8.66699 -30.667 19 -59.167 31 -85.5s25.5 -49.333 40.5 -69s31.167 -35.167 48.5 -46.5s36 -17 56 -17c23.333 0 46.5 9.83301 69.5 29.5s44.333 43 64 70s37 54.333 52 82s25.833 49.834 32.5 66.501c6.66699 16 18.334 24 35.001 24c11.333 0 20.5 -4 27.5 -12
s10.5 -16.667 10.5 -26c0 -4.66699 -1 -9.33398 -3 -14.001s-6.83301 -15.334 -14.5 -32.001s-17.667 -36 -30 -58s-26.666 -45.167 -42.999 -69.5s-34.666 -46.5 -54.999 -66.5s-42.166 -36.667 -65.499 -50s-48 -20 -74 -20c-46 0 -87.333 15 -124 45
s-67.834 72 -93.501 126s-45.167 118 -58.5 192s-20 155 -20 243c0 22 0.333008 47.833 1 77.5s2 61 4 94s5 67 9 102s9.33301 69.167 16 102.5h-359c-10.667 0 -19.667 3.16699 -27 9.5s-11 14.833 -11 25.5s3.66699 19.167 11 25.5s16.333 9.5 27 9.5h376
c6.66699 24 14.5 46 23.5 66s19.333 37.333 31 52s24.667 26.167 39 34.5s30.166 12.5 47.499 12.5c16.667 0 31.167 -4.16699 43.5 -12.5s22.833 -19.833 31.5 -34.5s15.5 -32 20.5 -52s8.83301 -42 11.5 -66h511c10.667 0 19.667 -3.16699 27 -9.5s11 -14.833 11 -25.5z
M94.998 378.001c20 44 38.167 91.5 54.5 142.5s30.333 102.5 42 154.5s20.667 103 27 153s9.5 96 9.5 138h-118c-9.33301 -41.333 -16.833 -92.5 -22.5 -153.5s-8.5 -135.167 -8.5 -222.5c0 -48.667 1.33301 -89.5 4 -122.5s6.66699 -62.833 12 -89.5zM187.998 1126
c-6 0 -14.6689 -6.5 -26.002 -19.5s-22.666 -36.5 -33.999 -70.5h96c-3.33301 28 -8.16602 50 -14.499 66s-13.5 24 -21.5 24zM110.996 306.001v-1v1z" />
    <glyph glyph-name="u" unicode="u" horiz-adv-x="717" 
d="M370 112c-23.333 -38 -50.498 -68 -81.498 -90s-62.167 -33 -93.5 -33c-25.333 0 -48 4.66699 -68 14s-37.333 22.5 -52 39.5s-25.834 37.5 -33.501 61.5s-11.5 51 -11.5 81c0 46.667 4.5 88 13.5 124s18.833 66.167 29.5 90.5s20.667 42.833 30 55.5l14 19
c3.33301 4 7.5 7 12.5 9s10.167 3 15.5 3c10.667 0 19.5 -3.83301 26.5 -11.5s10.5 -16.5 10.5 -26.5c0 -4 -0.833008 -8 -2.5 -12s-3.5 -8 -5.5 -12l-16 -27.5c-7.33301 -12.333 -15 -28.5 -23 -48.5s-15 -43.5 -21 -70.5s-9 -57.833 -9 -92.5
c0 -39.333 7.83301 -69.166 23.5 -89.499s37.834 -30.5 66.501 -30.5c12 0 25.833 3.83301 41.5 11.5s31 19.5 46 35.5s28.167 36.333 39.5 61s18.666 53.667 21.999 87l15 172c1.33301 10 5.66602 18.333 12.999 25s16 10 26 10c11.333 0 20.333 -4.16699 27 -12.5
s10 -17.833 10 -28.5l-13 -166c-1.33301 -14 -0.833008 -32.333 1.5 -55s7.16602 -45 14.499 -67s18.333 -40.833 33 -56.5s34 -23.5 58 -23.5c17.333 0 34.333 4.5 51 13.5s32.667 20.833 48 35.5s29.5 31.167 42.5 49.5s25 36.833 36 55.5s20.5 36.5 28.5 53.5l20 43.5
c3.33301 7.33301 8 13 14 17s12.667 6 20 6c12 0 21.333 -4 28 -12s10 -16.667 10 -26c0 -5.33301 -1 -10.333 -3 -15c-2.66699 -5.33301 -7.83398 -16.5 -15.501 -33.5s-17.667 -36.333 -30 -58s-27.166 -44.5 -44.499 -68.5s-36.666 -46.167 -57.999 -66.5
s-44.5 -37 -69.5 -50s-51.833 -19.5 -80.5 -19.5c-39.333 0 -72 11.167 -98 33.5s-45.333 54.166 -58 95.499z" />
    <glyph glyph-name="v" unicode="v" horiz-adv-x="678" 
d="M443 315c-10 -46.667 -24.333 -90.167 -43 -130.5s-38.5 -75.5 -59.5 -105.5s-42.167 -53.667 -63.5 -71s-39.666 -26.666 -54.999 -27.999c-17.333 0 -36.5 8.66699 -57.5 26s-41 41.5 -60 72.5s-34.833 67.833 -47.5 110.5s-19 89 -19 139
c0 44 3.83301 77.333 11.5 100s12.5 35.667 14.5 39c3.33301 6 7.83301 10.667 13.5 14s12.167 5 19.5 5c11.333 0 20.333 -3.83301 27 -11.5s10 -16.167 10 -25.5c0 -6.66699 -1.33301 -12.334 -4 -17.001c-0.666992 -1.33301 -3.66699 -10.333 -9 -27s-8 -41.667 -8 -75
c0 -39.333 4 -75.666 12 -108.999s17.667 -62 29 -86s23.166 -42.833 35.499 -56.5s22.5 -20.5 30.5 -20.5c5.33301 0 13.166 5 23.499 15s21.333 23.667 33 41s23.667 38 36 62s23.666 50.167 33.999 78.5s18.666 58.333 24.999 90s9.5 63.834 9.5 96.501
c0 6.66699 -0.166992 13.167 -0.5 19.5s-0.5 12.833 -0.5 19.5c0 11.333 3.5 20.833 10.5 28.5s16.167 11.5 27.5 11.5c8.66699 0 16.5 -2.66699 23.5 -8s11.5 -12.666 13.5 -21.999c0 0.666992 1.33301 -4.66602 4 -15.999s7.16699 -25.833 13.5 -43.5
s14.333 -36.834 24 -57.501s21.334 -39.834 35.001 -57.501s29.5 -32.5 47.5 -44.5s38.667 -18 62 -18c12.667 0 23.667 2.66699 33 8s17 11.333 23 18s10.5 13 13.5 19s4.5 9.33301 4.5 10c2.66699 7.33301 7.16699 13.166 13.5 17.499s13.5 6.5 21.5 6.5
c10.667 0 19.667 -3.83301 27 -11.5s11 -16.5 11 -26.5c0 -4.66699 -1 -9.33398 -3 -14.001c-4 -9.33301 -9.83301 -20 -17.5 -32s-17.5 -23.333 -29.5 -34s-26.167 -19.5 -42.5 -26.5s-34.5 -10.5 -54.5 -10.5c-23.333 0 -45 4.16699 -65 12.5s-38.167 19 -54.5 32
s-31.166 27.667 -44.499 44s-24.666 32.833 -33.999 49.5z" />
    <glyph glyph-name="w" unicode="w" horiz-adv-x="949" 
d="M739 278c-2 -34.667 -6.6748 -69.501 -14.0078 -104.501s-18.833 -66.5 -34.5 -94.5s-36.167 -50.833 -61.5 -68.5s-56.666 -26.5 -93.999 -26.5c-23.333 0 -43.833 3.5 -61.5 10.5s-33 16.333 -46 28s-23.833 25 -32.5 40s-16 30.833 -22 47.5
c-23.333 -38.667 -50.833 -68.5 -82.5 -89.5s-63.167 -31.5 -94.5 -31.5c-25.333 0 -48.166 4.66699 -68.499 14s-37.666 22.5 -51.999 39.5s-25.5 37.5 -33.5 61.5s-12 51 -12 81c0 50 4.5 93.167 13.5 129.5s19 66.166 30 89.499s21.167 40.833 30.5 52.5l14 17.5
c3.33301 4 7.5 7 12.5 9s10.167 3 15.5 3c10.667 0 19.5 -3.83301 26.5 -11.5s10.5 -16.5 10.5 -26.5c0 -7.33301 -2.66699 -15.333 -8 -24l-15.5 -23c-7.66699 -11.333 -15.5 -26.666 -23.5 -45.999s-15.167 -43 -21.5 -71s-9.5 -61 -9.5 -99
c0 -39.333 8 -69.166 24 -89.499s38.333 -30.5 67 -30.5c14 0 29.333 3.83301 46 11.5s32.334 19.5 47.001 35.5s27.334 36.333 38.001 61s17.334 53.667 20.001 87l13 172c0.666992 10 4.83398 18.333 12.501 25s16.5 10 26.5 10c11.333 0 20.333 -4.16699 27 -12.5
s10 -17.833 10 -28.5l-11 -165c-2 -35.333 -0.833008 -65.666 3.5 -90.999s11.5 -46.166 21.5 -62.499s22.333 -28.333 37 -36s31 -11.5 49 -11.5c24 0 44.333 7 61 21s30 33 40 57s17.167 51.833 21.5 83.5s6.5 65.167 6.5 100.5c0 42 -2.33301 77 -7 105s-7 46.667 -7 56
c0 10 3.66699 18.833 11 26.5s16.333 11.5 27 11.5c9.33301 0 17.333 -2.83301 24 -8.5s11 -13.167 13 -22.5l6 -23c3.33301 -12.667 8 -27.834 14 -45.501s13.833 -36.334 23.5 -56.001s21.334 -37.834 35.001 -54.501s29.334 -30.5 47.001 -41.5
s37.834 -16.5 60.501 -16.5c12.667 0 23.5 2.5 32.5 7.5s16.5 10.833 22.5 17.5s10.5 13 13.5 19l5.5 11c3.33301 7.33301 8.16602 13.166 14.499 17.499s13.166 6.5 20.499 6.5c11.333 0 20.5 -4.16699 27.5 -12.5s10.5 -17.166 10.5 -26.499c0 -8 -3.5 -18.667 -10.5 -32
s-16.833 -26.166 -29.5 -38.499s-28.167 -23 -46.5 -32s-38.5 -13.5 -60.5 -13.5c-19.333 0 -37.333 2.83301 -54 8.5s-32.167 13.167 -46.5 22.5s-27.5 20 -39.5 32s-23 24.667 -33 38z" />
    <glyph glyph-name="x" unicode="x" horiz-adv-x="753" 
d="M634 566c-102.667 -126.667 -196.339 -259.997 -281.006 -399.997c23.333 -34.667 49 -63.334 77 -86.001s59.667 -34 95 -34c31.333 0 61 9 89 27s53.5 40.167 76.5 66.5s43 54.666 60 84.999s30.167 57.833 39.5 82.5c6.66699 16.667 18.334 25 35.001 25
c11.333 0 20.5 -3.83301 27.5 -11.5s10.5 -16.5 10.5 -26.5c0 -3.33301 -0.666992 -7.66602 -2 -12.999c0.666992 1.33301 -2.33301 -5.33398 -9 -20.001s-16.667 -33.5 -30 -56.5s-29.666 -48.167 -48.999 -75.5s-41.5 -52.833 -66.5 -76.5s-52.833 -43.334 -83.5 -59.001
s-63.667 -23.5 -99 -23.5c-44 0 -83.5 11.667 -118.5 35s-66.5 53 -94.5 89l-33 -60l-32 -60c-7.33301 -14 -18.666 -21 -33.999 -21c-11.333 0 -20.5 4 -27.5 12s-10.5 16.667 -10.5 26c0 5.33301 1.66699 11.333 5 18l41 78c14 26 28.667 51.667 44 77
c-22.667 39.333 -42 79.5 -58 120.5s-28.667 79.5 -38 115.5l-59 -122c-7.33301 -14.667 -18.666 -22 -33.999 -22c-11.333 0 -20.5 4 -27.5 12s-10.5 16.667 -10.5 26c0 6 1.33301 11.333 4 16l109 228c3.33301 6 8 11 14 15s12.667 6 20 6
c10.667 0 19.334 -3.5 26.001 -10.5s10.667 -15.5 12 -25.5c0.666992 -9.33301 3.16699 -24 7.5 -44s10.333 -42.833 18 -68.5s16.667 -53.167 27 -82.5s22.5 -58.333 36.5 -87c80 130 168.333 254.333 265 373c6.66699 8.66699 16.334 13 29.001 13
c10.667 0 19.667 -3.66699 27 -11s11 -16 11 -26c0 -9.33301 -3 -17.333 -9 -24z" />
    <glyph glyph-name="y" unicode="y" horiz-adv-x="629" 
d="M410 -14l71.001 71.502c24 24.333 47.333 49.833 70 76.5s43.834 54.5 63.501 83.5s37.167 59.833 52.5 92.5c3.33301 7.33301 8 12.833 14 16.5s12.667 5.5 20 5.5c11.333 0 20.5 -4 27.5 -12s10.5 -17 10.5 -27c0 -5.33301 -1 -10.333 -3 -15
c-20.667 -43.333 -44.334 -83 -71.001 -119s-54.667 -70.167 -84 -102.5l-89 -94c-30 -30.333 -58.667 -60.833 -86 -91.5c-2.66699 -46 -2.66699 -92.167 0 -138.5s4 -95.5 4 -147.5c0 -42.667 -1.33301 -85.334 -4 -128.001s-7 -83.5 -13 -122.5
s-14.167 -75.5 -24.5 -109.5s-23.5 -63.5 -39.5 -88.5s-34.667 -44.667 -56 -59s-46.333 -21.5 -75 -21.5c-47.333 0 -83.666 16.333 -108.999 49s-38 78.334 -38 137.001c0 32 3.5 66.333 10.5 103s16.833 74.5 29.5 113.5s27.834 78.5 45.501 118.5s36.834 79 57.501 117
s42.667 74.167 66 108.5s47 65.5 71 93.5c1.33301 32 2.83301 65.167 4.5 99.5s3.5 66.166 5.5 95.499c-17.333 -30.667 -38.833 -55.334 -64.5 -74.001s-53.834 -28 -84.501 -28c-50.667 0 -90.334 17 -119.001 51s-43 80.667 -43 140c0 43.333 4.16699 82.833 12.5 118.5
s17.333 66.334 27 92.001s18.5 45.334 26.5 59.001s12 20.167 12 19.5c7.33301 11.333 17.666 17 30.999 17c11.333 0 20.5 -3.83301 27.5 -11.5s10.5 -16.5 10.5 -26.5c0 -7.33301 -2 -14 -6 -20c0.666992 0.666992 -2.5 -4.83301 -9.5 -16.5s-14.667 -28.5 -23 -50.5
s-16 -48.333 -23 -79s-10.5 -64.334 -10.5 -101.001s6.66699 -65.334 20 -86.001s35 -31 65 -31c38 0 72.333 28.167 103 84.5s56.667 138.166 78 245.499c1.33301 8.66699 5.33301 15.834 12 21.501s14.667 8.5 24 8.5c10.667 0 19.667 -3.66699 27 -11s11 -16.333 11 -27
c0 -2 -1.33301 -13.833 -4 -35.5s-5.83398 -50.5 -9.50098 -86.5s-7.5 -77.833 -11.5 -125.5s-7.33301 -98.5 -10 -152.5zM330.001 -225.998c-30 -43.333 -57.5 -88.999 -82.5 -136.999s-46.5 -95.667 -64.5 -143s-32 -92.666 -42 -135.999s-15 -82 -15 -116
c0 -34.667 5.66699 -61.834 17 -81.501s29.333 -29.5 54 -29.5c22 0 41.5 10.833 58.5 32.5s31.333 52.5 43 92.5s20.5 88.5 26.5 145.5s9 120.833 9 191.5c0 28.667 -0.5 57.667 -1.5 87s-1.83301 60.666 -2.5 93.999z" />
    <glyph glyph-name="z" unicode="z" horiz-adv-x="735" 
d="M507 -148c4 -54 6.00293 -118.669 6.00293 -194.002c0 -80.667 -5 -154.834 -15 -222.501s-24.667 -126 -44 -175s-43.333 -87.167 -72 -114.5s-61.667 -41 -99 -41c-18.667 0 -36.334 4.33301 -53.001 13s-31.167 21 -43.5 37s-22 35 -29 57s-10.5 46.667 -10.5 74
c0 40.667 4.83301 83.667 14.5 129s25.5 92.666 47.5 141.999s51 100.833 87 154.5s80.333 109.5 133 167.5c-2.66699 28.667 -6.16699 55.334 -10.5 80.001s-9.83301 46 -16.5 64s-14.5 32 -23.5 42s-19.833 15 -32.5 15c-4 0 -8.66699 -0.666992 -14 -2
c-15.333 -18 -29.166 -32 -41.499 -42s-23.5 -17.667 -33.5 -23s-18.5 -8.66602 -25.5 -9.99902s-12.167 -2 -15.5 -2c-11.333 0 -22.166 3.16699 -32.499 9.5s-15.5 18.166 -15.5 35.499c0 6 2.16699 13.667 6.5 23s11.5 19.166 21.5 29.499s23.167 20 39.5 29
s36.166 15.833 59.499 20.5c44 47.333 78.333 90.833 103 130.5s37 76.834 37 111.501c0 30 -9.33301 54 -28 72s-42.334 27 -71.001 27c-40 0 -80 -18.667 -120 -56s-76 -89 -108 -155c-7.33301 -14.667 -19 -22 -35 -22c-11.333 0 -20.333 4 -27 12s-10 16.667 -10 26
c0 6 1.33301 11.333 4 16c39.333 80.667 84.666 143.334 135.999 188.001s105 67 161 67c22.667 0 44.5 -4 65.5 -12s39.5 -19.5 55.5 -34.5s28.667 -33.333 38 -55s14 -46.5 14 -74.5c0 -23.333 -3.16699 -45.833 -9.5 -67.5s-14.833 -42.667 -25.5 -63
s-23 -39.833 -37 -58.5s-28.333 -36.667 -43 -54c18 -8 32.833 -19.333 44.5 -34s21.334 -31 29.001 -49s13.5 -36.667 17.5 -56s7.33301 -38 10 -56l79 87c27.333 30.667 53.666 61.667 78.999 93s48.5 62.166 69.5 92.499s37.5 58.833 49.5 85.5
c3.33301 7.33301 8 12.833 14 16.5s12.667 5.5 20 5.5c11.333 0 20.5 -3.83301 27.5 -11.5s10.5 -16.167 10.5 -25.5c0 -5.33301 -1 -10.333 -3 -15c-14.667 -33.333 -35.334 -69.166 -62.001 -107.499s-55.667 -76.666 -87 -114.999s-63.333 -75.166 -96 -110.499z
M436.003 -228.002c-42 -51.333 -76.667 -99.668 -104 -145.001s-49.166 -88 -65.499 -128s-27.833 -77.167 -34.5 -111.5s-10 -65.833 -10 -94.5c0 -34 6 -61.333 18 -82s26.667 -31 44 -31c23.333 0 44.5 12 63.5 36s35.167 56.833 48.5 98.5s23.666 90.834 30.999 147.501
s11 117.667 11 183c0 17.333 -0.166992 36.833 -0.5 58.5s-0.833008 44.5 -1.5 68.5z" />
    <glyph glyph-name="braceleft" unicode="{" horiz-adv-x="835" 
d="M785 1499c0 -10 -3.33594 -19.0029 -10.0029 -27.0029s-15.667 -12 -27 -12c-5.33301 0 -9.83301 0.833008 -13.5 2.5s-7.16699 3.83398 -10.5 6.50098c-5.33301 4 -15.166 9.66699 -29.499 17s-35.5 11 -63.5 11c-18 0 -38.667 -4.5 -62 -13.5
s-45.666 -23.833 -66.999 -44.5s-39.333 -48.167 -54 -82.5s-22 -76.833 -22 -127.5c0 -43.333 2.66699 -84 8 -122s11.166 -73.167 17.499 -105.5l17.5 -87.5c5.33301 -26 8 -48.333 8 -67c0 -24.667 -4 -46.834 -12 -66.501s-18.333 -37 -31 -52
s-26.334 -27.5 -41.001 -37.5s-28.667 -17.333 -42 -22c14 -10 27.833 -21.667 41.5 -35s25.834 -28.166 36.501 -44.499s19.334 -34.5 26.001 -54.5s10 -41.667 10 -65c0 -35.333 -4.16699 -74.666 -12.5 -117.999s-17.333 -87.333 -27 -132s-18.667 -88.334 -27 -131.001
s-12.5 -81 -12.5 -115c0 -17.333 2.16699 -30.833 6.5 -40.5s9.5 -17 15.5 -22s12.333 -8 19 -9s12.334 -1.5 17.001 -1.5c10.667 0 19.667 2.16699 27 6.5s13.666 9.16602 18.999 14.499s10.666 10.166 15.999 14.499s12 6.5 20 6.5c11.333 0 20.5 -4 27.5 -12
s10.5 -16.667 10.5 -26c0 -12 -4.16699 -23 -12.5 -33s-18.666 -18.5 -30.999 -25.5s-25.5 -12.333 -39.5 -16s-26.667 -5.5 -38 -5.5c-18.667 0 -36.167 3.33301 -52.5 10s-30.5 16.334 -42.5 29.001s-21.333 28.334 -28 47.001s-10 40 -10 64
c0 30.667 4.16699 67.334 12.5 110.001s17.5 86.5 27.5 131.5s19.167 89.167 27.5 132.5s12.5 81.666 12.5 114.999c0 22.667 -4.5 43.334 -13.5 62.001s-20.167 35.167 -33.5 49.5s-27.666 26.666 -42.999 36.999s-29.833 18.833 -43.5 25.5s-25.167 11.667 -34.5 15
s-14.333 5 -15 5c-8.66699 2.66699 -15.334 7.33398 -20.001 14.001s-7 14 -7 22c0 11.333 3.66699 20.5 11 27.5s16 10.5 26 10.5c4 0 8.33301 -0.833008 13 -2.5s15.334 -2.5 32.001 -2.5c16 0 32.333 2.66699 49 8s31.667 13.166 45 23.499s24.333 22.833 33 37.5
s13 31.334 13 50.001c0 16.667 -2.66699 37 -8 61s-11.166 51.833 -17.499 83.5s-12.166 67.334 -17.499 107.001s-8 83.834 -8 132.501c0 64 10 117.833 30 161.5s44.333 79 73 106s59 46.333 91 58s60 17.5 84 17.5c21.333 0 40.666 -2.33301 57.999 -7
s32.166 -9.66699 44.499 -15s22 -10.333 29 -15s10.833 -7.33398 11.5 -8.00098c8.66699 -8 13 -17.667 13 -29z" />
    <glyph glyph-name="bar" unicode="|" 
d="M291 -136c0 -10 -3.66797 -18.6709 -11.001 -26.0039s-16 -11 -26 -11c-10.667 0 -19.667 3.5 -27 10.5s-11 16.167 -11 27.5v23.5c0 15 0.166992 35.5 0.5 61.5s0.5 56.333 0.5 91v112v124.5c0 43 -0.166992 85.667 -0.5 128s-0.833008 83.5 -1.5 123.5
s-1.33398 76.667 -2.00098 110c-0.666992 44.667 -1.83398 96 -3.50098 154l-5 178.5c-1.66699 61 -3.5 120.833 -5.5 179.5s-3.66699 111.167 -5 157.5s-2.5 83.833 -3.5 112.5s-1.5 43.334 -1.5 44.001c0 10.667 3.33301 19.834 10 27.501s15.334 11.5 26.001 11.5
s19.834 -3.16699 27.501 -9.5s11.5 -15.166 11.5 -26.499c0 -1.33301 0.5 -16.333 1.5 -45l4 -112.5l5.5 -157.5c2 -58.667 3.83301 -118.5 5.5 -179.5l5 -178.5c1.66699 -58 2.83398 -109.333 3.50098 -154c0.666992 -30.667 1.16699 -64 1.5 -100l1 -111.5
c0.333008 -38.333 0.5 -77.166 0.5 -116.499v-116v-128c0 -40 -0.166992 -75 -0.5 -105s-0.5 -54 -0.5 -72v-28z" />
    <glyph glyph-name="braceright" unicode="}" horiz-adv-x="835" 
d="M50 -101c0 10 3.33691 19 10.0039 27s15.667 12 27 12c5.33301 0 9.83301 -0.833008 13.5 -2.5s7.16699 -3.83398 10.5 -6.50098c5.33301 -4 15.166 -9.66699 29.499 -17s35.5 -11 63.5 -11c18 0 38.667 4.5 62 13.5s45.666 23.833 66.999 44.5s39.333 48.167 54 82.5
s22 76.833 22 127.5c0 43.333 -2.66699 84 -8 122s-11.166 73.167 -17.499 105.5l-17.5 87c-5.33301 25.667 -8 48.167 -8 67.5c0 24.667 4 46.834 12 66.501s18.333 37 31 52s26.334 27.333 41.001 37s28.667 17.167 42 22.5c-14 10 -27.833 21.667 -41.5 35
s-25.834 28.166 -36.501 44.499s-19.334 34.5 -26.001 54.5s-10 41.667 -10 65c0 35.333 4.16699 74.666 12.5 117.999s17.333 87.333 27 132s18.667 88.334 27 131.001s12.5 81 12.5 115c0 17.333 -2.16699 30.833 -6.5 40.5s-9.5 17 -15.5 22s-12.333 8 -19 9
s-12.334 1.5 -17.001 1.5c-11.333 0 -20.5 -2.16699 -27.5 -6.5s-13.167 -9.16602 -18.5 -14.499s-10.666 -10.166 -15.999 -14.499s-12 -6.5 -20 -6.5c-11.333 0 -20.5 4 -27.5 12s-10.5 16.667 -10.5 26c0 12 4.16699 22.833 12.5 32.5s18.666 18 30.999 25
s25.5 12.5 39.5 16.5s26.667 6 38 6c18.667 0 36.167 -3.33301 52.5 -10s30.5 -16.334 42.5 -29.001s21.333 -28.334 28 -47.001s10 -40 10 -64c0 -20.667 -2 -44 -6 -70s-9 -53.5 -15 -82.5l-19 -89l-19 -89.5c-6 -29.333 -11 -57.5 -15 -84.5s-6 -51.5 -6 -73.5
c0 -23.333 4.5 -44.166 13.5 -62.499s20.167 -34.666 33.5 -48.999s27.666 -26.666 42.999 -36.999s29.833 -18.833 43.5 -25.5s25.167 -11.667 34.5 -15s14.333 -5 15 -5c8.66699 -2.66699 15.334 -7.33398 20.001 -14.001s7 -14 7 -22c0 -11.333 -3.66699 -20.5 -11 -27.5
s-16 -10.5 -26 -10.5c-4 0 -8.33301 0.833008 -13 2.5s-15.334 2.5 -32.001 2.5c-16 0 -32.333 -2.66699 -49 -8s-31.667 -13.166 -45 -23.499s-24.333 -22.833 -33 -37.5s-13 -31.334 -13 -50.001c0 -17.333 2.66699 -37.833 8 -61.5s11.166 -51.334 17.499 -83.001
s12.166 -67.334 17.499 -107.001s8 -83.834 8 -132.501c0 -64 -10 -117.833 -30 -161.5s-44.333 -79 -73 -106s-59 -46.333 -91 -58s-60 -17.5 -84 -17.5c-21.333 0 -40.666 2.16699 -57.999 6.5s-32.166 9.33301 -44.499 15s-22 10.834 -29 15.501
s-10.833 7.33398 -11.5 8.00098c-8.66699 8 -13 17.667 -13 29z" />
    <glyph glyph-name="asciitilde" unicode="~" horiz-adv-x="750" 
d="M598 795c11.333 0 21.998 -4.49707 31.998 -13.4971s18.667 -20 26 -33s13.166 -26.667 17.499 -41s6.5 -26.833 6.5 -37.5c0 -22 -3.83301 -43.5 -11.5 -64.5s-18.834 -39.667 -33.501 -56s-32.667 -29.333 -54 -39s-45.333 -14.5 -72 -14.5s-49.334 5.5 -68.001 16.5
s-34.834 24.5 -48.501 40.5s-25.834 33.667 -36.501 53s-21.667 37 -33 53s-23.666 29.5 -36.999 40.5s-29.666 16.5 -48.999 16.5c-7.33301 0 -16.166 -1.83301 -26.499 -5.5s-20.166 -10.334 -29.499 -20.001s-17.5 -22.834 -24.5 -39.501s-10.5 -38 -10.5 -64
c0 -10.667 0.5 -19.834 1.5 -27.501s1.5 -13.167 1.5 -16.5c0 -10 -3.5 -18.833 -10.5 -26.5s-16.167 -11.5 -27.5 -11.5c-16 0 -26.833 5.83301 -32.5 17.5s-8.5 32.834 -8.5 63.501s4.5 58.5 13.5 83.5s21.333 46.5 37 64.5s33.5 32 53.5 42s41 15 63 15
c28.667 0 53.167 -5.5 73.5 -16.5s37.833 -24.5 52.5 -40.5s27.834 -33.667 39.501 -53s23.167 -37 34.5 -53s23.833 -29.5 37.5 -40.5s29.834 -16.5 48.501 -16.5c16.667 0 30.334 3.33301 41.001 10s19 15 25 25s10.167 20.5 12.5 31.5s3.5 21.167 3.5 30.5
c0 10 -2.33301 18.833 -7 26.5s-9.66699 15 -15 22l-15 20c-4.66699 6.33301 -7 13.166 -7 20.499c0 10.667 3.66699 19.667 11 27s16 11 26 11z" />
    <glyph glyph-name="nonbreakingspace" unicode="&#xa0;" horiz-adv-x="450" 
 />
    <glyph glyph-name="exclamdown" unicode="&#xa1;" horiz-adv-x="535" 
d="M233 593c0.666992 10 4.5 18.5 11.5 25.5s15.833 10.5 26.5 10.5h1c10.667 0 19.5 -3.83301 26.5 -11.5s10.167 -16.834 9.5 -27.501l-33 -1132c-0.666992 -10.667 -4.66699 -19.667 -12 -27s-16.333 -10.666 -27 -9.99902s-19.5 4.66699 -26.5 12s-10.5 16.333 -10.5 27
zM226 836c0 15.333 5.16699 28.166 15.5 38.499s23.166 15.5 38.499 15.5s28.166 -5.16699 38.499 -15.5s15.5 -23.166 15.5 -38.499s-5.16699 -28.166 -15.5 -38.499s-23.166 -15.5 -38.499 -15.5s-28.166 5.16699 -38.499 15.5s-15.5 23.166 -15.5 38.499z" />
    <glyph glyph-name="cent" unicode="&#xa2;" horiz-adv-x="959" 
d="M542 1089c44.667 -1.33301 86.4971 -7.66895 125.497 -19.002s73 -27 102 -47s52 -43.833 69 -71.5s25.5 -58.167 25.5 -91.5c0 -32.667 -7.5 -63.5 -22.5 -92.5s-35.333 -54.167 -61 -75.5s-55.5 -38.333 -89.5 -51s-70 -19 -108 -19c-31.333 0 -59.333 4 -84 12
s-45.334 19.167 -62.001 33.5s-29.334 31.166 -38.001 50.499s-13 40.333 -13 63c0 18.667 2.83301 35.667 8.5 51s12 28.333 19 39s13.667 19.167 20 25.5l10.5 10.5c3.33301 3.33301 7.16602 5.5 11.499 6.5s8.5 1.5 12.5 1.5c10 0 18.833 -3.33301 26.5 -10
s11.5 -15.667 11.5 -27s-4 -21 -12 -29c-5.33301 -5.33301 -12.166 -13 -20.499 -23s-12.5 -25 -12.5 -45c0 -18 4 -32.333 12 -43s18.167 -19 30.5 -25s25.666 -10 39.999 -12s27.833 -3 40.5 -3c28.667 0 55.334 4.5 80.001 13.5s46.334 21 65.001 36
s33.334 32.167 44.001 51.5s16 39.333 16 60c0 23.333 -6.83301 44.5 -20.5 63.5s-32.334 35.333 -56.001 49s-51 24.167 -82 31.5s-63.833 11 -98.5 11c-21.333 0 -45.833 -2.5 -73.5 -7.5s-56.167 -13.167 -85.5 -24.5s-58.166 -25.833 -86.499 -43.5
s-53.666 -39.334 -75.999 -65.001s-40.333 -55.5 -54 -89.5s-20.5 -72.667 -20.5 -116c0 -56 11.5 -102.667 34.5 -140s52 -67 87 -89s73.667 -37.667 116 -47s82.5 -14 120.5 -14s74.833 5.33301 110.5 16s68.5 24.5 98.5 41.5s56.667 36.5 80 58.5s42 44 56 66
c7.33301 11.333 18 17 32 17c11.333 0 20.333 -4 27 -12s10 -16.667 10 -26c0 -3.33301 -0.333008 -6.5 -1 -9.5s-2 -6.16699 -4 -9.5c-19.333 -31.333 -43.666 -60 -72.999 -86s-61.666 -48.667 -96.999 -68s-72.5 -34.666 -111.5 -45.999s-77.5 -17.333 -115.5 -18
l-11 -276c-0.666992 -10 -4.66699 -18.5 -12 -25.5s-16 -10.5 -26 -10.5h-2c-10.667 0.666992 -19.5 4.83398 -26.5 12.501s-10.167 16.834 -9.5 27.501l12 275c-48.667 5.33301 -95.334 16.5 -140.001 33.5s-84 40.5 -118 70.5s-61.167 66.333 -81.5 109
s-30.5 92.667 -30.5 150c-0.666992 54.667 10 105.834 32 153.501s51.667 89.834 89 126.501s80.5 66.667 129.5 90s100.5 38.666 154.5 45.999l13 298c0.666992 10.667 4.83398 19.5 12.501 26.5s16.834 10.167 27.501 9.5c10 -0.666992 18.667 -4.66699 26 -12
s10.666 -16.333 9.99902 -27z" />
    <glyph glyph-name="sterling" unicode="&#xa3;" horiz-adv-x="971" 
d="M604 682c0 -10 -3.33398 -18.502 -10.001 -25.502s-15.667 -10.5 -27 -10.5l-161 -2c4 -19.333 7.33301 -39.166 10 -59.499s4 -40.5 4 -60.5c0 -29.333 -3.33301 -56 -10 -80c26 -19.333 51 -40.166 75 -62.499s48.333 -43.166 73 -62.499s50.834 -35.5 78.501 -48.5
s58.5 -19.5 92.5 -19.5c26 0 47.333 3 64 9s30.167 13.167 40.5 21.5s18.333 17 24 26s10.167 16.833 13.5 23.5c3.33301 5.33301 7.83301 9.5 13.5 12.5s11.834 4.5 18.501 4.5c11.333 0 20.5 -3.33301 27.5 -10s10.5 -14.667 10.5 -24c0 -5.33301 -2.33301 -15.333 -7 -30
s-14.5 -29.834 -29.5 -45.501s-36.5 -29.5 -64.5 -41.5s-65 -18 -111 -18c-39.333 0 -74.833 6.5 -106.5 19.5s-61.167 29.333 -88.5 49s-53.333 41 -78 64s-49.334 44.167 -74.001 63.5c-17.333 -28 -39.833 -50.667 -67.5 -68s-61.5 -26 -101.5 -26
c-9.33301 0 -22 1.16699 -38 3.5s-31.667 7.5 -47 15.5s-28.833 19.167 -40.5 33.5s-17.5 33.5 -17.5 57.5c0 22 5 40.833 15 56.5s22.5 28.334 37.5 38.001s31.5 16.667 49.5 21s35 6.5 51 6.5c22.667 0 44 -2.33301 64 -7s38.667 -11.334 56 -20.001
c2.66699 12.667 4 28.334 4 47.001c0 15.333 -1.5 32.5 -4.5 51.5s-6.5 38.5 -10.5 58.5l-147 -1c-10.667 0 -19.667 3.16699 -27 9.5s-11 14.833 -11 25.5s3.5 19.334 10.5 26.001s15.833 10 26.5 10l131 1c-6 26 -11.167 51.167 -15.5 75.5s-6.5 46.166 -6.5 65.499
c0 50 8.16699 93.667 24.5 131s37.833 68.5 64.5 93.5s57.167 43.667 91.5 56s69.833 18.5 106.5 18.5c34 0 64.667 -4.83301 92 -14.5s50.833 -22.667 70.5 -39s34.667 -35.5 45 -57.5s15.5 -45.333 15.5 -70c0 -16 -1.66699 -32.5 -5 -49.5s-8.33301 -32.5 -15 -46.5
s-14.5 -25.333 -23.5 -34s-19.5 -13 -31.5 -13c-9.33301 0 -17.833 3.33301 -25.5 10s-11.5 15.667 -11.5 27c0 8.66699 1.83301 15.5 5.5 20.5l12.5 16.5c4.66699 6 8.83398 13.5 12.501 22.5s5.5 21.833 5.5 38.5c0 12.667 -3 26 -9 40s-15.167 26.5 -27.5 37.5
s-27.833 20.167 -46.5 27.5s-40.334 11 -65.001 11c-32 0 -61 -5.33301 -87 -16s-48.167 -26 -66.5 -46s-32.5 -44.167 -42.5 -72.5s-15 -59.833 -15 -94.5c0 -20 2.16699 -41.5 6.5 -64.5s9.5 -47.167 15.5 -72.5l176 3c10 0 18.833 -3.33301 26.5 -10
s11.5 -15.334 11.5 -26.001zM211.999 351.998c21.333 0 41.501 5.33301 60.501 16s34.833 26.667 47.5 48c-15.333 8 -31.333 14.5 -48 19.5s-34.334 7.5 -53.001 7.5c-6.66699 0 -14.334 -0.833008 -23.001 -2.5s-16.667 -4.33398 -24 -8.00098
s-13.666 -8.66699 -18.999 -15s-8 -14.166 -8 -23.499c0 -16 6.83301 -27 20.5 -33s29.167 -9 46.5 -9z" />
    <glyph glyph-name="currency" unicode="&#xa4;" horiz-adv-x="528" 
d="M455 537c-7.33301 -8 -15.6709 -11.998 -25.0039 -11.998c-8 0 -15.333 2.66699 -22 8l-65 56c-11.333 -7.33301 -23.333 -13 -36 -17s-26 -6 -40 -6c-16 0 -31.167 2.5 -45.5 7.5s-27.166 12.167 -38.499 21.5l-80 -59c-5.33301 -4.66699 -12 -7 -20 -7
c-9.33301 0 -17.166 3.16699 -23.499 9.5s-9.5 14.166 -9.5 23.499c0 10.667 4.66699 19.667 14 27l79 59c-7.33301 16.667 -11 34.334 -11 53.001c0 20 4.33301 39.667 13 59l-67 59c-7.33301 5.33301 -11 13.333 -11 24c0 9.33301 3.33301 17.333 10 24
s14.334 10 23.001 10c7.33301 0 14.333 -2.66699 21 -8l67 -59c11.333 8 23.5 14.333 36.5 19s27.167 7 42.5 7c16 0 31.333 -2.83301 46 -8.5s28 -13.167 40 -22.5l72 56c6.66699 4.66699 13.334 7 20.001 7c10 0 18.667 -4.33301 26 -13c4.66699 -7.33301 7 -14 7 -20
c0 -10.667 -4.33301 -19.334 -13 -26.001l-73 -56c7.33301 -16.667 11 -34 11 -52c0 -22 -5.33301 -43 -16 -63l64 -55c8 -7.33301 12 -16 12 -26c0 -6.66699 -2.66699 -13.334 -8 -20.001zM336.995 701.002c0 13.333 -3.66699 25.6689 -11 37.002
c-1.33301 1.33301 -2.5 2.83301 -3.5 4.5s-2.16699 3.16699 -3.5 4.5c-14 15.333 -31.333 23 -52 23c-22 0 -39.333 -8 -52 -24l-2 -2c-0.666992 -0.666992 -1 -1.33398 -1 -2.00098c-9.33301 -11.333 -14 -25 -14 -41s4 -29.333 12 -40
c0.666992 -0.666992 1.16699 -1 1.5 -1s0.833008 -0.333008 1.5 -1l2 -4c14 -15.333 31.333 -23 52 -23s37 6.66699 49 20l6 6c10 13.333 15 27.666 15 42.999z" />
    <glyph glyph-name="yen" unicode="&#xa5;" horiz-adv-x="1170" 
d="M1090 363c0 -7.33301 -2.33594 -14.1699 -7.00293 -20.5029s-12.667 -9.5 -24 -9.5s-23.5 0.666992 -36.5 2s-24.833 2 -35.5 2c-8.66699 0 -17 -0.166992 -25 -0.5s-16 -0.833008 -24 -1.5v-29c0 -78.667 -16.333 -138.667 -49 -180s-77.334 -62 -134.001 -62
c-39.333 0 -71.333 12 -96 36s-37 55.333 -37 94c0 20 3.66699 40 11 60s20 39.167 38 57.5s42.333 34.833 73 49.5s69 26.334 115 35.001c-0.666992 11.333 -1.5 24.5 -2.5 39.5s-1.83301 31.167 -2.5 48.5l-137 -12c-11.333 -1.33301 -21 1.33398 -29 8.00098
s-12 15.667 -12 27c0 10 3.33301 18.333 10 25s14.667 10.667 24 12l76.5 7c23 2 44.5 3.66699 64.5 5c-0.666992 12 -1 23.167 -1 33.5v27.5c0 17.333 1 41.166 3 71.499s4.66699 61.166 8 92.499c-13.333 -30.667 -29 -58.834 -47 -84.501s-37.667 -47.667 -59 -66
s-43.666 -32.666 -66.999 -42.999s-46.666 -15.5 -69.999 -15.5c-32.667 0 -59.834 6 -81.501 18s-39 27.5 -52 46.5s-22.167 40.5 -27.5 64.5s-8 48 -8 72c0 20.667 1.5 41 4.5 61s6.33301 40 10 60s7 39.667 10 59s4.5 39 4.5 59c0 14.667 -1.83301 31.167 -5.5 49.5
s-10.5 35.5 -20.5 51.5s-24.167 29.5 -42.5 40.5s-41.833 16.5 -70.5 16.5c-16 0 -36 -3.16699 -60 -9.5s-47.5 -18 -70.5 -35s-42.667 -40.167 -59 -69.5s-24.5 -66.666 -24.5 -111.999c0 -38 5.33301 -68.167 16 -90.5s22.834 -39.5 36.501 -51.5s26.5 -19.833 38.5 -23.5
s19.667 -5.83398 23 -6.50098c9.33301 -1.33301 17 -5.5 23 -12.5s9 -15.167 9 -24.5c0 -11.333 -4 -20.5 -12 -27.5s-16.667 -10.5 -26 -10.5c-14.667 0 -32.5 4.5 -53.5 13.5s-41 23.333 -60 43s-35.333 44.834 -49 75.501s-20.5 67.667 -20.5 111
c0 42.667 7.66699 82.334 23 119.001s36 68.667 62 96s56.5 48.833 91.5 64.5s72.167 23.5 111.5 23.5c34 0 64.167 -6 90.5 -18s48.833 -28.333 67.5 -49s32.834 -45.167 42.501 -73.5s14.5 -58.5 14.5 -90.5c0 -20 -1.5 -40 -4.5 -60s-6.33301 -40 -10 -60
s-7 -40.333 -10 -61s-4.5 -41.334 -4.5 -62.001c0 -38 7.5 -68.167 22.5 -90.5s38.5 -33.5 70.5 -33.5c14.667 0 30.167 3.5 46.5 10.5s32.5 16.833 48.5 29.5s31.167 27.667 45.5 45s26.5 36.333 36.5 57c22.667 46 40.667 86.833 54 122.5s23.833 66.667 31.5 93
s13.334 48.5 17.001 66.5s7.16699 32.5 10.5 43.5s7.33301 18.833 12 23.5s12 7 22 7c11.333 0 20.5 -3.83301 27.5 -11.5s10.5 -16.5 10.5 -26.5c0 -2.66699 -1.33301 -13.667 -4 -33l-10 -72c-4 -28.667 -8.16699 -60.667 -12.5 -96l-12.5 -105
c-4 -34.667 -7.33301 -67.5 -10 -98.5s-4 -56.5 -4 -76.5v-61c29.333 2.66699 52.166 4.66699 68.499 6l37 3c8.33301 0.666992 13.5 1.16699 15.5 1.5s3.33301 0.5 4 0.5c9.33301 0 17.833 -3.16699 25.5 -9.5s11.5 -15.166 11.5 -26.499
c0 -9.33301 -3.16699 -17.166 -9.5 -23.499s-14.5 -10.166 -24.5 -11.499l-125 -12c0.666992 -17.333 1.33398 -33.5 2.00098 -48.5s1.66699 -28.167 3 -39.5c3.33301 0 8 0.166992 14 0.5s12.333 0.666016 19 0.999023s13.167 0.5 19.5 0.5h15.5
c8.66699 0 18.167 -0.333008 28.5 -1s20 -2.5 29 -5.5s16.333 -7.33301 22 -13s8.5 -13.167 8.5 -22.5zM861.997 325.996c-24 -3.33301 -45.998 -8.83301 -65.998 -16.5s-37.333 -17 -52 -28s-26.167 -23.5 -34.5 -37.5s-12.5 -29 -12.5 -45s6.16699 -30.5 18.5 -43.5
s27.166 -19.5 44.499 -19.5c29.333 0 53.666 12.667 72.999 38s29 66 29 122v30z" />
    <glyph glyph-name="brokenbar" unicode="&#xa6;" 
d="M288 -136c0 -10 -3.66699 -18.6631 -11 -25.9961s-16.333 -11 -27 -11s-19.667 3.66699 -27 11s-11 16.333 -11 27v34.5c0 22.333 0.166992 51.666 0.5 87.999s0.5 78.166 0.5 125.499v147c0 51.333 -0.166992 102.166 -0.5 152.499s-0.5 97.166 -0.5 140.499
c0 10.667 3.66699 19.667 11 27s16 11 26 11s18.833 -3.33301 26.5 -10s11.5 -15.667 11.5 -27v-104.5c0 -37 0.166992 -74.667 0.5 -113s0.5 -76.5 0.5 -114.5v-109v-249zM288 774.004c0 -10 -3.66699 -18.6631 -11 -25.9961s-16.333 -11 -27 -11s-19.667 3.66699 -27 11
s-11 16.333 -11 27v34.5c0 22.333 0.166992 51.666 0.5 87.999s0.5 78.166 0.5 125.499v147c0 51.333 -0.166992 102.166 -0.5 152.499s-0.5 97.166 -0.5 140.499c0 10.667 3.66699 19.667 11 27s16 11 26 11s18.833 -3.33301 26.5 -10s11.5 -15.667 11.5 -27v-104.5
c0 -37 0.166992 -74.667 0.5 -113s0.5 -76.5 0.5 -114.5v-109v-249z" />
    <glyph glyph-name="section" unicode="&#xa7;" horiz-adv-x="1591" 
d="M1292 185c0 -31.333 -8.16211 -62.6621 -24.4951 -93.9951s-43.666 -59.833 -81.999 -85.5s-89 -46.5 -152 -62.5s-141.167 -24 -234.5 -24c-74 0 -139.167 5 -195.5 15s-103.5 21 -141.5 33s-67 23.167 -87 33.5s-30.667 16.166 -32 17.499
c-12 8.66699 -18 19.334 -18 32.001c0 11.333 3.83301 20.333 11.5 27s16.167 10 25.5 10c6.66699 0 13.667 -2 21 -6c0.666992 0 9.83398 -4.66699 27.501 -14s44 -19.333 79 -30s78.333 -20.5 130 -29.5s111.5 -13.5 179.5 -13.5c64 0 121.667 4.33301 173 13
s95 21.167 131 37.5s63.667 36.5 83 60.5s29 51 29 81c0 28 -7.16699 51.667 -21.5 71s-33.833 35.333 -58.5 48s-53.167 22.667 -85.5 30s-66.5 13.166 -102.5 17.499s-72.833 7.5 -110.5 9.5l-108.5 6c-206.667 12 -363 47.167 -469 105.5s-159 136.166 -159 233.499
c0 72.667 25 139.667 75 201c-50 47.333 -75 106 -75 176c0 51.333 11.5 98.5 34.5 141.5s54.167 81.333 93.5 115s85.666 63.167 138.999 88.5s110.166 46.333 170.499 63s122.833 29.167 187.5 37.5s128.334 12.5 191.001 12.5c90 0 170.667 -5.83301 242 -17.5
s131.666 -30.167 180.999 -55.5s87 -57.833 113 -97.5s39 -87.5 39 -143.5c0 -18 -2 -36.333 -6 -55c-2 -8.66699 -6.33301 -15.834 -13 -21.501s-14.334 -8.5 -23.001 -8.5c-11.333 0 -20.5 3.66699 -27.5 11s-10.5 15.666 -10.5 24.999c0 8 0.833008 16.167 2.5 24.5
s2.5 16.166 2.5 23.499c0 82.667 -41.5 143.167 -124.5 181.5s-208.5 57.5 -376.5 57.5c-54.667 0 -110.834 -3.5 -168.501 -10.5s-113.834 -17.5 -168.501 -31.5s-106.334 -31.5 -155.001 -52.5s-91.334 -45.667 -128.001 -74s-65.667 -60.166 -87 -95.499
s-32 -74.333 -32 -117c0 -33.333 8.83301 -62.5 26.5 -87.5s41.334 -46.833 71.001 -65.5s63.667 -34.5 102 -47.5s78.166 -23.667 119.499 -32s82.5 -15 123.5 -20s79.167 -8.83301 114.5 -11.5c83.333 -6.66699 159.333 -14.334 228 -23.001s127.5 -21.5 176.5 -38.5
s87 -40 114 -69s40.5 -66.833 40.5 -113.5c0 -46 -11.667 -85 -35 -117s-58 -59.667 -104 -83c44.667 -19.333 79 -44.333 103 -75s36 -69.667 36 -117zM728.005 746.004c-114 9.33301 -211.499 23.498 -292.499 42.498s-147.167 43.833 -198.5 74.5
c-40.667 -48.667 -61 -100.334 -61 -155.001c0 -33.333 8.83301 -62.666 26.5 -87.999s41.334 -47.5 71.001 -66.5s63.667 -35.167 102 -48.5s78.166 -24.166 119.499 -32.499s82.5 -14.833 123.5 -19.5s79.167 -7.66699 114.5 -9
c62.667 -3.33301 120.5 -7.66602 173.5 -12.999s101.5 -13 145.5 -23c52 19.333 92.5 41.833 121.5 67.5s43.5 59.5 43.5 101.5c0 22.667 -7 42.167 -21 58.5s-32.833 30.333 -56.5 42s-51.5 21.167 -83.5 28.5s-66.167 13.5 -102.5 18.5s-73.833 9 -112.5 12
s-76.334 6.16699 -113.001 9.5z" />
    <glyph glyph-name="dieresis" unicode="&#xa8;" 
d="M395 674c0 -14 -5 -26 -15 -36s-22.667 -15 -38 -15c-14 0 -26 5 -36 15s-15 22 -15 36c0 14.667 5 27 15 37s22 15 36 15c15.333 0 28 -5 38 -15s15 -22.333 15 -37zM209 674c0 -14 -5 -26 -15 -36s-22.333 -15 -37 -15c-14 0 -26 5 -36 15s-15 22 -15 36
c0 14.667 5 27 15 37s22 15 36 15c14.667 0 27 -5 37 -15s15 -22.333 15 -37z" />
    <glyph glyph-name="copyright" unicode="&#xa9;" horiz-adv-x="1597" 
d="M1517 840c0 -74.667 -10.668 -147.833 -32.001 -219.5s-51.166 -139.334 -89.499 -203.001s-84 -122.167 -137 -175.5s-111.333 -99.5 -175 -138.5s-131.667 -69.333 -204 -91s-146.5 -32.5 -222.5 -32.5c-82 0 -158.167 14.5 -228.5 43.5s-131.333 69 -183 120
s-92.167 111.5 -121.5 181.5s-44 146 -44 228c0 76 11.167 150.167 33.5 222.5s53.5 140.333 93.5 204s87 122.334 141 176.001s113 99.667 177 138s131.167 68.333 201.5 90s141.5 32.5 213.5 32.5c82.667 0 159.167 -14.5 229.5 -43.5s131.333 -69.333 183 -121
s92 -112.667 121 -183s43.5 -146.5 43.5 -228.5zM656.999 55.001c68 0 134.835 10.002 200.502 30.002s127.5 47.667 185.5 83s111.5 77.666 160.5 126.999s91.167 103 126.5 161s62.833 119.667 82.5 185s29.5 132 29.5 200c0 72 -12.333 138.667 -37 200
s-59.334 114.166 -104.001 158.499s-97.667 79 -159 104s-128.333 37.5 -201 37.5c-64.667 0 -129 -9.83301 -193 -29.5s-125.167 -47 -183.5 -82s-112.5 -76.667 -162.5 -125s-93.333 -101.5 -130 -159.5s-65.334 -119.833 -86.001 -185.5s-31 -133.167 -31 -202.5
c0 -72 12.333 -138.667 37 -200s59 -114.333 103 -159s96.833 -79.667 158.5 -105s129.5 -38 203.5 -38zM567.001 561.003c0 -22.667 3.49805 -43.4951 10.498 -62.4951s16.833 -35.333 29.5 -49s28 -24.334 46 -32.001s37.667 -11.5 59 -11.5
c16.667 0 33.334 1.66699 50.001 5s32.834 7.5 48.501 12.5s30.5 10.5 44.5 16.5l39 17c11.333 5.33301 19.666 9.5 24.999 12.5s10.666 4.5 15.999 4.5c9.33301 0 18 -3.33301 26 -10s12 -15.667 12 -27c0 -14.667 -7.66699 -26.334 -23 -35.001l-28 -15.5
c-14 -7.66699 -31 -15.5 -51 -23.5s-42.5 -15.167 -67.5 -21.5s-50.833 -9.5 -77.5 -9.5c-31.333 0 -61 5 -89 15s-52.667 24.833 -74 44.5s-38.166 43.667 -50.499 72s-18.5 60.5 -18.5 96.5c0 32.667 5.83301 66.667 17.5 102s27.5 69.666 47.5 102.999s43.833 65 71.5 95
s57.334 56.333 89.001 79s65 40.5 100 53.5s69.833 19.5 104.5 19.5c18 0 35.5 -2.5 52.5 -7.5s31.833 -12.333 44.5 -22s22.834 -21.834 30.501 -36.501s11.5 -32 11.5 -52c0 -16 -2.16699 -32 -6.5 -48s-9.33301 -30.5 -15 -43.5s-11.334 -24.5 -17.001 -34.5
s-9.5 -17 -11.5 -21c-7.33301 -12.667 -18.333 -19 -33 -19c-10.667 0 -19.5 3.5 -26.5 10.5s-10.5 15.5 -10.5 25.5c0 6.66699 2.16699 14.5 6.5 23.5s9.16602 18.167 14.499 27.5c6 11.333 11.5 22.333 16.5 33s7.5 21 7.5 31c0 5.33301 -0.5 11.5 -1.5 18.5
s-3.5 13.5 -7.5 19.5s-10.167 11 -18.5 15s-19.833 6 -34.5 6c-27.333 0 -55.333 -5.5 -84 -16.5s-56.167 -25.833 -82.5 -44.5s-51.166 -40.5 -74.499 -65.5s-43.833 -51.333 -61.5 -79s-31.5 -56.334 -41.5 -86.001s-15 -58.167 -15 -85.5z" />
    <glyph glyph-name="ordfeminine" unicode="&#xaa;" horiz-adv-x="475" 
d="M284 1144c-18.667 -32 -39.3389 -54.168 -62.0059 -66.501s-44 -18.5 -64 -18.5c-18.667 0 -35.5 3.5 -50.5 10.5s-27.833 16.833 -38.5 29.5s-19 27.334 -25 44.001s-9 35 -9 55c0 38.667 6.66699 72.667 20 102s30.333 54 51 74s43.334 35 68.001 45
s48.334 15 71.001 15c19.333 0 36.333 -2.66699 51 -8s26.834 -11.5 36.501 -18.5s17 -14.5 22 -22.5s7.5 -14.333 7.5 -19c0 -9.33301 -3.5 -17 -10.5 -23s-15.167 -9 -24.5 -9c-5.33301 0 -10.666 1.66699 -15.999 5l-17.5 11c-6.33301 4 -13.333 7.66699 -21 11
s-16.167 5 -25.5 5c-14 0 -29.5 -3.16699 -46.5 -9.5s-32.833 -16.166 -47.5 -29.499s-26.834 -30.5 -36.501 -51.5s-14.5 -46.167 -14.5 -75.5c0 -21.333 4.5 -38.833 13.5 -52.5s23.167 -20.5 42.5 -20.5c8.66699 0 18.5 2.66699 29.5 8s21.667 13.666 32 24.999
s19.5 25.833 27.5 43.5s13.667 38.834 17 63.501c1.33301 8.66699 4.83301 16 10.5 22s12.834 9 21.501 9c10 0 18.167 -3.16699 24.5 -9.5s9.83301 -13.833 10.5 -22.5c4 -48 10.833 -84 20.5 -108s25.167 -36 46.5 -36c2.66699 0 4.83398 0.333008 6.50098 1
s3.83398 1 6.50098 1c8.66699 0 16.5 -3 23.5 -9s10.5 -14 10.5 -24c0 -14 -4.16699 -23.667 -12.5 -29s-19.833 -8 -34.5 -8c-25.333 0 -48.333 8.66699 -69 26s-35.667 38.666 -45 63.999zM439.995 937.999c0 -9.33301 -3.16699 -17.166 -9.5 -23.499
s-14.166 -9.5 -23.499 -9.5h-344c-9.33301 0 -17.166 3.16699 -23.499 9.5s-9.5 14.166 -9.5 23.499s3.16699 17.166 9.5 23.499s14.166 9.5 23.499 9.5h344c9.33301 0 17.166 -3.16699 23.499 -9.5s9.5 -14.166 9.5 -23.499z" />
    <glyph glyph-name="guillemotleft" unicode="&#xab;" horiz-adv-x="898" 
d="M548 1c0 -9.33301 -3.66309 -17.499 -10.9961 -24.499s-16.333 -10.5 -27 -10.5c-7.33301 0 -14.333 2.33301 -21 7l-161 111.5c-51.333 35.667 -104.333 69.167 -159 100.5c-12.667 7.33301 -19 18.666 -19 33.999c0 14.667 7 25.667 21 33
c42 21.333 81.667 47.5 119 78.5s70 61 98 90s50.333 53.833 67 74.5s25 31.334 25 32.001c3.33301 5.33301 7.83301 9.16602 13.5 11.499s11.167 3.5 16.5 3.5c11.333 0 20.5 -3.83301 27.5 -11.5s10.5 -16.167 10.5 -25.5c0 -8.66699 -2.33301 -16.334 -7 -23.001
c-1.33301 -2 -9.33301 -12.167 -24 -30.5s-34.334 -40.666 -59.001 -66.999s-53.834 -54.5 -87.501 -84.5s-69.834 -57.333 -108.501 -82c32 -19.333 63.167 -39.166 93.5 -59.499l92.5 -63.5c8 -6 17.833 -13 29.5 -21s22.667 -16.167 33 -24.5
s19.166 -16.833 26.499 -25.5s11 -16.334 11 -23.001zM848.004 1.00098c0 -9.33301 -3.66309 -17.499 -10.9961 -24.499s-16.333 -10.5 -27 -10.5c-7.33301 0 -14.333 2.33301 -21 7l-161 111.5c-51.333 35.667 -104.333 69.167 -159 100.5
c-12.667 7.33301 -19 18.666 -19 33.999c0 14.667 7 25.667 21 33c42 21.333 81.667 47.5 119 78.5s70 61 98 90s50.333 53.833 67 74.5s25 31.334 25 32.001c3.33301 5.33301 7.83301 9.16602 13.5 11.499s11.167 3.5 16.5 3.5c11.333 0 20.5 -3.83301 27.5 -11.5
s10.5 -16.167 10.5 -25.5c0 -8.66699 -2.33301 -16.334 -7 -23.001c-1.33301 -2 -9.33301 -12.167 -24 -30.5s-34.334 -40.666 -59.001 -66.999s-53.834 -54.5 -87.501 -84.5s-69.834 -57.333 -108.501 -82c32 -19.333 63.167 -39.166 93.5 -59.499l92.5 -63.5
c8 -6 17.833 -13 29.5 -21s22.667 -16.167 33 -24.5s19.166 -16.833 26.499 -25.5s11 -16.334 11 -23.001z" />
    <glyph glyph-name="logicalnot" unicode="&#xac;" horiz-adv-x="750" 
d="M110 662c-10 -0.666992 -19.002 2.66602 -27.002 9.99902s-12 16.333 -12 27c0 10 3.33301 18.667 10 26s15.667 11.333 27 12l513 16c9.33301 0 18 -3.16699 26 -9.5s12 -15.166 12 -26.499v-3l-11 -227c-0.666992 -10 -4.5 -18.5 -11.5 -25.5s-15.5 -10.5 -25.5 -10.5
c-11.333 0 -20.666 3.83301 -27.999 11.5s-10.666 17.167 -9.99902 28.5l9 186z" />
    <glyph glyph-name="uni00AD" unicode="&#xad;" horiz-adv-x="750" 
d="M660 350c0 -10.667 -3.16895 -19.8311 -9.50195 -27.498s-15.166 -11.834 -26.499 -12.501l-344 -18c-10 -0.666992 -19.167 2.16602 -27.5 8.49902s-12.5 15.166 -12.5 26.499c0 10.667 3.16699 19.834 9.5 27.501s15.166 11.834 26.499 12.501l344 18
c10.667 0.666992 19.834 -2.33301 27.501 -9s11.834 -15.334 12.501 -26.001z" />
    <glyph glyph-name="registered" unicode="&#xae;" horiz-adv-x="1006" 
d="M926 1097c0 -65.333 -13.665 -128.332 -40.998 -188.999s-64.166 -114.334 -110.499 -161.001s-99.833 -83.834 -160.5 -111.501s-124.334 -41.5 -191.001 -41.5c-48.667 0 -94 8.5 -136 25.5s-78.333 40.667 -109 71s-54.667 66.333 -72 108s-26 86.834 -26 135.501
c0 44.667 6.5 88 19.5 130s31.167 81.833 54.5 119.5s50.833 72.167 82.5 103.5s66.167 58.166 103.5 80.499s76.666 39.833 117.999 52.5s83 19 125 19c49.333 0 95 -8.66699 137 -26s78.167 -41.166 108.5 -71.499s54.166 -66.5 71.499 -108.5s26 -87.333 26 -136z
M423.002 669.001c56 0 109.666 11.8301 160.999 35.4971s96.833 55.334 136.5 95.001s71.334 85.334 95.001 137.001s35.5 105.5 35.5 161.5c0 38.667 -6.66699 74.167 -20 106.5s-31.833 60.333 -55.5 84s-51.834 42.167 -84.501 55.5s-68.334 20 -107.001 20
c-53.333 0 -105.666 -11.667 -156.999 -35s-97.166 -54.666 -137.499 -93.999s-72.833 -84.666 -97.5 -135.999s-37 -105.333 -37 -162c0 -38.667 6.5 -74.334 19.5 -107.001s31.333 -61 55 -85s52 -42.667 85 -56s69.167 -20 108.5 -20zM740.001 1135
c0 -9.33301 -3.00293 -17.501 -9.00293 -24.501s-14.667 -10.5 -26 -10.5c-15.333 0 -25 3.83301 -29 11.5s-7 16 -9 25s-5.16699 17.333 -9.5 25s-13.833 11.5 -28.5 11.5c-27.333 0 -52.666 -9.66699 -75.999 -29s-45 -45.666 -65 -78.999s-38.667 -72.666 -56 -117.999
s-33.666 -94 -48.999 -146c-2 -6 -6 -11 -12 -15s-12.667 -6 -20 -6c-10.667 0 -19.834 3.66699 -27.501 11s-11.5 17.666 -11.5 30.999l31 351c1.33301 10 5.66602 18.333 12.999 25s16 10 26 10c10.667 0 19.334 -4 26.001 -12s10 -16.667 10 -26
c0 -19.333 -1 -38.833 -3 -58.5s-3.66699 -43.834 -5 -72.501c18.667 42 37.834 76.5 57.501 103.5s39.167 48.333 58.5 64s38.5 26.5 57.5 32.5s36.833 9 53.5 9c12.667 0 25.334 -2.16699 38.001 -6.5s23.667 -11.166 33 -20.499s17 -21 23 -35s9 -31 9 -51z" />
    <glyph glyph-name="macron" unicode="&#xaf;" 
d="M410 682c0 -9.33301 -3 -17.1631 -9 -23.4961s-13.667 -9.83301 -23 -10.5l-252 -10c-8.66699 -0.666992 -16.667 2.16602 -24 8.49902s-11 14.166 -11 23.499s3 17.166 9 23.499s13.667 9.83301 23 10.5l253 10c9.33301 0.666992 17.333 -2.33301 24 -9
s10 -14.334 10 -23.001z" />
    <glyph glyph-name="degree" unicode="&#xb0;" horiz-adv-x="348" 
d="M318 1296c0 -19.333 -3.83301 -37.666 -11.5 -54.999s-18 -32.5 -31 -45.5s-28.333 -23.333 -46 -31s-36.5 -11.5 -56.5 -11.5c-19.333 0 -37.666 3.83301 -54.999 11.5s-32.5 18 -45.5 31s-23.333 28.167 -31 45.5s-11.5 35.666 -11.5 54.999
s3.83301 37.666 11.5 54.999s18 32.5 31 45.5s28.167 23.333 45.5 31s35.666 11.5 54.999 11.5c20 0 38.833 -3.83301 56.5 -11.5s33 -18 46 -31s23.333 -28.167 31 -45.5s11.5 -35.666 11.5 -54.999zM252 1296c0 22 -7.66699 40.333 -23 55s-34 22 -56 22
c-21.333 0 -39.5 -7.33301 -54.5 -22s-22.5 -33 -22.5 -55c0 -21.333 7.5 -39.5 22.5 -54.5s33.167 -22.5 54.5 -22.5c22 0 40.667 7.5 56 22.5s23 33.167 23 54.5z" />
    <glyph glyph-name="plusminus" unicode="&#xb1;" horiz-adv-x="750" 
d="M689 682c0 -10.667 -3.16797 -19.832 -9.50098 -27.499s-15.166 -11.834 -26.499 -12.501l-234 -12l-14 -184c-1.33301 -10 -5.5 -18.333 -12.5 -25s-15.5 -10 -25.5 -10s-18.667 3.66699 -26 11s-11 16 -11 26c0 0.666992 1 14.834 3 42.501l10 135.5l-234 -12
c-10 -0.666992 -19.167 2.16602 -27.5 8.49902s-12.5 15.166 -12.5 26.499c0 10.667 3.16699 19.834 9.5 27.501s15.166 11.834 26.499 12.501l243 12l6.5 86l7.5 100c0.666992 10 4.66699 18.333 12 25s15.666 10 24.999 10c12 0 21.5 -4 28.5 -12s10.5 -17.333 10.5 -28
l-14 -177l225 12c10.667 0.666992 19.834 -2.33301 27.501 -9s11.834 -15.334 12.501 -26.001zM674.999 332.002c0 -10.667 -3.16895 -19.8311 -9.50195 -27.498s-15.166 -11.834 -26.499 -12.501l-524 -28c-10 -0.666992 -19.167 2.16602 -27.5 8.49902
s-12.5 15.166 -12.5 26.499c0 10.667 3.16699 19.834 9.5 27.501s15.166 11.834 26.499 12.501l524 28c10.667 0.666992 19.834 -2.33301 27.501 -9s11.834 -15.334 12.501 -26.001z" />
    </font>
</defs>
</svg>
